<?xml version="1.0" encoding="UTF-8"?>
<svg id="OBJECTS" xmlns="http://www.w3.org/2000/svg" xmlns:xlink="http://www.w3.org/1999/xlink" viewBox="0 0 900 350">
  <defs>
    <style>
      .cls-1 {
        fill: #8e7a64;
      }

      .cls-2 {
        fill: none;
      }

      .cls-3 {
        clip-path: url(#clippath-1);
      }

      .cls-4, .cls-5 {
        isolation: isolate;
      }

      .cls-5 {
        opacity: .2;
        stroke: #000;
        stroke-miterlimit: 10;
        stroke-width: .75px;
      }

      .cls-5, .cls-6 {
        fill: #0097b2;
      }

      .cls-7 {
        clip-path: url(#clippath-2);
      }

      .cls-8 {
        clip-path: url(#clippath);
      }
    </style>
    <clipPath id="clippath">
      <rect class="cls-2" x="423.17" y="-175.14" width="140.46" height="141.24"/>
    </clipPath>
    <clipPath id="clippath-1">
      <rect class="cls-2" x="3.17" y="15.86" width="316.52" height="318.28"/>
    </clipPath>
    <clipPath id="clippath-2">
      <rect class="cls-2" x="3.17" y="-175.14" width="140.46" height="141.24"/>
    </clipPath>
  </defs>
  <g class="cls-8">
    <g>
      <path class="cls-6" d="M467.63-80.6c3.56-.46,7.09-.51,10.43-1.95,2.38-1.02,3.05-1.95,3.22-4.54.21-3.14.08-6.32.13-9.46v-1.1c-1.36.42-2.67.72-3.95,1.02-2.04.42-4.12.72-6.2.55-1.44-.13-2.25-.46-2.46-2.21-.17-1.4-.3-2.8-.76-4.16-.3-.89-.76-1.7-1.27-2.42-.46-.68-.76-1.4-.55-2.16.25-.89-.17-1.53-.59-2.21-.34-.55-.72-1.06-1.06-1.61-.55-.85-.46-1.4.25-2.12.3-.3.63-.59.63-1.1,0-1.15-.25-1.49-1.27-1.57-1.74-.17-3.01-1.23-4.12-2.46-.55-.63-.46-1.27-.08-2,1.7-3.18,3.35-6.41,5.13-9.59,1.15-2.04,1.23-4.08.3-6.2-.72-1.7-1.23-3.48-.97-5.34.3-2.33.72-4.67,1.53-6.88.38-1.02.72-2.04,1.1-3.14-1.1-.85-1.83-1.95-2.12-3.35-.55-2.5.93-4.46,3.52-4.5.68,0,1.4-.08,2.08.08.25.04.46-.08.72-.17,1.36-.51,2.46-1.36,3.52-2.33,3.18-2.97,6.96-4.92,11.08-6.15,3.48-1.06,7.04-1.4,10.65-1.23,1.32.08,2.63.42,3.91.85,2,.68,4.12,1.1,6.15,1.66,3.35.89,6.15,2.67,8.83,4.79,2.59,2.04,4.37,4.71,6.15,7.42.13.21.3.46.46.68,0,0,.08,0,.17.08,0-2.04.55-3.86,1.74-5.51,1.91-2.59,4.46-4.12,7.68-4.67,1.91-.3,3.73,0,5.56.59,2.55.85,5.01,1.83,7.13,3.56,1.53,1.27,2.71,2.8,3.39,4.63,1.19,3.18,1.87,6.49,1.7,9.89-.08,2.33-.42,4.71-1.32,6.92-1.15,2.88-3.22,5.05-5.64,6.88-1.7,1.23-3.48,2.29-5.6,2.67-3.82.68-7.38-.04-10.56-2.42-.25-.17-.42-.42-.59-.68-.17-.21-.3-.46-.51-.72-.08,1.4-.3,2.76.17,4.16.42,1.27.76,2.63.76,3.99,0,2.93-1.27,5.26-3.52,7.04-1.53,1.23-3.26,2-5.3,2.16-1.23.08-1.87.72-2.12,1.95-.08.42-.17.89-.25,1.32-.46,2.29-1.49,3.31-3.78,3.69-.89.13-1.49.59-2.08,1.19-1.23,1.36-1.66,2.97-1.91,4.71-.59,3.91-.59,7.85-.55,11.84,0,3.26,1.57,5.51,4.63,6.88,2.88,1.23,5.85,2.04,8.96,2.16.13,0,.3,0,.42.04.59.21,1.02.08,1.1-.63,2.67.42,5.26,1.15,7.85,1.74,4.71,1.06,9.38,2.29,14.05,3.61.38.13.76.21,1.15.34.8.25.85.38.51,1.19-.08.25-.21.51-.34.8,1.1.46,2.21.97,3.35,1.36,3.82,1.36,7.21,3.56,10.86,5.34.38.17.42.46.46.85.04,2.08-.17,4.16-.51,6.24-1.66,9.67-5.56,18.59-9.97,27.24-6.07,11.92-13.49,23-22.1,33.27-6.41,7.64-13.28,14.81-21.3,20.79-3.48,2.59-7.13,4.96-11.12,6.79-.59.25-1.1.3-1.7,0-4.63-2.12-8.83-4.96-12.81-8.1-5.26-4.16-10.01-8.78-14.51-13.71-5.18-5.68-10.01-11.63-14.43-17.95-5.98-8.57-11.29-17.52-15.66-27.03-.13-.25-.25-.46-.38-.76-1.57,1.7-3.05,3.35-4.58,4.96-.21.25-.38.63-.8.55-.38-.08-.34-.51-.38-.8-.25-.97-.34-1.95.34-2.84.17-.21,0-.38,0-.55-1.23-3.78-1.83-7.68-2.25-11.63-.25-2.29-.38-4.58-.25-6.83.34-6.37,1.91-12.35,5.9-17.52,3.35-4.33,7.76-7.17,12.94-8.87,2.8-.93,5.73-1.49,8.66-1.83,2.76-.34,5.56-.3,8.32-.25,1.15,0,2.33.17,3.48.3.85.08,1.66-.34,2.55-.17.55.08.72.3.72.76s-.21.93-.46,1.32c-.46.8-.93,1.66-1.4,2.5l-.21.08-.04.02ZM487.87-112.59c.38.25.51.59.68.89.97,1.32,2.71,1.36,3.78.13.3-.34.42-.72.34-1.23-.21-1.27-.89-2.16-2-2.8-1.61-.93-1.95-2.16-1.15-3.86.38-.8.97-1.44,1.49-2.12.51-.68.55-1.36.21-2.16-.38-.93-1.15-1.53-1.91-2.12-2.12-1.57-2.46-4.2-.85-6.28.46-.59.93-1.15,1.32-1.78.34-.51.51-1.1.42-1.74-.21-1.91-1.61-2.93-2.97-3.99-.3-.21-.68-.25-1.06-.21-.51,0-1.06.04-1.57-.04-3.09-.59-5.47-2.21-7.21-4.79-.21-.3-.38-.38-.72-.38-.8,0-1.66.08-2.46.17-1.83.25-3.65.42-5.39,1.02-.34.13-.68.25-.93.55-.76.93-1.49,1.91-2.29,2.84-.42.46-.46.93-.34,1.53.3,1.23.59,2.46.89,3.69.55,2.08.46,4.08-.55,6.07-1.57,3.09-3.39,6.07-5.01,9.12-.55,1.1-.51,1.4.46,2.21,1.02.85,2.21,1.27,3.48,1.53.68.13,1.1.59,1.27,1.27.25,1.06-.13,1.87-.8,2.63-.46.51-.25,1.1.38,1.27.38.08.8.13,1.15-.13.85-.55,1.61-.38,2.38.21.42.3.89.55,1.32.85.93.72,1.95,1.23,3.26.97-1.32,2.29-2.42,4.75-5.6,5.05.89,1.74,1.32,3.56,1.53,5.43.17,1.44.59,1.91,2.04,1.95,1.15,0,2.29-.13,3.39-.3,2.08-.34,4.16-.63,6.15-1.32,2.16-.76,4.29-1.57,6.32-2.55,2.67-1.32,5.64-2.33,7.3-5.22,0,.51-.25.8-.46,1.15-.68,1.1-1.87,1.66-2.76,2.59-.93.97-2.04,1.74-2.97,2.71-1.95,2.08-3.86,4.25-5.77,6.37-.21.25-.46.51-.46.89,0,1.83-.13,3.61-.25,5.43-.17,2.5-1.32,4.25-3.69,5.26-3.35,1.4-6.92,1.53-10.48,1.87-.97.08-2.04,1.32-1.91,2.33.25,1.91.46,3.78.68,5.68.21,2,.42,3.99.63,5.98.25,2.46.59,4.92.85,7.38.25,2.5.51,5.01.76,7.55.3,2.55.55,5.13.89,7.68.13.97.13,2,.59,2.97,4.75,9.8,9.46,19.6,14.17,29.36,1.19,2.42,2.12,4.96,4.12,6.92,1.66,1.61,3.18,3.44,4.79,5.22,1.7-1.87,3.35-3.65,4.96-5.47.59-.68,1.32-1.32,1.74-2.12.72-1.23,1.23-2.59,1.87-3.86,4.16-8.61,8.27-17.23,12.43-25.84.72-1.49,1.53-2.93,2.12-4.5.68-1.74.51-3.61.76-5.43.3-2,.42-4.03.63-6.07s.46-4.08.68-6.11c.21-2,.42-3.99.63-5.98.21-2.08.46-4.12.72-6.2.21-2.04.46-4.03.72-6.07.13-1.19.25-2.42.38-3.65-1.4,0-2.67-.17-3.99-.3-2.84-.3-5.47-1.23-7.89-2.67-2.16-1.32-3.31-3.26-3.56-5.77-.25-2.33-.17-4.67-.08-7,.08-2.67.17-5.39.93-8.02.08-.34,0-.51-.25-.76-.76-.63-1.36-1.4-1.66-2.42-.38-1.4-.34-2.8.17-4.16.34-.89.13-1.61-.51-2.25-1.4-1.27-2.38-2.67-2.04-4.79-.89.68-1.78,1.15-2.67,1.57-.46.25-.72.59-.72,1.1-.04.89-.25,1.7-.46,2.55-.34,1.36-.76,2.67-1.27,3.95-.08.21-.17.46-.46.34-.21-.08-.13-.25-.08-.42.8-2.21,1.19-4.54,1.66-6.83.08-.42.3-.68.68-.89.76-.42,1.53-.8,2.25-1.32,2.67-1.91,4.03-4.71,4.84-7.8.59-2.21.72-4.46-.25-6.54-1.23-2.63-4.25-4.03-6.58-.89-1.02,1.4-1.7,3.01-2.38,4.58-.08.17-.08.3,0,.42.59,1.1.97,2.25.63,3.56,0,.08.08.21.08.34.46,1.74-.08,3.31-1.53,4.37-.63.46-1.32.85-1.78,1.44-.93,1.23-.93,2,.08,2.84,1.36,1.1,1.27,2.8.46,4.03-.8,1.23-1.78,2.38-3.52,2.12-.59-.08-1.19-.25-1.78-.46-.89-.3-1.7-1.36-1.7-2.29l.25-.04v-.02ZM477.09,16.14c4.92,4.2,9.97,8.02,15.7,10.86.55.25.97.25,1.49,0,6.2-3.09,11.67-7.3,16.85-11.84,4.54-4.03,8.78-8.4,12.77-12.94.72-.8,1.53-1.57,1.95-2.59,1.66-3.99,3.18-8.06,4.67-12.13,3.91-10.78,7.59-21.64,11.12-32.54,2.67-8.27,5.34-16.59,7.3-25.07.3-1.36.34-1.36-.97-1.87-1.15-.42-2.25-.97-3.48-1.27-.42.89-.85,1.74-1.27,2.59-6.66,13.28-14.05,26.14-22.36,38.44-8.4,12.43-17.52,24.31-27.92,35.13-2.59,2.71-5.34,5.3-8.19,7.72-2.38,2.04-4.88,3.91-7.59,5.64l-.04-.13h0ZM450.57-58.02c-.08.08-.13.08-.17.13-2.08,2.5-4.2,5.01-6.28,7.47-.25.3-.17.51-.04.8.68,2.12,1.36,4.29,2.04,6.41,4.58,13.83,9.12,27.66,14.51,41.2.34.85.59,1.78,1.23,2.55.93,1.1,1.87,2.21,2.84,3.26,3.56,4.03,7.38,7.8,11.37,11.42.42.38.68.34,1.15.04,4.33-2.84,8.19-6.24,11.92-9.76,1.32-1.27,2.59-2.59,3.91-3.86-16.72-18.12-30.51-38.19-42.39-59.66h-.09ZM449.85-61.38c5.56-7.55,11.75-14.72,16.34-23.04-.17-.04-.25-.13-.38-.13-.46,0-.93,0-1.4-.08-.55-.08-.8.13-1.1.59-2.67,4.29-5.68,8.32-9.04,12.09-1.7,1.95-1.4,1.57-3.18.68-1.27-.68-2.5-1.49-3.65-2.46,2.38-3.65,5.05-7.09,7.38-10.82-1.83.13-3.48.38-5.18.76-.3.08-.38.25-.46.46-.72,1.53-1.44,3.05-2.38,4.46-.21.34-.38.68-.97.97.97-2,2.04-3.69,2.84-5.6-.46-.04-.72.13-.89.46s-.34.68-.51.97c-2.55,4.08-5.22,8.1-8.23,11.84-.3.34-.46.85-.97.97,1.4-2.42,3.22-4.54,4.79-6.83,1.57-2.29,3.05-4.63,4.41-7.04-5.94,1.7-10.99,4.75-14.6,9.8-3.22,4.46-4.63,9.55-5.05,15.06,3.56-2.93,6.2-6.58,9.51-9.63-.17.38-.38.68-.63.97-1.02,1.15-2,2.33-3.05,3.48-1.78,1.91-3.48,3.91-5.51,5.56-.38.34-.38.68-.21,1.19,6.49-6.28,12.3-13.07,17.52-20.36,0,.25-.13.42-.25.59-2.63,4.03-5.6,7.8-8.78,11.46-2.67,3.09-5.39,6.2-8.53,8.87-.17.13-.25.3-.25.51.04,1.57.13,3.18.17,4.75,0,.13.08.25.21.63.13-.25.17-.38.25-.46,1.06-1.15,2.12-2.29,3.22-3.44.17-.17.38-.42.68-.25.76.46,1.57.93,2.16,1.61-1.57,2.55-3.56,4.63-5.43,6.88-.13.17-.38.25-.34.55.17.76.3,1.53.51,2.5,1.74-2.33,3.78-4.16,5.39-6.37,0,.38-.17.63-.38.85-1.49,1.83-2.93,3.61-4.41,5.43-.25.34-.72.68-.21,1.23,2.29-2.84,4.67-5.51,6.62-8.57-.13-.13-.21-.38-.46-.38-.42.3-.51.93-1.1,1.1.46-.59.55-1.49,1.4-1.66.72.55.68,1.1.21,1.83-1.87,2.8-4.16,5.26-6.2,7.89-.17.21-.46.38-.42.68.17.76.34,1.49.55,2.29,6.79-6.28,11.88-13.83,17.78-20.71-.21.42-.46.8-.76,1.19-2.25,2.84-4.58,5.6-6.79,8.49-3.18,4.16-6.49,8.19-10.27,11.75-.63.59-.8,1.61-.42,2.5.17,0,.25-.13.34-.25,1.91-2.16,3.82-4.29,5.73-6.49,4.92-5.68,9.8-11.42,14.51-17.31,3.52-4.41,7.04-8.74,10.43-13.24,2.5-3.31,5.01-6.62,7.09-10.22.34-.55.68-1.15.8-1.78-.85-.34-1.32-.21-1.66.34-1.57,2.63-3.26,5.18-4.96,7.68-3.01,4.41-6.37,8.57-9.72,12.68-.72.89-1.36,1.83-2.29,2.5h.21v-.02ZM527.03-1.55c.21-.25.46-.51.68-.8,5.85-7.21,11.16-14.85,15.87-22.87,5.77-9.84,10.56-20.15,13.41-31.27.76-3.01,1.27-6.02,1.7-9.12.13-.76-.21-1.19-.85-1.53-1.83-.97-3.65-2-5.51-2.97-.76-.42-1.57-.76-2.42-1.15-2.88,11.97-6.75,23.55-10.52,35.13-3.82,11.63-7.97,23.08-12.39,34.54l.04.04h0ZM535.35-78.05c-11.12,23.12-22.19,46.16-33.27,69.16.08.04.17.08.21.13,16.72-20.58,30.93-42.73,42.26-66.78l-.34-.17c-2.97-.8-5.94-1.61-8.87-2.38v.04h0ZM457.27-66.38c-.21.08-.3.25-.42.42-1.74,2.21-3.48,4.41-5.26,6.58-.42.51-.46.85-.13,1.49,9.08,16.17,19.22,31.57,30.81,46.04.85,1.06,1.74,2.08,2.59,3.14.04,0,.08-.08.17-.08-9.21-19.18-18.37-38.4-27.71-57.54l-.04-.04h0ZM460.03-1.55c-6.02-15.78-11.59-31.69-16.63-47.82-.13.04-.21.04-.21.08-2.38,2.76-4.75,5.47-7.13,8.23-.3.34-.34.63-.17,1.06.76,1.57,1.44,3.22,2.25,4.79,5.18,10.39,11.37,20.15,18.46,29.32,1.15,1.49,2.29,2.88,3.44,4.37v-.04ZM534.71-78.18c-4.25-1.06-8.4-2.21-12.64-3.05-1.44,12.77-2.93,25.5-4.37,38.19,5.73-11.67,11.2-23.47,17.01-35.17v.04ZM471.7-158.71c1.66.68,2.93,1.7,3.99,3.01.3.38.63.68,1.02.97,1.02.76,2.04,1.49,3.39,1.49,1.06,0,1.53-.89,2.21-1.49,2.76-2.38,6.02-2.5,8.96-.17,2.55,2,5.22,3.56,8.53,3.78,1.66.08,3.35.38,4.88-.63.55-.38,1.19-.59,1.83-.8,2.76-1.06,5.51-2.12,8.53-1.91.89.08,1.78.25,2.67.42-.21-.46-.51-.76-.89-.97-2.71-1.87-5.73-2.59-8.96-2.67-2.25-.04-4.5.42-6.66.97-1.78.46-3.61.68-5.47.46-1.95-.21-3.48-1.4-5.01-2.5-1.44-1.06-2.76-2.29-4.5-2.84-3.35-1.06-6.62-.59-9.84.51-1.66.59-3.09,1.66-4.79,2.42l.13-.04h0ZM479.98-147.97c.13.42.42.68.63.97,1.57,1.95,4.54,3.52,7.55,2.12,1.83-.85,3.69-.51,5.43.42.55.3,1.1.68,1.61,1.06,1.87,1.36,3.95,1.49,6.15,1.06,2.88-.55,4.88-2.29,6.75-4.41,2.5-2.88,5.64-4.67,9.59-4.63,1.36,0,2.67.08,4.08.3-.17-.17-.3-.34-.42-.46-.08-.08-.21-.21-.34-.3-2.8-1.91-5.85-2.5-9.12-1.87-2.29.42-4.46,1.27-6.54,2.38-2.42,1.27-4.75,2.63-7.38,3.44-2,.63-4.03.93-6.07.51-1.44-.3-2.8-.8-4.16-1.4-2.76-1.19-5.34-.93-7.8.76l.04.04h-.01ZM507.05-105.08c.13-.21.17-.38.25-.51.89-1.57,1.87-3.05,3.99-3.14,1.23-.04,2.21-.68,2.63-1.95.21-.68.38-1.32.46-2.04.21-2.12.76-2.8,2.8-3.44.72-.21,1.49-.42,2.08-.89,2.16-1.61,3.26-3.86,3.78-6.45.46-2.25-.51-4.29-.68-6.54-1.02,1.32-2.42,1.74-3.91,1.95-.63.08-1.15.46-1.44,1.06-.55,1.02-.8,2.12-.97,3.22-.21,1.57-.55,3.05-1.7,4.25-1.32,1.32-2.93,2.16-4.63,2.71-1.74.55-2.71,1.74-3.35,3.35-.38.97-.72,1.95-1.02,2.93-.42,1.61-.46,4.08,1.74,5.43l-.04.04h.01ZM473.74-152.55c-.97-1.7-1.83-2.42-3.61-2.88-.63-.17-1.36-.25-1.87.25-.46.46-.42,1.4,0,2.16.21.38.51.72.85,1.06-.21.17-.38.13-.55,0-.68-.42-1.49-1.87-1.1-2.88.25-.63.59-1.1,1.32-1.23,1.87-.3,3.35.42,4.58,1.74.93,1.02,1.61,2.21,2.04,3.52.51,1.49,1.1,2.97,1.78,4.37,1.19,2.46,3.09,4.2,5.64,5.26,1.23.51,2.5.89,3.82.46.76-.21,1.44-.63,2.21-.89,1.78-.63,3.44-.59,4.84.89.34.38.8.68,1.23.93,4.5,2.8,8.23,1.1,10.22-3.35-.76.42-1.53.76-2.38.97-2.04.55-4.03,1.02-6.11.17-1.1-.46-2.04-1.15-3.01-1.74-1.7-.97-3.48-1.4-5.39-.55-2.33,1.06-4.5.51-6.49-.89-1.49-1.02-2.5-2.46-3.22-4.12-.63-1.36-1.23-2.76-1.95-4.08-1.02-1.87-2.29-3.44-4.16-4.46-1.74-.93-3.56-1.23-5.39-.38-1.02.46-1.61,1.32-1.49,2.5.08,1.36.55,2.55,1.57,3.44.68.59.68,1.19.42,1.95-.55,1.66-1.02,3.35-1.57,5.01,2.33-2.29,4.46-4.75,6.92-6.92-1.02-.46-1.83.25-2.71.3.42-1.02,1.44-1.23,3.56-.8v.17h0ZM465.42-77.37c-.25.3-.38.46-.51.63-2.21,3.14-4.54,6.24-6.92,9.25-.3.34-.17.59,0,.93,3.56,7.47,7.13,14.98,10.73,22.44.17.38.42.76.68,1.32-1.32-11.63-2.63-23.04-3.99-34.58h0ZM524.27-140.93c-.72,1.61-1.83,2.84-3.18,3.82-1.06.76-2.29,1.27-3.48,1.83-1.87.89-3.22,2.25-3.95,4.25-.25.68-.42,1.36-.63,2.04-.42,1.57-1.1,3.01-2.25,4.2-1.4,1.44-2.93,2.71-5.05,2.88-.42,0-.68.25-.89.63-.38.68-.8,1.32-1.36,1.87-.59.59-.63,1.27-.55,2.04.25,1.78,1.7,2.76,2.71,4.12.63-2.16,1.91-3.56,4.03-4.25,1.23-.38,2.38-.97,3.39-1.78,1.7-1.36,2.16-3.26,2.5-5.3.3-1.7.76-3.44,1.95-4.79.85-.93,1.78-1.83,2.71-2.67,2.59-2.38,4.75-4.92,3.99-8.91l.04.04h.01ZM476.37-161.84c1.7-.68,3.31-1.02,4.92-1.19,1.87-.17,3.73,0,5.47.59,1.66.59,3.01,1.66,4.29,2.8,2.76,2.46,5.85,3.26,9.51,2.38,3.01-.72,6.07-1.36,9.25-.97,2.76.34,5.26,1.15,7.51,2.76.51.38.72.97,1.36,1.53-.21-.38-.3-.59-.38-.8-1.74-3.26-4.63-5.09-7.97-6.32-2.08-.76-4.29-.85-6.45-1.36-1.06-.25-2.25-.42-3.05-1.23-.42-.42-.76-.46-1.32-.3-3.35.97-6.75.97-10.1,0-2.63-.76-5.26-1.1-7.97-.42-1.78.46-3.52.93-5.05,2.46v.08h0ZM523.17-146.83c-.85,2.33-2.16,4.29-3.52,6.2-1.66,2.38-3.86,4.08-6.66,4.84-2.38.63-4.75.34-7.13-.25-.85-.21-1.66-.42-2.59,0,.89.3,1.57.8,2.16,1.36,1.7,1.57,1.87,3.69,1.87,5.77s-.46,4.08-1.44,5.94c-.04.13-.21.21,0,.42.8-.04,1.57-.34,2.25-.8,2.42-1.57,3.86-3.78,4.5-6.58.68-2.88,2.38-4.96,5.05-6.24,1.23-.55,2.42-1.19,3.44-2.08,3.05-2.67,3.61-5.01,2.08-8.66v.08h0ZM502.13-150.35c-.63-.17-1.19-.17-1.74-.25-1.4-.13-2.8-.21-4.16-.68-1.91-.68-3.52-1.78-5.09-2.97-1.7-1.27-3.52-1.87-5.64-1.27-1.44.38-2.5,1.27-3.56,2.25-.72.68-1.53.89-2.55.68-.72-.17-1.32-.55-2.12-.8.85,1.78,1.61,3.44,2.38,5.13.25-.17.42-.25.59-.34.17-.08.34-.21.51-.34,2-1.15,4.12-1.36,6.28-.63,1.06.38,2.08.8,3.09,1.19,1.32.46,2.71.89,4.12.76,2.8-.25,5.26-1.36,7.85-2.71h.04ZM496.82-130.07c.51-1.44,1.32-2.59,2-3.82.51-.85,1.23-1.49,2.16-1.87.21-.08.42-.13.55-.34.42-.85,1.06-1.57,1.61-2.29,1.15-1.49,2.59-2.5,4.58-2.46,1.53,0,2.97.42,4.41.8,2.25.55,4.41.3,6.28-1.06,2.38-1.7,3.86-4.08,4.46-6.96.21-1.06-.34-1.95-1.4-2.21-.42-.13-.8-.17-1.23-.3s-.63,0-.8.38c-.85,2.04-2.33,3.61-3.95,5.05-.93.85-2,1.53-3.26,1.87-1.87.51-3.73.38-5.56-.08-.3-.08-.59-.21-.8.21-.3.63-.63,1.27-1.02,1.87-1.32,2-2.97,3.44-5.51,3.56-.38,0-.76-.17-1.19,0,.63,1.36.55,2.67-.08,4.03-.34.72-.68,1.49-.97,2.25-.17.38-.38.8-.25,1.36h-.01ZM525.71-149.58c1.83.21,2.93.59,4.16,1.53.59.42,1.02.93,1.1,1.7.13,1.23-.13,2.46-.25,3.69-.17,1.49-.13,2.97.76,4.2,2.16,3.05,5.26,4.29,8.87,4.2,1.49,0,2.93-.63,4.33-1.23,2.25-.97,3.14-2.8,3.44-5.18-.8.46-1.49.97-2.29,1.19-.51.17-.68.38-.68.93,0,1.7-1.02,2.59-2.67,2.42-.51-.04-.93-.25-1.4-.46-.51-.21-1.02-.34-1.57-.17-1.7.46-3.18.13-4.29-1.36-.8-1.06-1.15-2.29-1.23-3.61-.13-1.4.34-2.67.8-3.99.59-1.7.13-3.05-1.15-4.2-.93-.85-2.08-1.36-3.31-1.57-1.7-.3-3.73.55-4.54,1.87l-.08.04h0ZM547.91-150.9c-.21.17-.34.34-.46.46-.97.85-2.04,1.53-3.39,1.49-1.87,0-3.31-.97-4.5-2.29-1.4-1.57-2.33-3.48-4.03-4.88-3.52-2.93-7.64-1.57-10.01,1.74,1.02-.59,2-.93,3.01-1.23,2.38-.68,4.29,0,5.77,1.91.85,1.06,1.49,2.29,2.16,3.48,1.27,2.21,2.8,4.2,5.13,5.43,2.08,1.1,4.54.76,6.07-1.02.38-.42.72-.93.68-1.53,0-1.19-.21-2.33-.51-3.56h.08ZM492.71-140.63c.17.25.34.46.46.72.72,1.15,1.19,2.38,1.02,3.78-.25,1.7-.93,3.22-1.95,4.58-.8,1.1-.72,2.25.21,3.26.51.55,1.06,1.06,1.53,1.66,1.44,1.78,1.23,4.37-.42,5.9-.55.51-1.19.97-1.7,1.53-1.1,1.15-1.06,2.67.08,3.69,1.78,1.66,1.7,3.91-.25,5.05v.13c1.23.17,1.91-.68,2.55-1.44,1.1-1.36,1.02-2.8-.25-3.99-1.02-.97-1.1-1.91-.3-3.09.55-.85,1.4-1.32,2.16-1.91,1.4-1.15,2.16-3.01.89-4.79-.25-.34-.51-.68-.76-1.02-1.32-1.74-1.4-3.39-.25-5.22.34-.55.76-1.02,1.15-1.57.93-1.36,1.36-2.76.55-4.33-.08-.17-.13-.38-.38-.42-1.7-.46-2.97-1.57-4.33-2.59v.08h0ZM481.12-164.99c.17,0,.21.04.3.04h.3c2.5-.59,4.96-.34,7.42.3,3.26.85,6.49,1.15,9.8.17,2.59-.72,5.22-1.23,7.89-1.1.04,0,.17.04.13-.13-2.29-.59-4.63-1.19-6.92-1.83-1.1-.3-2.21-.63-3.31-.72-3.95-.21-7.8.21-11.59,1.53-1.36.46-2.71.89-3.99,1.7l-.04.04h0ZM543.28-143.69c-.25-.04-.42-.08-.63-.13-2.33-.76-4.12-2.21-5.47-4.29-1.06-1.66-2.04-3.39-3.14-5.05-.8-1.23-1.91-2.33-3.48-2.21-2.21.13-4.29.8-5.73,2.67-.93,1.23-1.53,2.88-1.23,3.99.38-.3.76-.55,1.23-.68.55-.17.59-.76.97-1.06.72-.63,1.4-1.27,2.38-1.49,2.16-.46,4.03.21,5.64,1.57,1.95,1.66,2.84,3.99,3.73,6.32.17.51.38.97.76,1.32,1.36,1.27,4.03.76,5.05-1.02l-.08.04h-.01ZM452.65-72.06c3.18-4.16,6.54-8.14,9.42-12.64-1.06-.25-1.57,0-2.08.85-1.66,2.8-3.78,5.34-5.6,8.06-.08.13-.21.34-.38.34-.55-.08-.93-.42-1.23-.89s.21-.63.38-.93c.21-.42.55-.42.85-.21,1.7-2.12,3.26-4.29,4.75-6.58.25.34.13.46.04.59-1.4,2.12-2.93,4.16-4.5,6.2-.08.13-.21.3-.34.21-.63-.34-.63.25-.89.59.38.17.59.97,1.15.21,1.1-1.66,2.38-3.18,3.52-4.79.8-1.15,1.7-2.29,2.33-3.69h-2.76c-.34,0-.55.21-.72.46-2.46,3.44-4.96,6.83-7.51,10.31,1.19.63,2.38,1.27,3.56,1.91h.01ZM529.87-158.03c.46-.08.85-.17,1.19-.17,2.08,0,3.73.85,5.26,2.16,1.32,1.19,2.16,2.71,3.22,4.08.85,1.06,1.61,1.32,2.93.97,1.15-.3,2-1.02,2.71-1.87,2.04-2.38,2-1.61.3-4.2,0-.04-.08-.08-.17-.17-.13.13-.21.25-.34.42-1.15,1.49-2.88,1.83-4.5.93-.63-.38-1.23-.76-1.78-1.23-1.27-1.06-2.76-1.83-4.33-2.33-1.74-.55-3.22-.13-4.5,1.4h0ZM530.17-140.16c-.55.89-1.15,1.53-1.7,2.25-.38.46-.68.97-.85,1.53-.38,1.19-.17,1.87.85,2.5.46.3.72.68.68,1.23v.97c0,1.19.85,2.12,2,2.42,1.57.42,3.14.3,4.75.25.93,0,1.87-.25,2.88-.85h-.89c-1.19,0-1.44-.17-1.91-1.36-.25-.68-.72-1.1-1.44-1.23-1.87-.38-2.46-1.91-2.16-3.52.04-.25,0-.42-.17-.59-1.06-.93-1.74-2.08-2.04-3.61h0ZM502.47-136.48c1.57-.68,3.05-.3,4.58.08,1.74.46,3.48.51,5.22.34,2.25-.25,3.86-1.61,5.47-3.05.51-.46.93-.97,1.27-1.61-.08,0-.13-.04-.13,0-.08,0-.13.04-.21.08-1.83,1.23-3.91,1.49-6.02,1.23-1.06-.13-2.04-.55-3.05-.8-1.87-.42-3.65-.34-5.18,1.02-.85.76-1.36,1.74-1.95,2.76v-.04h0ZM506.62-143.94c1.91.63,3.78.76,5.64.08,3.35-1.23,5.3-3.95,7.09-6.83-2.67-.25-5.05.34-7.3,1.7-2.16,1.32-3.65,3.22-5.43,5.05ZM522.41-151.32c-.08-.25-.17-.51-.3-.72-2.16-3.73-4.58-7.26-8.1-9.89-1.53-1.1-3.01-2.38-4.84-2.8-1.91-.46-3.91-.25-5.85,0-.85.08-1.7.21-2.5.51.21.34.51.51.8.63,1.53.63,3.09.97,4.71,1.15,2.71.3,5.26.97,7.55,2.42,2.46,1.57,4.58,3.39,5.47,6.32.08.25.3.3.51.38.97.51,1.83,1.19,2.63,1.95l-.08.04h0ZM527.24-137.49h.21c.42-.68.97-1.23,1.49-1.87.46-.51,1.06-1.02,1.06-1.78,0-1.23.3-2.46.38-3.69.08-.85.3-1.83-.46-2.46-1.32-1.1-2.8-1.83-4.54-1.44-1.74.34-1.83.59-1.36,2.29.17.63.42,1.1.97,1.57,1.36,1.1,2.21,2.59,2.25,4.41v2.97h0ZM487.49-140.16c1.02.46,1.7,1.19,2.42,1.91,1.23,1.23,1.44,3.14.46,4.58-.38.59-.89,1.15-1.36,1.66-1.44,1.66-1.1,4.29.76,5.43-.08-1.95.68-3.52,1.78-5.01.38-.51.76-1.06,1.1-1.61,1.32-2.29,1.7-4.63-.08-6.83-.82-1.02-1.83-1.37-3.01-1.06-.72.17-1.36.51-2.08.93h0ZM544.59-139.06c-.25-.04-.46,0-.68.04-2.67.25-5.13-.42-6.37-3.26-.34-.85-.63-1.7-.93-2.55-.3-.8-.63-1.61-1.19-2.46.04,1.27-.42,2.25-.68,3.26-.51,2.21-.42,4.33,1.32,6.11.59.63,1.36,1.1,2.25.89,1.23-.25,2.42-.25,3.61.21,1.74.63,2.97-.46,2.71-2.21l-.04-.04h0ZM542.05-155.78c.93,0,1.66-.3,2.29-.93.8-.8.85-.97,0-1.78-1.49-1.44-3.26-2.46-5.22-3.18-.59-.21-1.15-.42-1.78-.25-.93.21-1.83.55-2.42,1.36-.34.42-.42.76.25.97.72.21,1.44.55,2.08.97,1.06.72,2.08,1.49,3.18,2.21.51.34,1.02.68,1.61.63h0ZM537.13-162.44c-1.61-.55-3.09-.8-4.67-.72-2.21.17-3.91,1.19-5.13,2.97-.25.34-.38.72-.42,1.19,0,.8-.3,1.44-.97,1.95-.93.68-1.27,1.78-.93,2.8.46-.85.97-1.57,1.7-2.12.72-.55,1.57-.93,2.38-1.32.13-.08.21-.17.3-.3.97-1.4,2.25-2.38,4.03-2.12.76.13,1.02-.13,1.32-.72.46-.93,1.4-1.23,2.46-1.61h-.05ZM546.08-135.71c-4.54,2.97-8.87,2.63-13.15-.08-.13,1.61.38,2.5,1.87,3.01.72.25,1.23.72,1.57,1.4.63,1.32,2.25,1.78,3.56,1.1,2.42-1.23,4.41-3.01,6.15-5.39v-.04h0ZM538.4-142.07c.51,1.1,1.4,1.91,2.46,2.21,2.63.8,5.01.25,7.17-1.4.13-.08.21-.17.25-.34.25-1.44.38-2.93.25-4.46-1.27,1.49-2.21,2.04-4.03,2.38-.51.08-.8.25-1.1.68-.46.63-1.1,1.06-1.87,1.23-1.06.25-2.08.25-3.09-.3h-.04ZM524.61-133.46c-.42.8-.76,1.61-1.27,2.38-.21.34-.38.72-.3,1.15.17,1.02.34,2.04.51,3.05.68,3.56-.34,6.62-2.67,9.25-.89,1.02-2.08,1.66-3.48,2.04.34.17.55,0,.76-.04,3.61-.93,6.15-3.05,7.3-6.71.17-.51.34-1.06.25-1.61-.21-1.27-.42-2.5-.93-3.73-.51-1.19-.63-2.42-.42-3.69.08-.72.3-1.4.3-2.08h-.05ZM490.67-116.45c-.34-1.87.51-3.05,1.83-4.03.25-.17.51-.42.72-.63.63-.55.97-1.23,1.1-2.04.25-1.44-.17-2.67-1.32-3.65-.93-.85-1.91-1.66-1.87-3.18-.38.34-.51.72-.63,1.1-.42,1.27-.63,2.42.51,3.65,1.27,1.36,1.44,2.84.13,4.29-.59.63-1.1,1.36-1.36,2.21-.25.93-.08,1.49.85,2.25l.04.04h-.01ZM456.3-84.54c-.72-.21-1.1.08-1.44.59-.68,1.06-1.4,2.12-2.12,3.14-1.57,2.33-3.18,4.71-4.75,7.04,1.4.97,2.67,2.08,4.29,2.67.38.13.59.04.85-.17,1.02-1.02,1.91-2.12,2.84-3.26,1.95-2.33,3.78-4.79,5.51-7.26.63-.89,1.23-1.83,1.7-2.88-.38,0-.63-.17-.89.21-1.74,2.76-3.91,5.26-5.77,7.89-1.1,1.57-2.25,3.05-3.48,4.54-.21.3-.42.42-.8.25-1.19-.68-2.38-1.36-3.69-2.08,2.59-3.56,5.13-7.09,7.72-10.65l.04-.04h0ZM465.25-141.14c.17-.17.21-.21.3-.25,2.67-3.31,5.68-6.24,8.91-8.91.13-.08.34-.17.3-.38-.13-.51-.42-.89-.89-1.15-.42-.25-.63.08-.89.3-2.21,2-4.16,4.25-6.2,6.45-1.06,1.15-1.49,2.38-1.53,3.99v-.04h0ZM525.63-132.99c0-.63.17-1.19.46-1.7.51-.97.89-1.91.8-3.05-.08-1.19.13-2.42-.17-3.61-.34-1.32-.97-2.5-2.25-3.44.08.68.17,1.19.21,1.74.34,2.25.38,4.5.17,6.75-.13,1.27.21,2.29.72,3.35l.04-.04h0ZM428.21-46.95c1.15-1.32,2.25-2.55,3.35-3.82.13.21,0,.34-.08.42-.97,1.19-1.91,2.33-2.88,3.52-.17.25-.59.46-.17.93,1.66-2.29,3.65-4.29,5.22-6.58-.21-.38-.59-.55-.89-.8-.3-.25-.63-.46-.93-.68-1.53,1.19-4.03,4.25-3.95,4.84,1.19-1.49,2.46-2.8,3.73-4.16.46.34.89.59.89,1.19-.51-.04-.59-.63-1.1-.72-.76,1.1-1.78,2.08-2.71,3.09-.8.85-.89,1.66-.51,2.76h.04,0ZM517.23-128.2c3.56-.8,3.73-.85,5.13-2.55,1.27-1.61,2.21-3.31,1.74-5.39-.55,1.1-1.19,2.12-2,3.05s-1.78,1.74-2.71,2.5c-.76.63-1.49,1.4-2.16,2.33v.04h0ZM476.88-145.55c-.3-.68-.55-1.19-.76-1.7-.13-.38-.34-.46-.72-.46-1.06.04-2.12.08-3.18.08-.21,0-.38.04-.51.21-.89.93-1.78,1.87-2.8,2.97,2.67-.8,5.26-1.06,7.97-1.1h0ZM523.08-150.73c.21-.51.34-1.06.63-1.49.72-.89.8-1.87.8-2.97,0-.97.38-1.83,1.19-2.33.46-.3.68-.68.68-1.15-.04-.89.13-1.7.76-2.55-3.39,2.38-5.34,6.75-4.08,10.48h0ZM547.06-154.12c-1.66,1.7-3.05,3.56-5.6,3.69,2.29,1.7,4.71.68,6.11-.85.17-.17.21-.3.17-.51-.21-.72-.38-1.49-.63-2.33h-.04ZM526.9-134.9c-1.57,2.59-.3,4.25,2.12,4.84-.46-.8-.38-1.66-.3-2.46.04-.46,0-.85-.42-.97-.63-.25-1.06-.68-1.4-1.36v-.04h0ZM475.74-148.1c-.3-.76-.55-1.4-.8-2.08-.89.63-1.66,1.27-2.38,2.08h3.18ZM496.35-131.34c-1.44,2.04-.8,3.61.97,5.64.13-.68-.13-1.27-.42-1.78-.72-1.19-1.02-2.38-.55-3.86Z"/>
      <path class="cls-5" d="M559.45-66.51c0-.38-.08-.68-.46-.85-3.61-1.78-7-3.99-10.86-5.34-1.15-.38-2.21-.89-3.35-1.36.13-.34.21-.55.34-.8.34-.8.3-.93-.51-1.19-.38-.13-.76-.25-1.15-.34-4.67-1.32-9.34-2.55-14.05-3.61-2.59-.59-5.18-1.27-7.85-1.74-.08.72-.51.85-1.1.63-.13-.04-.3-.04-.42-.04-3.14-.13-6.07-.89-8.96-2.16-3.05-1.32-4.63-3.56-4.63-6.88,0-3.95,0-7.89.55-11.84.25-1.74.68-3.39,1.91-4.71.55-.63,1.19-1.06,2.08-1.19,2.29-.38,3.31-1.4,3.78-3.69.08-.42.17-.89.25-1.32.25-1.23.89-1.87,2.12-1.95,2-.13,3.73-.93,5.3-2.16,2.25-1.78,3.56-4.12,3.52-7.04,0-1.36-.34-2.67-.76-3.99-.46-1.36-.21-2.76-.17-4.16.21.21.34.51.51.72.17.25.34.51.59.68,3.18,2.33,6.71,3.05,10.56,2.42,2.08-.38,3.91-1.4,5.6-2.67,2.42-1.83,4.5-3.99,5.64-6.88.89-2.21,1.19-4.54,1.32-6.92.13-3.39-.55-6.71-1.7-9.89-.68-1.83-1.87-3.39-3.39-4.63-2.12-1.74-4.58-2.71-7.13-3.56-1.78-.59-3.61-.93-5.56-.59-3.22.51-5.77,2.04-7.68,4.67-1.19,1.61-1.74,3.48-1.74,5.51-.08,0-.13-.04-.17-.08-.17-.21-.3-.46-.46-.68-1.78-2.71-3.61-5.39-6.15-7.42-2.67-2.12-5.47-3.91-8.83-4.79-2.04-.55-4.16-.93-6.15-1.66-1.27-.42-2.55-.8-3.91-.85-3.61-.21-7.17.17-10.65,1.23-4.12,1.27-7.89,3.18-11.08,6.15-1.02.97-2.16,1.83-3.52,2.33-.21.08-.46.21-.72.17-.68-.17-1.4-.08-2.08-.08-2.59.04-4.08,2-3.52,4.5.3,1.4,1.02,2.5,2.12,3.35-.38,1.06-.72,2.08-1.1,3.14-.8,2.21-1.23,4.54-1.53,6.88-.25,1.87.25,3.65.97,5.34.89,2.12.85,4.16-.3,6.2-1.74,3.18-3.39,6.37-5.13,9.59-.38.72-.46,1.36.08,2,1.15,1.23,2.38,2.29,4.12,2.46,1.02.08,1.27.42,1.27,1.57,0,.51-.34.8-.63,1.1-.72.72-.8,1.27-.25,2.12.34.55.72,1.06,1.06,1.61.42.68.85,1.32.59,2.21-.21.76.08,1.49.55,2.16.51.76.93,1.53,1.27,2.42.46,1.36.63,2.76.76,4.16.21,1.78,1.02,2.12,2.46,2.21,2.08.17,4.16-.13,6.2-.55,1.32-.3,2.59-.59,3.95-1.02v1.1c-.04,3.14.04,6.32-.13,9.46-.17,2.59-.85,3.52-3.22,4.54-3.31,1.44-6.88,1.49-10.43,1.95.51-.89.97-1.7,1.4-2.5.21-.42.42-.85.46-1.32,0-.51-.17-.68-.72-.76-.89-.17-1.7.25-2.55.17-1.15-.08-2.33-.25-3.48-.3-2.8-.04-5.56-.08-8.32.25-2.97.34-5.85.89-8.66,1.83-5.18,1.7-9.59,4.54-12.94,8.87-3.99,5.13-5.56,11.16-5.9,17.52-.13,2.29,0,4.58.25,6.83.42,3.95,1.02,7.85,2.25,11.63.04.17.21.3,0,.55-.68.85-.59,1.83-.34,2.84.08.3,0,.72.38.8.42.13.59-.3.8-.55,1.53-1.66,3.01-3.26,4.58-4.96.17.3.25.55.38.76,4.37,9.51,9.67,18.46,15.66,27.03,4.41,6.28,9.25,12.26,14.43,17.95,4.5,4.92,9.29,9.55,14.51,13.71,3.99,3.14,8.19,5.98,12.81,8.1.59.25,1.1.25,1.7,0,3.95-1.83,7.59-4.2,11.12-6.79,8.02-5.98,14.89-13.19,21.3-20.79,8.61-10.22,16.04-21.3,22.1-33.27,4.41-8.7,8.32-17.56,9.97-27.24.34-2.04.59-4.12.51-6.24l.21-.08.04-.02Z"/>
    </g>
  </g>
  <g class="cls-4">
    <path class="cls-6" d="M336.63,62.79l32.45,77.88h.54l31.5-77.88h7.03l-38.4,94.64h-8.11l-39.62-94.64h14.6Z"/>
    <path class="cls-6" d="M431.81,126.6c0,5.5.81,10,2.43,13.52,1.62,3.51,3.64,6.27,6.07,8.25,2.43,1.98,5.06,3.36,7.89,4.12,2.83.77,5.51,1.15,8.02,1.15,2.25,0,4.29-.25,6.13-.74,1.84-.49,3.62-1.19,5.33-2.1,1.71-.9,3.39-2.03,5.06-3.38,1.66-1.35,3.44-2.84,5.33-4.46l4.32,4.33c-3.61,3.79-7.84,6.69-12.71,8.72-4.87,2.03-10.19,3.04-15.95,3.04s-11.11-1.01-15.48-3.04c-4.37-2.03-7.98-4.73-10.82-8.11-2.84-3.38-4.96-7.21-6.36-11.49-1.4-4.28-2.1-8.67-2.1-13.18,0-5.41.81-10.25,2.43-14.53,1.62-4.28,3.87-7.93,6.76-10.95,2.88-3.02,6.26-5.32,10.14-6.9,3.87-1.58,8.11-2.37,12.71-2.37,4.33,0,8.43.72,12.3,2.16,3.87,1.44,7.28,3.61,10.21,6.49,2.93,2.89,5.25,6.54,6.96,10.95,1.71,4.42,2.57,9.65,2.57,15.68v2.84h-51.24ZM471.15,121.2c0-8.74-1.77-15.62-5.3-20.62-3.54-5-8.48-7.5-14.84-7.5-3.31,0-6.18.79-8.6,2.37-2.42,1.58-4.41,3.67-5.97,6.29-1.57,2.62-2.73,5.61-3.49,8.99-.76,3.38-1.14,6.87-1.14,10.48h39.34Z"/>
    <path class="cls-6" d="M536.08,105.24c0-1.17-.32-2.43-.94-3.79-.63-1.35-1.62-2.59-2.96-3.72-1.35-1.13-3.01-2.07-4.98-2.84-1.98-.76-4.31-1.15-7.01-1.15s-4.94.38-6.74,1.15c-1.79.77-3.23,1.71-4.31,2.84-1.08,1.13-1.84,2.34-2.29,3.65-.45,1.31-.67,2.55-.67,3.72,0,2.79,1.01,4.96,3.03,6.49,2.02,1.53,4.56,2.84,7.61,3.92,3.05,1.08,6.36,2.12,9.91,3.11,3.55.99,6.85,2.28,9.9,3.85,3.05,1.58,5.59,3.67,7.61,6.29,2.02,2.62,3.03,6.08,3.03,10.41,0,5.95-2.1,10.75-6.29,14.4s-10.43,5.48-18.73,5.48c-4.6,0-8.63-.56-12.1-1.69-3.47-1.13-6.4-2.64-8.79-4.53-2.39-1.89-4.17-4.03-5.34-6.42-1.17-2.39-1.76-4.84-1.76-7.37h8.79c0,1.08.34,2.43,1.01,4.06.68,1.62,1.8,3.22,3.38,4.8,1.58,1.58,3.6,2.93,6.08,4.06,2.48,1.13,5.52,1.69,9.13,1.69,2.88,0,5.27-.38,7.17-1.15,1.89-.76,3.38-1.71,4.46-2.84,1.08-1.13,1.83-2.37,2.23-3.72.41-1.35.61-2.66.61-3.92,0-2.97-.99-5.32-2.97-7.03-1.98-1.71-4.45-3.13-7.41-4.26-2.96-1.13-6.17-2.16-9.63-3.11-3.46-.95-6.67-2.18-9.64-3.72-2.96-1.53-5.43-3.56-7.41-6.08-1.98-2.52-2.96-5.95-2.96-10.28,0-3.15.58-5.93,1.75-8.31,1.17-2.39,2.76-4.39,4.79-6.02,2.02-1.62,4.4-2.84,7.14-3.65,2.74-.81,5.68-1.22,8.83-1.22,3.33,0,6.45.43,9.37,1.29,2.92.86,5.48,2.03,7.68,3.51s3.93,3.27,5.19,5.34c1.26,2.08,1.89,4.33,1.89,6.76h-7.68Z"/>
    <path class="cls-6" d="M558.76,95.24v-5.41h11.76v-20.82h11.49v20.82h16.36v5.41h-16.36v44.89c0,1.08.04,2.32.13,3.72.09,1.4.36,2.7.81,3.92.45,1.22,1.15,2.23,2.1,3.04s2.28,1.22,3.99,1.22c2.16,0,3.97-.81,5.41-2.43,1.44-1.62,2.61-3.38,3.52-5.27l6.35,6.49c-4.42,4.42-9.42,6.62-15.01,6.62-2.34,0-4.64-.41-6.9-1.22-2.25-.81-4.26-2.05-6.02-3.72-1.76-1.67-3.18-3.81-4.26-6.42-1.08-2.61-1.62-5.68-1.62-9.19v-41.64h-11.76Z"/>
    <path class="cls-6" d="M641.08,88.34c6.58,0,11.68.93,15.29,2.77,3.61,1.85,6.25,4.26,7.92,7.23s2.64,6.4,2.91,10.28c.27,3.88.41,7.84.41,11.9v36.91h-10.95v-6.62c-2.62,2.52-5.95,4.53-10,6.02s-8.11,2.23-12.17,2.23-7.3-.68-10.28-2.03c-2.97-1.35-5.45-3.11-7.44-5.27-1.98-2.16-3.47-4.6-4.46-7.3-.99-2.7-1.49-5.45-1.49-8.25s.54-5.77,1.62-8.65c1.08-2.88,2.7-5.48,4.87-7.77,2.16-2.3,4.82-4.17,7.98-5.61,3.15-1.44,6.76-2.16,10.82-2.16s7.91.79,11.56,2.37c3.65,1.58,6.65,3.81,8.99,6.69v-5.81c0-7.39-1.11-12.89-3.33-16.5-2.22-3.6-6.27-5.41-12.15-5.41-2.53,0-4.75.32-6.65.95-1.9.63-3.6,1.51-5.09,2.64-1.49,1.13-2.87,2.52-4.14,4.19-1.27,1.67-2.53,3.54-3.8,5.61l-6.94-7.03c1.26-1.35,2.59-2.7,3.99-4.06,1.4-1.35,3.11-2.57,5.14-3.65,2.03-1.08,4.44-1.96,7.24-2.64,2.8-.68,6.18-1.01,10.15-1.01ZM656.65,130.66c-.45-1.08-1.11-2.34-1.97-3.79-.86-1.44-1.97-2.84-3.33-4.19-1.36-1.35-2.99-2.5-4.89-3.45-1.9-.95-4.16-1.42-6.79-1.42s-5.02.52-7.19,1.56c-2.17,1.04-4.01,2.39-5.5,4.06-1.49,1.67-2.65,3.63-3.46,5.88-.82,2.25-1.22,4.6-1.22,7.03,0,2.89.52,5.39,1.56,7.5,1.04,2.12,2.37,3.92,4,5.41s3.44,2.59,5.43,3.31c1.99.72,3.89,1.08,5.7,1.08s3.46-.31,5.23-.95c1.76-.63,3.44-1.51,5.02-2.64,1.58-1.13,3.01-2.46,4.28-3.99,1.27-1.53,2.31-3.2,3.12-5v-10.41Z"/>
    <path class="cls-6" d="M417.88,259.9c-1.17,1.35-2.89,2.93-5.14,4.73-2.25,1.8-5.07,3.49-8.45,5.07-3.38,1.58-7.35,2.91-11.9,3.99-4.55,1.08-9.71,1.62-15.48,1.62-9.11,0-16.95-1.42-23.53-4.26-6.58-2.84-11.99-6.58-16.22-11.22-4.24-4.64-7.37-9.96-9.4-15.95-2.03-5.99-3.04-12.15-3.04-18.46,0-7.3,1.26-13.9,3.79-19.81,2.52-5.9,6.08-10.95,10.68-15.14,4.6-4.19,10.12-7.41,16.56-9.67,6.44-2.25,13.59-3.38,21.43-3.38,5.41,0,10.23.54,14.47,1.62,4.24,1.08,7.93,2.57,11.09,4.46,3.15,1.89,5.79,4.15,7.91,6.76,2.12,2.62,3.85,5.45,5.21,8.52h-10c-.63-1.89-1.74-3.76-3.31-5.61-1.58-1.85-3.61-3.49-6.08-4.94-2.48-1.44-5.32-2.61-8.52-3.52-3.2-.9-6.74-1.35-10.61-1.35-5.68,0-10.93,1.04-15.75,3.11-4.82,2.08-8.99,4.96-12.51,8.65-3.51,3.7-6.24,8.09-8.18,13.18-1.94,5.09-2.91,10.7-2.91,16.83,0,5.77.92,11.31,2.77,16.63,1.85,5.32,4.57,10,8.18,14.06,3.6,4.06,8.11,7.3,13.52,9.73s11.63,3.65,18.66,3.65c12.62,0,23.53-4.33,32.72-12.98l4.06,3.65Z"/>
    <path class="cls-6" d="M445.6,273.69h-11.49v-94.64h11.49v94.64Z"/>
    <path class="cls-6" d="M478.72,242.87c0,5.5.81,10,2.43,13.52,1.62,3.51,3.64,6.27,6.07,8.25,2.43,1.98,5.06,3.36,7.89,4.12,2.83.77,5.51,1.15,8.02,1.15,2.25,0,4.29-.25,6.13-.74,1.84-.49,3.62-1.19,5.33-2.1,1.71-.9,3.39-2.03,5.06-3.38,1.66-1.35,3.44-2.84,5.33-4.46l4.32,4.33c-3.61,3.79-7.84,6.69-12.71,8.72-4.87,2.03-10.19,3.04-15.95,3.04s-11.11-1.01-15.48-3.04c-4.37-2.03-7.98-4.73-10.82-8.11-2.84-3.38-4.96-7.21-6.36-11.49-1.4-4.28-2.1-8.67-2.1-13.18,0-5.41.81-10.25,2.43-14.53,1.62-4.28,3.87-7.93,6.76-10.95,2.88-3.02,6.26-5.32,10.14-6.9,3.87-1.58,8.11-2.37,12.71-2.37,4.33,0,8.43.72,12.3,2.16,3.87,1.44,7.28,3.61,10.21,6.49,2.93,2.89,5.25,6.54,6.96,10.95,1.71,4.42,2.57,9.65,2.57,15.68v2.84h-51.24ZM518.07,237.46c0-8.74-1.77-15.62-5.3-20.62-3.54-5-8.48-7.5-14.84-7.5-3.31,0-6.18.79-8.6,2.37-2.42,1.58-4.41,3.67-5.97,6.29-1.57,2.62-2.73,5.61-3.49,8.99-.76,3.38-1.14,6.87-1.14,10.48h39.34Z"/>
    <path class="cls-6" d="M572.4,204.6c6.58,0,11.68.93,15.29,2.77,3.61,1.85,6.25,4.26,7.92,7.23s2.64,6.4,2.91,10.28c.27,3.88.41,7.84.41,11.9v36.91h-10.95v-6.62c-2.62,2.52-5.95,4.53-10,6.02s-8.11,2.23-12.17,2.23-7.3-.68-10.28-2.03c-2.97-1.35-5.45-3.11-7.44-5.27-1.98-2.16-3.47-4.6-4.46-7.3-.99-2.7-1.49-5.45-1.49-8.25s.54-5.77,1.62-8.65c1.08-2.88,2.7-5.48,4.87-7.77,2.16-2.3,4.82-4.17,7.98-5.61,3.15-1.44,6.76-2.16,10.82-2.16s7.91.79,11.56,2.37c3.65,1.58,6.65,3.81,8.99,6.69v-5.81c0-7.39-1.11-12.89-3.33-16.5-2.22-3.6-6.27-5.41-12.15-5.41-2.53,0-4.75.32-6.65.95-1.9.63-3.6,1.51-5.09,2.64-1.49,1.13-2.87,2.52-4.14,4.19-1.27,1.67-2.53,3.54-3.8,5.61l-6.94-7.03c1.26-1.35,2.59-2.7,3.99-4.06,1.4-1.35,3.11-2.57,5.14-3.65,2.03-1.08,4.44-1.96,7.24-2.64,2.8-.68,6.18-1.01,10.15-1.01ZM587.97,246.92c-.45-1.08-1.11-2.34-1.97-3.79-.86-1.44-1.97-2.84-3.33-4.19-1.36-1.35-2.99-2.5-4.89-3.45-1.9-.95-4.16-1.42-6.79-1.42s-5.02.52-7.19,1.56c-2.17,1.04-4.01,2.39-5.5,4.06-1.49,1.67-2.65,3.63-3.46,5.88-.82,2.25-1.22,4.6-1.22,7.03,0,2.89.52,5.39,1.56,7.5,1.04,2.12,2.37,3.92,4,5.41s3.44,2.59,5.43,3.31c1.99.72,3.89,1.08,5.7,1.08s3.46-.31,5.23-.95c1.76-.63,3.44-1.51,5.02-2.64,1.58-1.13,3.01-2.46,4.28-3.99,1.27-1.53,2.31-3.2,3.12-5v-10.41Z"/>
    <path class="cls-6" d="M665.57,273.69v-44.48c0-.9-.09-2.34-.27-4.33-.18-1.98-.74-3.97-1.69-5.95-.95-1.98-2.46-3.72-4.53-5.21-2.07-1.49-5-2.23-8.79-2.23-2.34,0-4.62.41-6.83,1.22-2.21.81-4.17,2.08-5.88,3.79-1.71,1.71-3.07,3.83-4.06,6.35-.99,2.52-1.49,5.54-1.49,9.06v41.78h-11.49v-67.6h11.49v8.65h.54l2.16-2.16c3.15-3.15,6.35-5.29,9.6-6.42,3.25-1.13,6.17-1.64,8.79-1.56,5.95,0,10.55,1.01,13.79,3.04,3.25,2.03,5.61,4.42,7.1,7.17,1.49,2.75,2.37,5.54,2.64,8.38.27,2.84.41,5.07.41,6.69v43.81h-11.49Z"/>
    <path class="cls-6" d="M703.97,179.59c1.44-1.44,3.15-2.16,5.14-2.16s3.7.72,5.14,2.16c1.44,1.44,2.16,3.16,2.16,5.14s-.72,3.7-2.16,5.14-3.16,2.16-5.14,2.16-3.7-.72-5.14-2.16c-1.44-1.44-2.16-3.15-2.16-5.14s.72-3.69,2.16-5.14ZM715.06,206.09v67.6h-11.49v-67.6h11.49Z"/>
    <path class="cls-6" d="M785.77,273.69v-44.48c0-.9-.09-2.34-.27-4.33-.18-1.98-.74-3.97-1.69-5.95-.95-1.98-2.46-3.72-4.53-5.21-2.07-1.49-5-2.23-8.79-2.23-2.34,0-4.62.41-6.83,1.22-2.21.81-4.17,2.08-5.88,3.79-1.71,1.71-3.07,3.83-4.06,6.35-.99,2.52-1.49,5.54-1.49,9.06v41.78h-11.49v-67.6h11.49v8.65h.54l2.16-2.16c3.15-3.15,6.35-5.29,9.6-6.42,3.25-1.13,6.17-1.64,8.79-1.56,5.95,0,10.55,1.01,13.79,3.04,3.25,2.03,5.61,4.42,7.1,7.17,1.49,2.75,2.37,5.54,2.64,8.38.27,2.84.41,5.07.41,6.69v43.81h-11.49Z"/>
    <path class="cls-6" d="M867.57,262.88h-.54c-1.53,4.33-4.17,7.48-7.91,9.46-3.74,1.98-8.14,2.97-13.18,2.97-4.6,0-8.77-.83-12.51-2.5-3.74-1.67-6.96-4.06-9.67-7.17-2.7-3.11-4.8-6.85-6.29-11.22-1.49-4.37-2.23-9.26-2.23-14.67s.74-10.14,2.23-14.47c1.49-4.33,3.58-8.02,6.29-11.09,2.7-3.06,5.95-5.43,9.73-7.1,3.79-1.67,7.98-2.5,12.57-2.5,5.77,0,10.43,1.06,13.99,3.18,3.56,2.12,5.88,5.07,6.96,8.86h.54v-10.55h11.49v66.39c0,4.51-.43,8.86-1.29,13.05s-2.46,7.91-4.8,11.15c-2.35,3.25-5.64,5.83-9.88,7.77-4.24,1.94-9.79,2.91-16.65,2.91-3.7,0-6.99-.47-9.88-1.42-2.89-.95-5.37-2.07-7.45-3.38-2.07-1.31-3.79-2.62-5.14-3.92-1.35-1.31-2.35-2.37-2.98-3.18l7.36-6.76c2.44,4.06,5.13,7.3,8.07,9.73,2.94,2.43,6.8,3.65,11.6,3.65,2.71,0,5.27-.41,7.67-1.22,2.4-.81,4.48-2.12,6.24-3.92,1.76-1.8,3.14-4.15,4.14-7.03,1-2.89,1.49-6.4,1.49-10.55v-16.5ZM867.57,234.89c0-3.06-.41-6.04-1.22-8.92-.82-2.88-2.01-5.43-3.6-7.64-1.58-2.21-3.55-3.96-5.9-5.27-2.35-1.31-5.02-1.96-8-1.96-1.36,0-3.23.29-5.63.88-2.4.59-4.75,1.87-7.06,3.85-2.31,1.98-4.32,4.85-6.04,8.58-1.72,3.74-2.58,8.77-2.58,15.08,0,5.95.7,10.82,2.1,14.6,1.4,3.79,3.17,6.72,5.29,8.79,2.12,2.07,4.43,3.49,6.92,4.26,2.49.77,4.82,1.15,6.99,1.15,2.44,0,4.79-.52,7.05-1.55,2.26-1.04,4.25-2.55,5.97-4.53,1.72-1.98,3.1-4.42,4.14-7.3,1.04-2.88,1.56-6.22,1.56-10.01v-10Z"/>
  </g>
  <g class="cls-3">
    <g>
      <path class="cls-6" d="M103.35,228.92c8.03-1.05,15.97-1.15,23.51-4.39,5.36-2.29,6.88-4.39,7.26-10.23.48-7.08.19-14.25.29-21.32v-2.49c-3.06.95-6.02,1.63-8.89,2.29-4.59.95-9.28,1.63-13.96,1.24-3.26-.29-5.07-1.05-5.54-4.98-.38-3.15-.67-6.31-1.72-9.37-.67-2.01-1.72-3.82-2.87-5.45-1.05-1.53-1.72-3.15-1.24-4.87.57-2.01-.38-3.44-1.34-4.98-.77-1.24-1.63-2.4-2.4-3.64-1.24-1.92-1.05-3.15.57-4.78.67-.67,1.43-1.34,1.43-2.49,0-2.58-.57-3.35-2.87-3.53-3.92-.38-6.79-2.78-9.28-5.54-1.24-1.43-1.05-2.87-.19-4.5,3.82-7.17,7.56-14.44,11.57-21.61,2.58-4.59,2.78-9.18.67-13.96-1.63-3.82-2.78-7.83-2.2-12.04.67-5.25,1.63-10.52,3.44-15.5.86-2.29,1.63-4.59,2.49-7.08-2.49-1.92-4.12-4.39-4.78-7.56-1.24-5.64,2.1-10.04,7.94-10.14,1.53,0,3.15-.19,4.68.19.57.09,1.05-.19,1.63-.38,3.06-1.15,5.54-3.06,7.94-5.25,7.17-6.7,15.68-11.09,24.96-13.87,7.83-2.4,15.87-3.15,24-2.78,2.96.19,5.93.95,8.8,1.92,4.5,1.53,9.28,2.49,13.87,3.73,7.56,2.01,13.87,6.02,19.89,10.8,5.84,4.59,9.84,10.61,13.87,16.73.29.48.67,1.05,1.05,1.53,0,0,.19,0,.38.19,0-4.59,1.24-8.71,3.92-12.43,4.3-5.84,10.04-9.28,17.31-10.52,4.3-.67,8.42,0,12.53,1.34,5.74,1.92,11.29,4.12,16.06,8.03,3.44,2.87,6.11,6.31,7.65,10.43,2.67,7.17,4.21,14.62,3.82,22.28-.19,5.25-.95,10.61-2.96,15.59-2.58,6.5-7.26,11.38-12.72,15.5-3.82,2.78-7.83,5.16-12.62,6.02-8.6,1.53-16.63-.09-23.81-5.45-.57-.38-.95-.95-1.34-1.53-.38-.48-.67-1.05-1.15-1.63-.19,3.15-.67,6.22.38,9.37.95,2.87,1.72,5.93,1.72,8.98,0,6.6-2.87,11.86-7.94,15.87-3.44,2.78-7.36,4.5-11.95,4.87-2.78.19-4.21,1.63-4.78,4.39-.19.95-.38,2.01-.57,2.96-1.05,5.16-3.35,7.46-8.51,8.32-2.01.29-3.35,1.34-4.68,2.67-2.78,3.06-3.73,6.7-4.3,10.61-1.34,8.8-1.34,17.69-1.24,26.68,0,7.36,3.53,12.43,10.43,15.5,6.5,2.78,13.19,4.59,20.18,4.87.29,0,.67,0,.95.09,1.34.48,2.29.19,2.49-1.43,6.02.95,11.86,2.58,17.69,3.92,10.61,2.4,21.13,5.16,31.65,8.12.86.29,1.72.48,2.58.77,1.81.57,1.92.86,1.15,2.67-.19.57-.48,1.15-.77,1.81,2.49,1.05,4.98,2.2,7.56,3.06,8.6,3.06,16.25,8.03,24.48,12.04.86.38.95,1.05,1.05,1.92.09,4.68-.38,9.37-1.15,14.05-3.73,21.79-12.53,41.88-22.47,61.39-13.67,26.86-30.41,51.82-49.81,74.96-14.44,17.22-29.93,33.37-47.99,46.84-7.83,5.84-16.06,11.18-25.05,15.3-1.34.57-2.49.67-3.82,0-10.43-4.78-19.89-11.18-28.87-18.26-11.86-9.37-22.56-19.8-32.7-30.88-11.67-12.81-22.56-26.2-32.51-40.44-13.48-19.32-25.43-39.49-35.28-60.91-.29-.57-.57-1.05-.86-1.72-3.53,3.82-6.88,7.56-10.32,11.18-.48.57-.86,1.43-1.81,1.24-.86-.19-.77-1.15-.86-1.81-.57-2.2-.77-4.39.77-6.4.38-.48,0-.86,0-1.24-2.78-8.51-4.12-17.31-5.07-26.2-.57-5.16-.86-10.32-.57-15.39.77-14.34,4.3-27.83,13.29-39.49,7.56-9.75,17.49-16.16,29.16-19.98,6.31-2.1,12.9-3.35,19.5-4.12,6.22-.77,12.53-.67,18.74-.57,2.58,0,5.25.38,7.83.67,1.92.19,3.73-.77,5.74-.38,1.24.19,1.63.67,1.63,1.72s-.48,2.1-1.05,2.96c-1.05,1.81-2.1,3.73-3.15,5.64l-.48.19-.08.05ZM148.97,156.83c.86.57,1.15,1.34,1.53,2.01,2.2,2.96,6.11,3.06,8.51.29.67-.77.95-1.63.77-2.78-.48-2.87-2.01-4.87-4.5-6.31-3.64-2.1-4.39-4.87-2.58-8.71.86-1.81,2.2-3.26,3.35-4.78,1.15-1.53,1.24-3.06.48-4.87-.86-2.1-2.58-3.44-4.3-4.78-4.78-3.53-5.54-9.46-1.92-14.15,1.05-1.34,2.1-2.58,2.96-4.01.77-1.15,1.15-2.49.95-3.92-.48-4.3-3.64-6.6-6.7-8.98-.67-.48-1.53-.57-2.4-.48-1.15,0-2.4.09-3.53-.09-6.97-1.34-12.33-4.98-16.25-10.8-.48-.67-.86-.86-1.63-.86-1.81,0-3.73.19-5.54.38-4.12.57-8.22.95-12.15,2.29-.77.29-1.53.57-2.1,1.24-1.72,2.1-3.35,4.3-5.16,6.4-.95,1.05-1.05,2.1-.77,3.44.67,2.78,1.34,5.54,2.01,8.32,1.24,4.68,1.05,9.18-1.24,13.67-3.53,6.97-7.65,13.67-11.29,20.55-1.24,2.49-1.15,3.15,1.05,4.98,2.29,1.92,4.98,2.87,7.83,3.44,1.53.29,2.49,1.34,2.87,2.87.57,2.4-.29,4.21-1.81,5.93-1.05,1.15-.57,2.49.86,2.87.86.19,1.81.29,2.58-.29,1.92-1.24,3.64-.86,5.36.48.95.67,2.01,1.24,2.96,1.92,2.1,1.63,4.39,2.78,7.36,2.2-2.96,5.16-5.45,10.71-12.62,11.38,2.01,3.92,2.96,8.03,3.44,12.24.38,3.26,1.34,4.3,4.59,4.39,2.58,0,5.16-.29,7.65-.67,4.68-.77,9.37-1.43,13.87-2.96,4.87-1.72,9.66-3.53,14.25-5.74,6.02-2.96,12.72-5.25,16.45-11.76,0,1.15-.57,1.81-1.05,2.58-1.53,2.49-4.21,3.73-6.22,5.84-2.1,2.2-4.59,3.92-6.7,6.11-4.39,4.68-8.71,9.57-13.01,14.34-.48.57-1.05,1.15-1.05,2.01,0,4.12-.29,8.12-.57,12.24-.38,5.64-2.96,9.57-8.32,11.86-7.56,3.15-15.59,3.44-23.62,4.21-2.2.19-4.59,2.96-4.3,5.25.57,4.3,1.05,8.51,1.53,12.81.48,4.5.95,8.98,1.43,13.48.57,5.54,1.34,11.09,1.92,16.63.57,5.64,1.15,11.29,1.72,17.02.67,5.74,1.24,11.57,2.01,17.31.29,2.2.29,4.5,1.34,6.7,10.71,22.09,21.32,44.17,31.93,66.16,2.67,5.45,4.78,11.18,9.28,15.59,3.73,3.64,7.17,7.74,10.8,11.76,3.82-4.21,7.56-8.22,11.18-12.33,1.34-1.53,2.96-2.96,3.92-4.78,1.63-2.78,2.78-5.84,4.21-8.71,9.37-19.41,18.64-38.82,28.01-58.22,1.63-3.35,3.44-6.6,4.78-10.14,1.53-3.92,1.15-8.12,1.72-12.24.67-4.5.95-9.08,1.43-13.67s1.05-9.18,1.53-13.76c.48-4.5.95-8.98,1.43-13.48.48-4.68,1.05-9.28,1.63-13.96.48-4.59,1.05-9.08,1.63-13.67.29-2.67.57-5.45.86-8.22-3.15,0-6.02-.38-8.98-.67-6.4-.67-12.33-2.78-17.78-6.02-4.87-2.96-7.46-7.36-8.03-13.01-.57-5.25-.38-10.52-.19-15.77.19-6.02.38-12.15,2.1-18.08.19-.77,0-1.15-.57-1.72-1.72-1.43-3.06-3.15-3.73-5.45-.86-3.15-.77-6.31.38-9.37.77-2.01.29-3.64-1.15-5.07-3.15-2.87-5.36-6.02-4.59-10.8-2.01,1.53-4.01,2.58-6.02,3.53-1.05.57-1.63,1.34-1.63,2.49-.09,2.01-.57,3.82-1.05,5.74-.77,3.06-1.72,6.02-2.87,8.89-.19.48-.38,1.05-1.05.77-.48-.19-.29-.57-.19-.95,1.81-4.98,2.67-10.23,3.73-15.39.19-.95.67-1.53,1.53-2.01,1.72-.95,3.44-1.81,5.07-2.96,6.02-4.3,9.08-10.61,10.9-17.59,1.34-4.98,1.63-10.04-.57-14.73-2.78-5.93-9.57-9.08-14.82-2.01-2.29,3.15-3.82,6.79-5.36,10.32-.19.38-.19.67,0,.95,1.34,2.49,2.2,5.07,1.43,8.03,0,.19.19.48.19.77,1.05,3.92-.19,7.46-3.44,9.84-1.43,1.05-2.96,1.92-4.01,3.26-2.1,2.78-2.1,4.5.19,6.4,3.06,2.49,2.87,6.31,1.05,9.08-1.81,2.78-4.01,5.36-7.94,4.78-1.34-.19-2.67-.57-4.01-1.05-2.01-.67-3.82-3.06-3.82-5.16l.57-.09v-.04ZM124.68,446.91c11.09,9.46,22.47,18.08,35.37,24.48,1.24.57,2.2.57,3.35,0,13.96-6.97,26.29-16.45,37.96-26.68,10.23-9.08,19.8-18.94,28.78-29.16,1.63-1.81,3.44-3.53,4.39-5.84,3.73-8.98,7.17-18.17,10.52-27.34,8.8-24.28,17.11-48.76,25.05-73.33,6.02-18.64,12.04-37.38,16.45-56.5.67-3.06.77-3.06-2.2-4.21-2.58-.95-5.07-2.2-7.83-2.87-.95,2.01-1.92,3.92-2.87,5.84-15.01,29.93-31.65,58.9-50.39,86.62-18.94,28.01-39.49,54.78-62.91,79.17-5.84,6.11-12.04,11.95-18.46,17.4-5.36,4.59-11,8.8-17.11,12.72l-.09-.29h-.01ZM64.93,279.78c-.19.19-.29.19-.38.29-4.68,5.64-9.46,11.29-14.15,16.83-.57.67-.38,1.15-.09,1.81,1.53,4.78,3.06,9.66,4.59,14.44,10.32,31.16,20.55,62.34,32.7,92.84.77,1.92,1.34,4.01,2.78,5.74,2.1,2.49,4.21,4.98,6.4,7.36,8.03,9.08,16.63,17.59,25.62,25.72.95.86,1.53.77,2.58.09,9.75-6.4,18.46-14.05,26.86-21.99,2.96-2.87,5.84-5.84,8.8-8.71-37.67-40.82-68.74-86.05-95.51-134.43h-.2ZM63.3,272.23c12.53-17.02,26.48-33.17,36.81-51.91-.38-.09-.57-.29-.86-.29-1.05,0-2.1,0-3.15-.19-1.24-.19-1.81.29-2.49,1.34-6.02,9.66-12.81,18.74-20.36,27.25-3.82,4.39-3.15,3.53-7.17,1.53-2.87-1.53-5.64-3.35-8.22-5.54,5.36-8.22,11.38-15.97,16.63-24.37-4.12.29-7.83.86-11.67,1.72-.67.19-.86.57-1.05,1.05-1.63,3.44-3.26,6.88-5.36,10.04-.48.77-.86,1.53-2.2,2.2,2.2-4.5,4.59-8.32,6.4-12.62-1.05-.09-1.63.29-2.01,1.05s-.77,1.53-1.15,2.2c-5.74,9.18-11.76,18.26-18.55,26.68-.67.77-1.05,1.92-2.2,2.2,3.15-5.45,7.26-10.23,10.8-15.39,3.53-5.16,6.88-10.43,9.94-15.87-13.39,3.82-24.76,10.71-32.9,22.09-7.26,10.04-10.43,21.52-11.38,33.94,8.03-6.6,13.96-14.82,21.42-21.7-.38.86-.86,1.53-1.43,2.2-2.29,2.58-4.5,5.25-6.88,7.83-4.01,4.3-7.83,8.8-12.43,12.53-.86.77-.86,1.53-.48,2.67,14.62-14.15,27.72-29.44,39.49-45.89,0,.57-.29.95-.57,1.34-5.93,9.08-12.62,17.59-19.8,25.82-6.02,6.97-12.15,13.96-19.21,19.98-.38.29-.57.67-.57,1.15.09,3.53.29,7.17.38,10.71,0,.29.19.57.48,1.43.29-.57.38-.86.57-1.05,2.4-2.58,4.78-5.16,7.26-7.74.38-.38.86-.95,1.53-.57,1.72,1.05,3.53,2.1,4.87,3.64-3.53,5.74-8.03,10.43-12.24,15.5-.29.38-.86.57-.77,1.24.38,1.72.67,3.44,1.15,5.64,3.92-5.25,8.51-9.37,12.15-14.34,0,.86-.38,1.43-.86,1.92-3.35,4.12-6.6,8.12-9.94,12.24-.57.77-1.63,1.53-.48,2.78,5.16-6.4,10.52-12.43,14.91-19.32-.29-.29-.48-.86-1.05-.86-.95.67-1.15,2.1-2.49,2.49,1.05-1.34,1.24-3.35,3.15-3.73,1.63,1.24,1.53,2.49.48,4.12-4.21,6.31-9.37,11.86-13.96,17.78-.38.48-1.05.86-.95,1.53.38,1.72.77,3.35,1.24,5.16,15.3-14.15,26.77-31.16,40.05-46.66-.48.95-1.05,1.81-1.72,2.67-5.07,6.4-10.32,12.62-15.3,19.12-7.17,9.37-14.62,18.46-23.14,26.48-1.43,1.34-1.81,3.64-.95,5.64.38,0,.57-.29.77-.57,4.3-4.87,8.6-9.66,12.9-14.62,11.09-12.81,22.09-25.72,32.7-39.01,7.94-9.94,15.87-19.69,23.51-29.83,5.64-7.46,11.29-14.91,15.97-23.04.77-1.24,1.53-2.58,1.81-4.01-1.92-.77-2.96-.48-3.73.77-3.53,5.93-7.36,11.67-11.18,17.31-6.79,9.94-14.34,19.32-21.9,28.58-1.63,2.01-3.06,4.12-5.16,5.64h.48v-.04ZM237.21,407.04c.48-.57,1.05-1.15,1.53-1.81,13.19-16.25,25.14-33.47,35.75-51.54,13.01-22.18,23.81-45.41,30.21-70.46,1.72-6.79,2.87-13.58,3.82-20.55.29-1.72-.48-2.67-1.92-3.44-4.12-2.2-8.22-4.5-12.43-6.7-1.72-.95-3.53-1.72-5.45-2.58-6.5,26.97-15.2,53.06-23.71,79.17-8.6,26.2-17.97,52.02-27.92,77.83l.09.09h.01ZM255.95,234.66c-25.05,52.11-50.01,104.02-74.96,155.84.19.09.38.19.48.29,37.67-46.37,69.7-96.28,95.23-150.49l-.77-.38c-6.7-1.81-13.39-3.64-19.98-5.36v.09h0ZM80.02,260.95c-.48.19-.67.57-.95.95-3.92,4.98-7.83,9.94-11.86,14.82-.95,1.15-1.05,1.92-.29,3.35,20.46,36.43,43.31,71.14,69.42,103.74,1.92,2.4,3.92,4.68,5.84,7.08.09,0,.19-.19.38-.19-20.75-43.22-41.4-86.53-62.43-129.65l-.09-.09h-.01ZM86.24,407.04c-13.58-35.57-26.11-71.42-37.47-107.75-.29.09-.48.09-.48.19-5.36,6.22-10.71,12.33-16.06,18.55-.67.77-.77,1.43-.38,2.4,1.72,3.53,3.26,7.26,5.07,10.8,11.67,23.42,25.62,45.41,41.59,66.07,2.58,3.35,5.16,6.5,7.74,9.84v-.09ZM254.52,234.37c-9.57-2.4-18.94-4.98-28.49-6.88-3.26,28.78-6.6,57.46-9.84,86.05,12.9-26.29,25.25-52.88,38.33-79.26v.09ZM112.54,52.9c3.73,1.53,6.6,3.82,8.98,6.79.67.86,1.43,1.53,2.29,2.2,2.29,1.72,4.59,3.35,7.65,3.35,2.4,0,3.44-2.01,4.98-3.35,6.22-5.36,13.58-5.64,20.18-.38,5.74,4.5,11.76,8.03,19.21,8.51,3.73.19,7.56.86,11-1.43,1.24-.86,2.67-1.34,4.12-1.81,6.22-2.4,12.43-4.78,19.21-4.3,2.01.19,4.01.57,6.02.95-.48-1.05-1.15-1.72-2.01-2.2-6.11-4.21-12.9-5.84-20.18-6.02-5.07-.09-10.14.95-15.01,2.2-4.01,1.05-8.12,1.53-12.33,1.05-4.39-.48-7.83-3.15-11.29-5.64-3.26-2.4-6.22-5.16-10.14-6.4-7.56-2.4-14.91-1.34-22.18,1.15-3.73,1.34-6.97,3.73-10.8,5.45l.29-.09h0ZM131.18,77.09c.29.95.95,1.53,1.43,2.2,3.53,4.39,10.23,7.94,17.02,4.78,4.12-1.92,8.32-1.15,12.24.95,1.24.67,2.49,1.53,3.64,2.4,4.21,3.06,8.89,3.35,13.87,2.4,6.5-1.24,11-5.16,15.2-9.94,5.64-6.5,12.72-10.52,21.61-10.43,3.06,0,6.02.19,9.18.67-.38-.38-.67-.77-.95-1.05-.19-.19-.48-.48-.77-.67-6.31-4.3-13.19-5.64-20.55-4.21-5.16.95-10.04,2.87-14.73,5.36-5.45,2.87-10.71,5.93-16.63,7.74-4.5,1.43-9.08,2.1-13.67,1.15-3.26-.67-6.31-1.81-9.37-3.15-6.22-2.67-12.04-2.1-17.59,1.72l.09.09h-.03ZM192.18,173.75c.29-.48.38-.86.57-1.15,2.01-3.53,4.21-6.88,8.98-7.08,2.78-.09,4.98-1.53,5.93-4.39.48-1.53.86-2.96,1.05-4.59.48-4.78,1.72-6.31,6.31-7.74,1.63-.48,3.35-.95,4.68-2.01,4.87-3.64,7.36-8.71,8.51-14.53,1.05-5.07-1.15-9.66-1.53-14.73-2.29,2.96-5.45,3.92-8.8,4.39-1.43.19-2.58,1.05-3.26,2.4-1.24,2.29-1.81,4.78-2.2,7.26-.48,3.53-1.24,6.88-3.82,9.57-2.96,2.96-6.6,4.87-10.43,6.11-3.92,1.24-6.11,3.92-7.56,7.56-.86,2.2-1.63,4.39-2.29,6.6-.95,3.64-1.05,9.18,3.92,12.24l-.09.09h.03ZM117.13,66.76c-2.2-3.82-4.12-5.45-8.12-6.5-1.43-.38-3.06-.57-4.21.57-1.05,1.05-.95,3.15,0,4.87.48.86,1.15,1.63,1.92,2.4-.48.38-.86.29-1.24,0-1.53-.95-3.35-4.21-2.49-6.5.57-1.43,1.34-2.49,2.96-2.78,4.21-.67,7.56.95,10.32,3.92,2.1,2.29,3.64,4.98,4.59,7.94,1.15,3.35,2.49,6.7,4.01,9.84,2.67,5.54,6.97,9.46,12.72,11.86,2.78,1.15,5.64,2.01,8.6,1.05,1.72-.48,3.26-1.43,4.98-2.01,4.01-1.43,7.74-1.34,10.9,2.01.77.86,1.81,1.53,2.78,2.1,10.14,6.31,18.55,2.49,23.04-7.56-1.72.95-3.44,1.72-5.36,2.2-4.59,1.24-9.08,2.29-13.76.38-2.49-1.05-4.59-2.58-6.79-3.92-3.82-2.2-7.83-3.15-12.15-1.24-5.25,2.4-10.14,1.15-14.62-2.01-3.35-2.29-5.64-5.54-7.26-9.28-1.43-3.06-2.78-6.22-4.39-9.18-2.29-4.21-5.16-7.74-9.37-10.04-3.92-2.1-8.03-2.78-12.15-.86-2.29,1.05-3.64,2.96-3.35,5.64.19,3.06,1.24,5.74,3.53,7.74,1.53,1.34,1.53,2.67.95,4.39-1.24,3.73-2.29,7.56-3.53,11.29,5.25-5.16,10.04-10.71,15.59-15.59-2.29-1.05-4.12.57-6.11.67.95-2.29,3.26-2.78,8.03-1.81v.41ZM98.39,236.18c-.57.67-.86,1.05-1.15,1.43-4.98,7.08-10.23,14.05-15.59,20.84-.67.77-.38,1.34,0,2.1,8.03,16.83,16.06,33.76,24.19,50.57.38.86.95,1.72,1.53,2.96-2.96-26.2-5.93-51.91-8.98-77.93h0ZM230.99,92.97c-1.63,3.64-4.12,6.4-7.17,8.6-2.4,1.72-5.16,2.87-7.83,4.12-4.21,2.01-7.26,5.07-8.89,9.57-.57,1.53-.95,3.06-1.43,4.59-.95,3.53-2.49,6.79-5.07,9.46-3.15,3.26-6.6,6.11-11.38,6.5-.95,0-1.53.57-2.01,1.43-.86,1.53-1.81,2.96-3.06,4.21-1.34,1.34-1.43,2.87-1.24,4.59.57,4.01,3.82,6.22,6.11,9.28,1.43-4.87,4.3-8.03,9.08-9.57,2.78-.86,5.36-2.2,7.65-4.01,3.82-3.06,4.87-7.36,5.64-11.95.67-3.82,1.72-7.74,4.39-10.8,1.92-2.1,4.01-4.12,6.11-6.02,5.84-5.36,10.71-11.09,8.98-20.07l.09.09h.03ZM123.06,45.83c3.82-1.53,7.46-2.29,11.09-2.67,4.21-.38,8.42,0,12.33,1.34,3.73,1.34,6.79,3.73,9.66,6.31,6.22,5.54,13.19,7.36,21.42,5.36,6.79-1.63,13.67-3.06,20.84-2.2,6.22.77,11.86,2.58,16.92,6.22,1.15.86,1.63,2.2,3.06,3.44-.48-.86-.67-1.34-.86-1.81-3.92-7.36-10.43-11.47-17.97-14.25-4.68-1.72-9.66-1.92-14.53-3.06-2.4-.57-5.07-.95-6.88-2.78-.95-.95-1.72-1.05-2.96-.67-7.56,2.2-15.2,2.2-22.76,0-5.93-1.72-11.86-2.49-17.97-.95-4.01,1.05-7.94,2.1-11.38,5.54v.19h-.01ZM228.52,79.67c-1.92,5.25-4.87,9.66-7.94,13.96-3.73,5.36-8.71,9.18-15.01,10.9-5.36,1.43-10.71.77-16.06-.57-1.92-.48-3.73-.95-5.84,0,2.01.67,3.53,1.81,4.87,3.06,3.82,3.53,4.21,8.32,4.21,13.01s-1.05,9.18-3.26,13.39c-.09.29-.48.48,0,.95,1.81-.09,3.53-.77,5.07-1.81,5.45-3.53,8.71-8.51,10.14-14.82,1.53-6.5,5.36-11.18,11.38-14.05,2.78-1.24,5.45-2.67,7.74-4.68,6.88-6.02,8.12-11.29,4.68-19.5v.19h.01ZM181.09,71.74c-1.43-.38-2.67-.38-3.92-.57-3.15-.29-6.31-.48-9.37-1.53-4.3-1.53-7.94-4.01-11.47-6.7-3.82-2.87-7.94-4.21-12.72-2.87-3.26.86-5.64,2.87-8.03,5.07-1.63,1.53-3.44,2.01-5.74,1.53-1.63-.38-2.96-1.24-4.78-1.81,1.92,4.01,3.64,7.74,5.36,11.57.57-.38.95-.57,1.34-.77.38-.19.77-.48,1.15-.77,4.5-2.58,9.28-3.06,14.15-1.43,2.4.86,4.68,1.81,6.97,2.67,2.96,1.05,6.11,2.01,9.28,1.72,6.31-.57,11.86-3.06,17.69-6.11h.09ZM169.15,117.43c1.15-3.26,2.96-5.84,4.5-8.6,1.15-1.92,2.78-3.35,4.87-4.21.48-.19.95-.29,1.24-.77.95-1.92,2.4-3.53,3.64-5.16,2.58-3.35,5.84-5.64,10.32-5.54,3.44,0,6.7.95,9.94,1.81,5.07,1.24,9.94.67,14.15-2.4,5.36-3.82,8.71-9.18,10.04-15.68.48-2.4-.77-4.39-3.15-4.98-.95-.29-1.81-.38-2.78-.67s-1.43,0-1.81.86c-1.92,4.59-5.25,8.12-8.89,11.38-2.1,1.92-4.5,3.44-7.36,4.21-4.21,1.15-8.42.86-12.53-.19-.67-.19-1.34-.48-1.81.48-.67,1.43-1.43,2.87-2.29,4.21-2.96,4.5-6.7,7.74-12.43,8.03-.86,0-1.72-.38-2.67,0,1.43,3.06,1.24,6.02-.19,9.08-.77,1.63-1.53,3.35-2.2,5.07-.38.86-.86,1.81-.57,3.06h-.03ZM234.25,73.46c4.12.48,6.6,1.34,9.37,3.44,1.34.95,2.29,2.1,2.49,3.82.29,2.78-.29,5.54-.57,8.32-.38,3.35-.29,6.7,1.72,9.46,4.87,6.88,11.86,9.66,19.98,9.46,3.35,0,6.6-1.43,9.75-2.78,5.07-2.2,7.08-6.31,7.74-11.67-1.81,1.05-3.35,2.2-5.16,2.67-1.15.38-1.53.86-1.53,2.1,0,3.82-2.29,5.84-6.02,5.45-1.15-.09-2.1-.57-3.15-1.05-1.15-.48-2.29-.77-3.53-.38-3.82,1.05-7.17.29-9.66-3.06-1.81-2.4-2.58-5.16-2.78-8.12-.29-3.15.77-6.02,1.81-8.98,1.34-3.82.29-6.88-2.58-9.46-2.1-1.92-4.68-3.06-7.46-3.53-3.82-.67-8.42,1.24-10.23,4.21l-.19.09h0ZM284.25,70.5c-.48.38-.77.77-1.05,1.05-2.2,1.92-4.59,3.44-7.65,3.35-4.21,0-7.46-2.2-10.14-5.16-3.15-3.53-5.25-7.83-9.08-11-7.94-6.6-17.22-3.53-22.56,3.92,2.29-1.34,4.5-2.1,6.79-2.78,5.36-1.53,9.66,0,13.01,4.3,1.92,2.4,3.35,5.16,4.87,7.83,2.87,4.98,6.31,9.46,11.57,12.24,4.68,2.49,10.23,1.72,13.67-2.29.86-.95,1.63-2.1,1.53-3.44,0-2.67-.48-5.25-1.15-8.03h.19ZM159.87,93.63c.38.57.77,1.05,1.05,1.63,1.63,2.58,2.67,5.36,2.29,8.51-.57,3.82-2.1,7.26-4.39,10.32-1.81,2.49-1.63,5.07.48,7.36,1.15,1.24,2.4,2.4,3.44,3.73,3.26,4.01,2.78,9.84-.95,13.29-1.24,1.15-2.67,2.2-3.82,3.44-2.49,2.58-2.4,6.02.19,8.32,4.01,3.73,3.82,8.8-.57,11.38v.29c2.78.38,4.3-1.53,5.74-3.26,2.49-3.06,2.29-6.31-.57-8.98-2.29-2.2-2.49-4.3-.67-6.97,1.24-1.92,3.15-2.96,4.87-4.3,3.15-2.58,4.87-6.79,2.01-10.8-.57-.77-1.15-1.53-1.72-2.29-2.96-3.92-3.15-7.65-.57-11.76.77-1.24,1.72-2.29,2.58-3.53,2.1-3.06,3.06-6.22,1.24-9.75-.19-.38-.29-.86-.86-.95-3.82-1.05-6.7-3.53-9.75-5.84v.19h0ZM133.76,38.75c.38,0,.48.09.67.09h.67c5.64-1.34,11.18-.77,16.73.67,7.36,1.92,14.62,2.58,22.09.38,5.84-1.63,11.76-2.78,17.78-2.49.09,0,.38.09.29-.29-5.16-1.34-10.43-2.67-15.59-4.12-2.49-.67-4.98-1.43-7.46-1.63-8.89-.48-17.59.48-26.11,3.44-3.06,1.05-6.11,2.01-8.98,3.82l-.09.09h0ZM273.83,86.75c-.57-.09-.95-.19-1.43-.29-5.25-1.72-9.28-4.98-12.33-9.66-2.4-3.73-4.59-7.65-7.08-11.38-1.81-2.78-4.3-5.25-7.83-4.98-4.98.29-9.66,1.81-12.9,6.02-2.1,2.78-3.44,6.5-2.78,8.98.86-.67,1.72-1.24,2.78-1.53,1.24-.38,1.34-1.72,2.2-2.4,1.63-1.43,3.15-2.87,5.36-3.35,4.87-1.05,9.08.48,12.72,3.53,4.39,3.73,6.4,8.98,8.42,14.25.38,1.15.86,2.2,1.72,2.96,3.06,2.87,9.08,1.72,11.38-2.29l-.19.09-.03.03ZM69.61,248.14c7.17-9.37,14.73-18.35,21.22-28.49-2.4-.57-3.53,0-4.68,1.92-3.73,6.31-8.51,12.04-12.62,18.17-.19.29-.48.77-.86.77-1.24-.19-2.1-.95-2.78-2.01-.67-1.06.48-1.43.86-2.1.48-.95,1.24-.95,1.92-.48,3.82-4.78,7.36-9.66,10.71-14.82.57.77.29,1.05.09,1.34-3.15,4.78-6.6,9.37-10.14,13.96-.19.29-.48.67-.77.48-1.43-.77-1.43.57-2.01,1.34.86.38,1.34,2.2,2.58.48,2.49-3.73,5.36-7.17,7.94-10.8,1.81-2.58,3.82-5.16,5.25-8.32h-6.22c-.77,0-1.24.48-1.63,1.05-5.54,7.74-11.18,15.39-16.92,23.24,2.67,1.43,5.36,2.87,8.03,4.3h.03ZM243.62,54.43c1.05-.19,1.92-.38,2.67-.38,4.68,0,8.42,1.92,11.86,4.87,2.96,2.67,4.87,6.11,7.26,9.18,1.92,2.4,3.64,2.96,6.6,2.2,2.58-.67,4.5-2.29,6.11-4.21,4.59-5.36,4.5-3.64.67-9.46,0-.09-.19-.19-.38-.38-.29.29-.48.57-.77.95-2.58,3.35-6.5,4.12-10.14,2.1-1.43-.86-2.78-1.72-4.01-2.78-2.87-2.4-6.22-4.12-9.75-5.25-3.92-1.24-7.26-.29-10.14,3.15h0ZM244.29,94.69c-1.24,2.01-2.58,3.44-3.82,5.07-.86,1.05-1.53,2.2-1.92,3.44-.86,2.67-.38,4.21,1.92,5.64,1.05.67,1.63,1.53,1.53,2.78v2.2c0,2.67,1.92,4.78,4.5,5.45,3.53.95,7.08.67,10.71.57,2.1,0,4.21-.57,6.5-1.92h-2.01c-2.67,0-3.26-.38-4.3-3.06-.57-1.53-1.63-2.49-3.26-2.78-4.21-.86-5.54-4.3-4.87-7.94.09-.57,0-.95-.38-1.34-2.4-2.1-3.92-4.68-4.59-8.12h0ZM181.86,103c3.53-1.53,6.88-.67,10.32.19,3.92,1.05,7.83,1.15,11.76.77,5.07-.57,8.71-3.64,12.33-6.88,1.15-1.05,2.1-2.2,2.87-3.64-.19,0-.29-.09-.29,0-.19,0-.29.09-.48.19-4.12,2.78-8.8,3.35-13.58,2.78-2.4-.29-4.59-1.24-6.88-1.81-4.21-.95-8.22-.77-11.67,2.29-1.92,1.72-3.06,3.92-4.39,6.22v-.09h0ZM191.23,86.18c4.3,1.43,8.51,1.72,12.72.19,7.56-2.78,11.95-8.89,15.97-15.39-6.02-.57-11.38.77-16.45,3.82-4.87,2.96-8.22,7.26-12.24,11.38ZM226.8,69.54c-.19-.57-.38-1.15-.67-1.63-4.87-8.42-10.32-16.36-18.26-22.28-3.44-2.49-6.79-5.36-10.9-6.31-4.3-1.05-8.8-.57-13.19,0-1.92.19-3.82.48-5.64,1.15.48.77,1.15,1.15,1.81,1.43,3.44,1.43,6.97,2.2,10.61,2.58,6.11.67,11.86,2.2,17.02,5.45,5.54,3.53,10.32,7.65,12.33,14.25.19.57.67.67,1.15.86,2.2,1.15,4.12,2.67,5.93,4.39l-.19.09h0ZM237.69,100.71h.48c.95-1.53,2.2-2.78,3.35-4.21,1.05-1.15,2.4-2.29,2.4-4.01,0-2.78.67-5.54.86-8.32.19-1.92.67-4.12-1.05-5.54-2.96-2.49-6.31-4.12-10.23-3.26-3.92.77-4.12,1.34-3.06,5.16.38,1.43.95,2.49,2.2,3.53,3.06,2.49,4.98,5.84,5.07,9.94v6.7h-.01ZM148.11,94.69c2.29,1.05,3.82,2.67,5.45,4.3,2.78,2.78,3.26,7.08,1.05,10.32-.86,1.34-2.01,2.58-3.06,3.73-3.26,3.73-2.49,9.66,1.72,12.24-.19-4.39,1.53-7.94,4.01-11.29.86-1.15,1.72-2.4,2.49-3.64,2.96-5.16,3.82-10.43-.19-15.39-1.85-2.29-4.12-3.09-6.79-2.4-1.63.38-3.06,1.15-4.68,2.1h0ZM276.79,97.17c-.57-.09-1.05,0-1.53.09-6.02.57-11.57-.95-14.34-7.36-.77-1.92-1.43-3.82-2.1-5.74-.67-1.81-1.43-3.64-2.67-5.54.09,2.87-.95,5.07-1.53,7.36-1.15,4.98-.95,9.75,2.96,13.76,1.34,1.43,3.06,2.49,5.07,2.01,2.78-.57,5.45-.57,8.12.48,3.92,1.43,6.7-1.05,6.11-4.98l-.09-.09h.01ZM271.06,59.5c2.1,0,3.73-.67,5.16-2.1,1.81-1.81,1.92-2.2,0-4.01-3.35-3.26-7.36-5.54-11.76-7.17-1.34-.48-2.58-.95-4.01-.57-2.1.48-4.12,1.24-5.45,3.06-.77.95-.95,1.72.57,2.2,1.63.48,3.26,1.24,4.68,2.2,2.4,1.63,4.68,3.35,7.17,4.98,1.15.77,2.29,1.53,3.64,1.43h0ZM259.97,44.48c-3.64-1.24-6.97-1.81-10.52-1.63-4.98.38-8.8,2.67-11.57,6.7-.57.77-.86,1.63-.95,2.67,0,1.81-.67,3.26-2.2,4.39-2.1,1.53-2.87,4.01-2.1,6.31,1.05-1.92,2.2-3.53,3.82-4.78,1.63-1.24,3.53-2.1,5.36-2.96.29-.19.48-.38.67-.67,2.2-3.15,5.07-5.36,9.08-4.78,1.72.29,2.29-.29,2.96-1.63,1.05-2.1,3.15-2.78,5.54-3.64h-.11ZM280.14,104.72c-10.23,6.7-19.98,5.93-29.64-.19-.29,3.64.86,5.64,4.21,6.79,1.63.57,2.78,1.63,3.53,3.15,1.43,2.96,5.07,4.01,8.03,2.49,5.45-2.78,9.94-6.79,13.87-12.15v-.09h0ZM262.84,90.38c1.15,2.49,3.15,4.3,5.54,4.98,5.93,1.81,11.29.57,16.16-3.15.29-.19.48-.38.57-.77.57-3.26.86-6.6.57-10.04-2.87,3.35-4.98,4.59-9.08,5.36-1.15.19-1.81.57-2.49,1.53-1.05,1.43-2.49,2.4-4.21,2.78-2.4.57-4.68.57-6.97-.67h-.09ZM231.76,109.78c-.95,1.81-1.72,3.64-2.87,5.36-.48.77-.86,1.63-.67,2.58.38,2.29.77,4.59,1.15,6.88,1.53,8.03-.77,14.91-6.02,20.84-2.01,2.29-4.68,3.73-7.83,4.59.77.38,1.24,0,1.72-.09,8.12-2.1,13.87-6.88,16.45-15.11.38-1.15.77-2.4.57-3.64-.48-2.87-.95-5.64-2.1-8.42-1.15-2.67-1.43-5.45-.95-8.32.19-1.63.67-3.15.67-4.68h-.11ZM155.28,148.13c-.77-4.21,1.15-6.88,4.12-9.08.57-.38,1.15-.95,1.63-1.43,1.43-1.24,2.2-2.78,2.49-4.59.57-3.26-.38-6.02-2.96-8.22-2.1-1.92-4.3-3.73-4.21-7.17-.86.77-1.15,1.63-1.43,2.49-.95,2.87-1.43,5.45,1.15,8.22,2.87,3.06,3.26,6.4.29,9.66-1.34,1.43-2.49,3.06-3.06,4.98-.57,2.1-.19,3.35,1.92,5.07l.09.09h-.03ZM77.83,220.02c-1.63-.48-2.49.19-3.26,1.34-1.53,2.4-3.15,4.78-4.78,7.08-3.53,5.25-7.17,10.61-10.71,15.87,3.15,2.2,6.02,4.68,9.66,6.02.86.29,1.34.09,1.92-.38,2.29-2.29,4.3-4.78,6.4-7.36,4.39-5.25,8.51-10.8,12.43-16.36,1.43-2.01,2.78-4.12,3.82-6.5-.86,0-1.43-.38-2.01.48-3.92,6.22-8.8,11.86-13.01,17.78-2.49,3.53-5.07,6.88-7.83,10.23-.48.67-.95.95-1.81.57-2.67-1.53-5.36-3.06-8.32-4.68,5.84-8.03,11.57-15.97,17.4-24l.09-.09h0ZM98.01,92.49c.38-.38.48-.48.67-.57,6.02-7.46,12.81-14.05,20.07-20.07.29-.19.77-.38.67-.86-.29-1.15-.95-2.01-2.01-2.58-.95-.57-1.43.19-2.01.67-4.98,4.5-9.37,9.57-13.96,14.53-2.4,2.58-3.35,5.36-3.44,8.98v-.09h0ZM234.06,110.84c0-1.43.38-2.67,1.05-3.82,1.15-2.2,2.01-4.3,1.81-6.88-.19-2.67.29-5.45-.38-8.12-.77-2.96-2.2-5.64-5.07-7.74.19,1.53.38,2.67.48,3.92.77,5.07.86,10.14.38,15.2-.29,2.87.48,5.16,1.63,7.56l.09-.09h.01ZM14.54,304.74c2.58-2.96,5.07-5.74,7.56-8.6.29.48,0,.77-.19.95-2.2,2.67-4.3,5.25-6.5,7.94-.38.57-1.34,1.05-.38,2.1,3.73-5.16,8.22-9.66,11.76-14.82-.48-.86-1.34-1.24-2.01-1.81-.67-.57-1.43-1.05-2.1-1.53-3.44,2.67-9.08,9.57-8.89,10.9,2.67-3.35,5.54-6.31,8.42-9.37,1.05.77,2.01,1.34,2.01,2.67-1.15-.09-1.34-1.43-2.49-1.63-1.72,2.49-4.01,4.68-6.11,6.97-1.81,1.92-2.01,3.73-1.15,6.22h.09-.01ZM215.13,121.64c8.03-1.81,8.42-1.92,11.57-5.74,2.87-3.64,4.98-7.46,3.92-12.15-1.24,2.49-2.67,4.78-4.5,6.88s-4.01,3.92-6.11,5.64c-1.72,1.43-3.35,3.15-4.87,5.25v.12ZM124.21,82.54c-.67-1.53-1.24-2.67-1.72-3.82-.29-.86-.77-1.05-1.63-1.05-2.4.09-4.78.19-7.17.19-.48,0-.86.09-1.15.48-2.01,2.1-4.01,4.21-6.31,6.7,6.02-1.81,11.86-2.4,17.97-2.49h.01ZM228.32,70.88c.48-1.15.77-2.4,1.43-3.35,1.63-2.01,1.81-4.21,1.81-6.7,0-2.2.86-4.12,2.67-5.25,1.05-.67,1.53-1.53,1.53-2.58-.09-2.01.29-3.82,1.72-5.74-7.65,5.36-12.04,15.2-9.18,23.62h.01ZM282.35,63.23c-3.73,3.82-6.88,8.03-12.62,8.32,5.16,3.82,10.61,1.53,13.76-1.92.38-.38.48-.67.38-1.15-.48-1.63-.86-3.35-1.43-5.25h-.09ZM236.92,106.54c-3.53,5.84-.67,9.57,4.78,10.9-1.05-1.81-.86-3.73-.67-5.54.09-1.05,0-1.92-.95-2.2-1.43-.57-2.4-1.53-3.15-3.06v-.09h0ZM121.63,76.81c-.67-1.72-1.24-3.15-1.81-4.68-2.01,1.43-3.73,2.87-5.36,4.68h7.17ZM168.09,114.57c-3.26,4.59-1.81,8.12,2.2,12.72.29-1.53-.29-2.87-.95-4.01-1.63-2.67-2.29-5.36-1.24-8.71Z"/>
      <path class="cls-5" d="M310.26,260.66c0-.86-.19-1.53-1.05-1.92-8.12-4.01-15.77-8.98-24.48-12.04-2.58-.86-4.98-2.01-7.56-3.06.29-.77.48-1.24.77-1.81.77-1.81.67-2.1-1.15-2.67-.86-.29-1.72-.57-2.58-.77-10.52-2.96-21.04-5.74-31.65-8.12-5.84-1.34-11.67-2.87-17.69-3.92-.19,1.63-1.15,1.92-2.49,1.43-.29-.09-.67-.09-.95-.09-7.08-.29-13.67-2.01-20.18-4.87-6.88-2.96-10.43-8.03-10.43-15.5,0-8.89,0-17.78,1.24-26.68.57-3.92,1.53-7.65,4.3-10.61,1.24-1.43,2.67-2.4,4.68-2.67,5.16-.86,7.46-3.15,8.51-8.32.19-.95.38-2.01.57-2.96.57-2.78,2.01-4.21,4.78-4.39,4.5-.29,8.42-2.1,11.95-4.87,5.07-4.01,8.03-9.28,7.94-15.87,0-3.06-.77-6.02-1.72-8.98-1.05-3.06-.48-6.22-.38-9.37.48.48.77,1.15,1.15,1.63.38.57.77,1.15,1.34,1.53,7.17,5.25,15.11,6.88,23.81,5.45,4.68-.86,8.8-3.15,12.62-6.02,5.45-4.12,10.14-8.98,12.72-15.5,2.01-4.98,2.67-10.23,2.96-15.59.29-7.65-1.24-15.11-3.82-22.28-1.53-4.12-4.21-7.65-7.65-10.43-4.78-3.92-10.32-6.11-16.06-8.03-4.01-1.34-8.12-2.1-12.53-1.34-7.26,1.15-13.01,4.59-17.31,10.52-2.67,3.64-3.92,7.83-3.92,12.43-.19,0-.29-.09-.38-.19-.38-.48-.67-1.05-1.05-1.53-4.01-6.11-8.12-12.15-13.87-16.73-6.02-4.78-12.33-8.8-19.89-10.8-4.59-1.24-9.37-2.1-13.87-3.73-2.87-.95-5.74-1.81-8.8-1.92-8.12-.48-16.16.38-24,2.78-9.28,2.87-17.78,7.17-24.96,13.87-2.29,2.2-4.87,4.12-7.94,5.25-.48.19-1.05.48-1.63.38-1.53-.38-3.15-.19-4.68-.19-5.84.09-9.18,4.5-7.94,10.14.67,3.15,2.29,5.64,4.78,7.56-.86,2.4-1.63,4.68-2.49,7.08-1.81,4.98-2.78,10.23-3.44,15.5-.57,4.21.57,8.22,2.2,12.04,2.01,4.78,1.92,9.37-.67,13.96-3.92,7.17-7.65,14.34-11.57,21.61-.86,1.63-1.05,3.06.19,4.5,2.58,2.78,5.36,5.16,9.28,5.54,2.29.19,2.87.95,2.87,3.53,0,1.15-.77,1.81-1.43,2.49-1.63,1.63-1.81,2.87-.57,4.78.77,1.24,1.63,2.4,2.4,3.64.95,1.53,1.92,2.96,1.34,4.98-.48,1.72.19,3.35,1.24,4.87,1.15,1.72,2.1,3.44,2.87,5.45,1.05,3.06,1.43,6.22,1.72,9.37.48,4.01,2.29,4.78,5.54,4.98,4.68.38,9.37-.29,13.96-1.24,2.96-.67,5.84-1.34,8.89-2.29v2.49c-.09,7.08.09,14.25-.29,21.32-.38,5.84-1.92,7.94-7.26,10.23-7.46,3.26-15.5,3.35-23.51,4.39,1.15-2.01,2.2-3.82,3.15-5.64.48-.95.95-1.92,1.05-2.96,0-1.15-.38-1.53-1.63-1.72-2.01-.38-3.82.57-5.74.38-2.58-.19-5.25-.57-7.83-.67-6.31-.09-12.53-.19-18.74.57-6.7.77-13.19,2.01-19.5,4.12-11.67,3.82-21.61,10.23-29.16,19.98-8.98,11.57-12.53,25.14-13.29,39.49-.29,5.16,0,10.32.57,15.39.95,8.89,2.29,17.69,5.07,26.2.09.38.48.67,0,1.24-1.53,1.92-1.34,4.12-.77,6.4.19.67,0,1.63.86,1.81.95.29,1.34-.67,1.81-1.24,3.44-3.73,6.79-7.36,10.32-11.18.38.67.57,1.24.86,1.72,9.84,21.42,21.79,41.59,35.28,60.91,9.94,14.15,20.84,27.63,32.51,40.44,10.14,11.09,20.93,21.52,32.7,30.88,8.98,7.08,18.46,13.48,28.87,18.26,1.34.57,2.49.57,3.82,0,8.89-4.12,17.11-9.46,25.05-15.3,18.08-13.48,33.56-29.73,47.99-46.84,19.41-23.04,36.14-47.99,49.81-74.96,9.94-19.6,18.74-39.58,22.47-61.39.77-4.59,1.34-9.28,1.15-14.05l.48-.19.08-.05Z"/>
      <path class="cls-1" d="M170.76,143.06c0-1.43.67-1.92,1.05-2.58,2.78-4.3,5.36-8.71,6.02-13.96.38-3.15.67-6.4,1.53-9.57.57-2.01,1.34-3.92,3.06-5.25,1.34-1.15,2.58-1.15,3.64,0-2.78.29-3.64,2.4-4.3,4.5-1.24,3.53-1.63,7.26-2.4,10.9-1.24,5.64-4.21,10.32-7.36,15.01-.19.29-.67.48-1.34.95h.09,0Z"/>
      <path class="cls-1" d="M100.11,144.59c2.01,0,3.35.57,4.5,1.72.77.77,1.34.67,2.1,0,1.24-1.15,1.92-2.49,2.29-4.01.19-.67.48-1.34-.29-1.81-.67-.48-1.53-.38-2.2.19-.48.38-.86.95-1.53.86,0-1.53,1.05-2.58,2.67-2.58,1.72,0,2.58.67,2.49,2.4-.19,2.58-1.43,4.68-3.35,6.31-.57.48-1.34.57-1.81.19-1.34-.95-2.78-1.72-4.21-2.29-.19,0-.19-.38-.57-.86l-.09-.09h0Z"/>
      <path class="cls-1" d="M39.78,274.05c.48.29.95.48,1.63.77,5.25-6.11,10.52-12.15,15.68-18.55.48,1.05-.29,1.43-.67,1.92-4.5,5.45-9.08,10.8-13.58,16.16-.95,1.05-1.81,1.92-3.15.67-.29.57-.86.95-.95,1.63,0,.09,0,.19.19.29,1.4,1.15,2.68,1.05,3.82-.29,5.36-6.4,10.61-12.9,15.87-19.32.48-.57.95-1.15,1.15-2.01-2.29-1.43-4.21-3.53-6.5-4.78-3.92,4.01-7.26,8.42-10.8,12.53-4.5,5.45-8.71,11.09-12.72,16.83-.77,1.05,0,1.43.67,1.81,2.96,2.1,6.02,4.21,9.28,6.5,7.74-9.75,16.36-18.74,23.71-28.78.19-.29-.19-.48-.57-.77-7.83,8.89-15.01,18.35-23.33,27.06-.38-.95.19-1.34.57-1.72,4.01-4.59,8.03-9.08,11.95-13.67,3.26-3.82,6.4-7.74,9.66-11.57.67-.86,1.34-1.53,2.4-.38.67.77.29,1.24-.19,1.92-3.35,4.39-6.79,8.71-10.32,13.01-3.92,4.59-7.74,9.28-11.47,14.05-1.81,2.2-2.4,2.29-4.78.77-2.78-1.72-5.16-3.82-7.74-5.84-1.15-.86-1.43-1.63-.48-3.06,4.59-6.6,9.75-12.81,14.82-19.12,2.58-3.15,5.07-6.22,7.83-9.18,1.43-1.53,2.01-1.63,3.73-.38,1.43,1.05,2.87,2.1,4.3,3.26,1.15.86,1.34,1.92.57,3.15-1.81,3.06-4.12,5.74-6.31,8.42-3.35,4.12-6.79,8.12-10.23,12.24-2.1,2.49-3.35,2.49-5.45,0-.38-.48-.38-.95,0-1.43.48-.86.95-1.63,1.72-2.29l-.29.19-.03-.03Z"/>
      <path class="cls-1" d="M57.28,256.17c-1.53-.29-2.4-1.72-3.92-2.01-7.65,8.03-14.53,16.63-20.93,25.72.19.77,1.24.77,1.24,1.53-.77-.07-1.53-.48-2.29-1.24,1.43-2.4,3.06-4.68,4.78-6.88,4.21-5.45,8.42-10.9,13.01-15.97.86-.95,1.72-1.92,2.67-2.78,1.81-1.53,2.4-1.53,4.21,0,.48.38,1.15.77,1.24,1.72v-.09h-.01Z"/>
      <path class="cls-6" d="M170.76,143.06c0-1.43.67-1.92,1.05-2.58,2.78-4.3,5.36-8.71,6.02-13.96.38-3.15.67-6.4,1.53-9.57.57-2.01,1.34-3.92,3.06-5.25,1.34-1.15,2.58-1.15,3.64,0-2.78.29-3.64,2.4-4.3,4.5-1.24,3.53-1.63,7.26-2.4,10.9-1.24,5.64-4.21,10.32-7.36,15.01-.19.29-.67.48-1.34.95h.09,0Z"/>
      <path class="cls-6" d="M100.11,144.59c2.01,0,3.35.57,4.5,1.72.77.77,1.34.67,2.1,0,1.24-1.15,1.92-2.49,2.29-4.01.19-.67.48-1.34-.29-1.81-.67-.48-1.53-.38-2.2.19-.48.38-.86.95-1.53.86,0-1.53,1.05-2.58,2.67-2.58,1.72,0,2.58.67,2.49,2.4-.19,2.58-1.43,4.68-3.35,6.31-.57.48-1.34.57-1.81.19-1.34-.95-2.78-1.72-4.21-2.29-.19,0-.19-.38-.57-.86l-.09-.09h0Z"/>
      <path class="cls-6" d="M39.78,274.05c.48.29.95.48,1.63.77,5.25-6.11,10.52-12.15,15.68-18.55.48,1.05-.29,1.43-.67,1.92-4.5,5.45-9.08,10.8-13.58,16.16-.95,1.05-1.81,1.92-3.15.67-.29.57-.86.95-.95,1.63,0,.09,0,.19.19.29,1.4,1.15,2.68,1.05,3.82-.29,5.36-6.4,10.61-12.9,15.87-19.32.48-.57.95-1.15,1.15-2.01-2.29-1.43-4.21-3.53-6.5-4.78-3.92,4.01-7.26,8.42-10.8,12.53-4.5,5.45-8.71,11.09-12.72,16.83-.77,1.05,0,1.43.67,1.81,2.96,2.1,6.02,4.21,9.28,6.5,7.74-9.75,16.36-18.74,23.71-28.78.19-.29-.19-.48-.57-.77-7.83,8.89-15.01,18.35-23.33,27.06-.38-.95.19-1.34.57-1.72,4.01-4.59,8.03-9.08,11.95-13.67,3.26-3.82,6.4-7.74,9.66-11.57.67-.86,1.34-1.53,2.4-.38.67.77.29,1.24-.19,1.92-3.35,4.39-6.79,8.71-10.32,13.01-3.92,4.59-7.74,9.28-11.47,14.05-1.81,2.2-2.4,2.29-4.78.77-2.78-1.72-5.16-3.82-7.74-5.84-1.15-.86-1.43-1.63-.48-3.06,4.59-6.6,9.75-12.81,14.82-19.12,2.58-3.15,5.07-6.22,7.83-9.18,1.43-1.53,2.01-1.63,3.73-.38,1.43,1.05,2.87,2.1,4.3,3.26,1.15.86,1.34,1.92.57,3.15-1.81,3.06-4.12,5.74-6.31,8.42-3.35,4.12-6.79,8.12-10.23,12.24-2.1,2.49-3.35,2.49-5.45,0-.38-.48-.38-.95,0-1.43.48-.86.95-1.63,1.72-2.29l-.29.19-.03-.03Z"/>
      <path class="cls-6" d="M57.28,256.17c-1.53-.29-2.4-1.72-3.92-2.01-7.65,8.03-14.53,16.63-20.93,25.72.19.77,1.24.77,1.24,1.53-.77-.07-1.53-.48-2.29-1.24,1.43-2.4,3.06-4.68,4.78-6.88,4.21-5.45,8.42-10.9,13.01-15.97.86-.95,1.72-1.92,2.67-2.78,1.81-1.53,2.4-1.53,4.21,0,.48.38,1.15.77,1.24,1.72v-.09h-.01Z"/>
      <path class="cls-6" d="M185.01,65.04c-4.21-2.96-8.12-6.02-11.86-9.37-.77-.67-1.72-.86-2.67-.77-2.01.29-4.12.57-6.11.77-5.45.48-9.94-2.01-14.25-4.98-1.34-.95-2.78-1.81-3.92-3.26,7.94-.57,15.39.29,22.38,4.21-2.78-3.35-5.45-6.5-9.75-8.22-4.59-1.81-7.94-5.25-9.37-10.32-.77-2.58-1.81-5.07-1.63-8.03,2.01,1.05,3.82,2.29,5.45,3.73,4.3,4.01,8.6,8.03,9.75,14.25.29,1.43,1.53,2.29,2.4,3.44.95,1.15,2.01,2.1,3.26,3.15-4.21-6.6-2.1-13.39-.86-20.18.86,0,.95.67,1.15,1.05,2.49,5.84,4.01,11.86,4.12,18.26,0,1.24-.19,2.58-.48,3.82-.09.67,0,1.05.38,1.53,3.73,3.26,7.46,6.31,11.86,8.98-6.11-6.97-5.64-15.68-6.79-24,.86-.09,1.15.38,1.43.77,3.35,5.54,6.97,11.09,8.98,17.31.77,2.29.86,4.87.67,7.26,0,.77,0,1.34.86,1.81,6.22,3.15,12.72,5.64,19.32,7.65.19,0,.38,0,.86-.19-8.98-3.64-14.91-9.75-16.36-19.69,2.29.95,4.59,1.92,6.5,3.64,4.3,3.82,7.94,8.12,10.14,13.58.38,1.05,1.05,1.92,1.63,2.87.67,1.05,1.81.77,2.78.95,3.26.57,6.5.67,10.23.48-6.79-4.21-10.14-10.14-11.29-17.78,2.29,1.43,4.3,2.87,6.11,4.5,2.49,2.2,5.07,4.3,6.5,7.36,1.24,2.58,1.53,5.25.67,8.12-2.2,6.88-6.79,11.67-12.9,15.2-1.43.86-2.96,1.72-4.59,2.67,1.34-8.42,4.59-16.54,13.19-18.94-2.87-.29-5.25.19-7.65-.48-3.44-.95-6.02.77-8.6,2.58-3.92,2.78-8.12,4.59-13.1,4.12-2.49-.19-4.87-.77-7.65-1.72,6.5-4.39,13.29-6.4,21.04-6.79-4.39-1.63-8.6-3.15-12.62-4.87-.67-.29-1.53-.57-2.1-.95-2.67-2.01-5.45-1.53-8.12-.38-3.06,1.24-6.11,2.2-9.57,2.01-5.36-.19-10.14-2.1-14.82-4.39-.09,0-.19-.19-.48-.57,8.71-2.2,17.22-2.4,25.82-.29l.09.09h-.03Z"/>
    </g>
  </g>
  <g class="cls-7">
    <path class="cls-6" d="M47.63-80.6c3.56-.46,7.09-.51,10.43-1.95,2.38-1.02,3.05-1.95,3.22-4.54.21-3.14.08-6.32.13-9.46v-1.1c-1.36.42-2.67.72-3.95,1.02-2.04.42-4.12.72-6.2.55-1.44-.13-2.25-.46-2.46-2.21-.17-1.4-.3-2.8-.76-4.16-.3-.89-.76-1.7-1.27-2.42-.46-.68-.76-1.4-.55-2.16.25-.89-.17-1.53-.59-2.21-.34-.55-.72-1.06-1.06-1.61-.55-.85-.46-1.4.25-2.12.3-.3.63-.59.63-1.1,0-1.15-.25-1.49-1.27-1.57-1.74-.17-3.01-1.23-4.12-2.46-.55-.63-.46-1.27-.08-2,1.7-3.18,3.35-6.41,5.13-9.59,1.15-2.04,1.23-4.08.3-6.2-.72-1.7-1.23-3.48-.97-5.34.3-2.33.72-4.67,1.53-6.88.38-1.02.72-2.04,1.1-3.14-1.1-.85-1.83-1.95-2.12-3.35-.55-2.5.93-4.46,3.52-4.5.68,0,1.4-.08,2.08.08.25.04.46-.08.72-.17,1.36-.51,2.46-1.36,3.52-2.33,3.18-2.97,6.96-4.92,11.08-6.15,3.48-1.06,7.04-1.4,10.65-1.23,1.32.08,2.63.42,3.91.85,2,.68,4.12,1.1,6.15,1.66,3.35.89,6.15,2.67,8.83,4.79,2.59,2.04,4.37,4.71,6.15,7.42.13.21.3.46.46.68,0,0,.08,0,.17.08,0-2.04.55-3.86,1.74-5.51,1.91-2.59,4.46-4.12,7.68-4.67,1.91-.3,3.73,0,5.56.59,2.55.85,5.01,1.83,7.13,3.56,1.53,1.27,2.71,2.8,3.39,4.63,1.19,3.18,1.87,6.49,1.7,9.89-.08,2.33-.42,4.71-1.32,6.92-1.15,2.88-3.22,5.05-5.64,6.88-1.7,1.23-3.48,2.29-5.6,2.67-3.82.68-7.38-.04-10.56-2.42-.25-.17-.42-.42-.59-.68-.17-.21-.3-.46-.51-.72-.08,1.4-.3,2.76.17,4.16.42,1.27.76,2.63.76,3.99,0,2.93-1.27,5.26-3.52,7.04-1.53,1.23-3.26,2-5.3,2.16-1.23.08-1.87.72-2.12,1.95-.08.42-.17.89-.25,1.32-.46,2.29-1.49,3.31-3.78,3.69-.89.13-1.49.59-2.08,1.19-1.23,1.36-1.66,2.97-1.91,4.71-.59,3.91-.59,7.85-.55,11.84,0,3.26,1.57,5.51,4.63,6.88,2.88,1.23,5.85,2.04,8.96,2.16.13,0,.3,0,.42.04.59.21,1.02.08,1.1-.63,2.67.42,5.26,1.15,7.85,1.74,4.71,1.06,9.38,2.29,14.05,3.61.38.13.76.21,1.15.34.8.25.85.38.51,1.19-.08.25-.21.51-.34.8,1.1.46,2.21.97,3.35,1.36,3.82,1.36,7.21,3.56,10.86,5.34.38.17.42.46.46.85.04,2.08-.17,4.16-.51,6.24-1.66,9.67-5.56,18.59-9.97,27.24-6.07,11.92-13.49,23-22.1,33.27-6.41,7.64-13.28,14.81-21.3,20.79-3.48,2.59-7.13,4.96-11.12,6.79-.59.25-1.1.3-1.7,0-4.63-2.12-8.83-4.96-12.81-8.1-5.26-4.16-10.01-8.78-14.51-13.71-5.18-5.68-10.01-11.63-14.43-17.95-5.98-8.57-11.29-17.52-15.66-27.03-.13-.25-.25-.46-.38-.76-1.57,1.7-3.05,3.35-4.58,4.96-.21.25-.38.63-.8.55-.38-.08-.34-.51-.38-.8-.25-.97-.34-1.95.34-2.84.17-.21,0-.38,0-.55-1.23-3.78-1.83-7.68-2.25-11.63-.25-2.29-.38-4.58-.25-6.83.34-6.37,1.91-12.35,5.9-17.52,3.35-4.33,7.76-7.17,12.94-8.87,2.8-.93,5.73-1.49,8.66-1.83,2.76-.34,5.56-.3,8.32-.25,1.15,0,2.33.17,3.48.3.85.08,1.66-.34,2.55-.17.55.08.72.3.72.76s-.21.93-.46,1.32c-.46.8-.93,1.66-1.4,2.5l-.21.08-.04.02ZM67.87-112.59c.38.25.51.59.68.89.97,1.32,2.71,1.36,3.78.13.3-.34.42-.72.34-1.23-.21-1.27-.89-2.16-2-2.8-1.61-.93-1.95-2.16-1.15-3.86.38-.8.97-1.44,1.49-2.12.51-.68.55-1.36.21-2.16-.38-.93-1.15-1.53-1.91-2.12-2.12-1.57-2.46-4.2-.85-6.28.46-.59.93-1.15,1.32-1.78.34-.51.51-1.1.42-1.74-.21-1.91-1.61-2.93-2.97-3.99-.3-.21-.68-.25-1.06-.21-.51,0-1.06.04-1.57-.04-3.09-.59-5.47-2.21-7.21-4.79-.21-.3-.38-.38-.72-.38-.8,0-1.66.08-2.46.17-1.83.25-3.65.42-5.39,1.02-.34.13-.68.25-.93.55-.76.93-1.49,1.91-2.29,2.84-.42.46-.46.93-.34,1.53.3,1.23.59,2.46.89,3.69.55,2.08.46,4.08-.55,6.07-1.57,3.09-3.39,6.07-5.01,9.12-.55,1.1-.51,1.4.46,2.21,1.02.85,2.21,1.27,3.48,1.53.68.13,1.1.59,1.27,1.27.25,1.06-.13,1.87-.8,2.63-.46.51-.25,1.1.38,1.27.38.08.8.13,1.15-.13.85-.55,1.61-.38,2.38.21.42.3.89.55,1.32.85.93.72,1.95,1.23,3.26.97-1.32,2.29-2.42,4.75-5.6,5.05.89,1.74,1.32,3.56,1.53,5.43.17,1.44.59,1.91,2.04,1.95,1.15,0,2.29-.13,3.39-.3,2.08-.34,4.16-.63,6.15-1.32,2.16-.76,4.29-1.57,6.32-2.55,2.67-1.32,5.64-2.33,7.3-5.22,0,.51-.25.8-.46,1.15-.68,1.1-1.87,1.66-2.76,2.59-.93.97-2.04,1.74-2.97,2.71-1.95,2.08-3.86,4.25-5.77,6.37-.21.25-.46.51-.46.89,0,1.83-.13,3.61-.25,5.43-.17,2.5-1.32,4.25-3.69,5.26-3.35,1.4-6.92,1.53-10.48,1.87-.97.08-2.04,1.32-1.91,2.33.25,1.91.46,3.78.68,5.68.21,2,.42,3.99.63,5.98.25,2.46.59,4.92.85,7.38.25,2.5.51,5.01.76,7.55.3,2.55.55,5.13.89,7.68.13.97.13,2,.59,2.97,4.75,9.8,9.46,19.6,14.17,29.36,1.19,2.42,2.12,4.96,4.12,6.92,1.66,1.61,3.18,3.44,4.79,5.22,1.7-1.87,3.35-3.65,4.96-5.47.59-.68,1.32-1.32,1.74-2.12.72-1.23,1.23-2.59,1.87-3.86,4.16-8.61,8.27-17.23,12.43-25.84.72-1.49,1.53-2.93,2.12-4.5.68-1.74.51-3.61.76-5.43.3-2,.42-4.03.63-6.07s.46-4.08.68-6.11c.21-2,.42-3.99.63-5.98.21-2.08.46-4.12.72-6.2.21-2.04.46-4.03.72-6.07.13-1.19.25-2.42.38-3.65-1.4,0-2.67-.17-3.99-.3-2.84-.3-5.47-1.23-7.89-2.67-2.16-1.32-3.31-3.26-3.56-5.77-.25-2.33-.17-4.67-.08-7,.08-2.67.17-5.39.93-8.02.08-.34,0-.51-.25-.76-.76-.63-1.36-1.4-1.66-2.42-.38-1.4-.34-2.8.17-4.16.34-.89.13-1.61-.51-2.25-1.4-1.27-2.38-2.67-2.04-4.79-.89.68-1.78,1.15-2.67,1.57-.46.25-.72.59-.72,1.1-.04.89-.25,1.7-.46,2.55-.34,1.36-.76,2.67-1.27,3.95-.08.21-.17.46-.46.34-.21-.08-.13-.25-.08-.42.8-2.21,1.19-4.54,1.66-6.83.08-.42.3-.68.68-.89.76-.42,1.53-.8,2.25-1.32,2.67-1.91,4.03-4.71,4.84-7.8.59-2.21.72-4.46-.25-6.54-1.23-2.63-4.25-4.03-6.58-.89-1.02,1.4-1.7,3.01-2.38,4.58-.08.17-.08.3,0,.42.59,1.1.97,2.25.63,3.56,0,.08.08.21.08.34.46,1.74-.08,3.31-1.53,4.37-.63.46-1.32.85-1.78,1.44-.93,1.23-.93,2,.08,2.84,1.36,1.1,1.27,2.8.46,4.03-.8,1.23-1.78,2.38-3.52,2.12-.59-.08-1.19-.25-1.78-.46-.89-.3-1.7-1.36-1.7-2.29l.25-.04v-.02ZM57.09,16.14c4.92,4.2,9.97,8.02,15.7,10.86.55.25.97.25,1.49,0,6.2-3.09,11.67-7.3,16.85-11.84,4.54-4.03,8.78-8.4,12.77-12.94.72-.8,1.53-1.57,1.95-2.59,1.66-3.99,3.18-8.06,4.67-12.13,3.91-10.78,7.59-21.64,11.12-32.54,2.67-8.27,5.34-16.59,7.3-25.07.3-1.36.34-1.36-.97-1.87-1.15-.42-2.25-.97-3.48-1.27-.42.89-.85,1.74-1.27,2.59-6.66,13.28-14.05,26.14-22.36,38.44-8.4,12.43-17.52,24.31-27.92,35.13-2.59,2.71-5.34,5.3-8.19,7.72-2.38,2.04-4.88,3.91-7.59,5.64l-.04-.13h0ZM30.57-58.02c-.08.08-.13.08-.17.13-2.08,2.5-4.2,5.01-6.28,7.47-.25.3-.17.51-.04.8.68,2.12,1.36,4.29,2.04,6.41,4.58,13.83,9.12,27.66,14.51,41.2.34.85.59,1.78,1.23,2.55.93,1.1,1.87,2.21,2.84,3.26,3.56,4.03,7.38,7.8,11.37,11.42.42.38.68.34,1.15.04,4.33-2.84,8.19-6.24,11.92-9.76,1.32-1.27,2.59-2.59,3.91-3.86-16.72-18.12-30.51-38.19-42.39-59.66h-.09ZM29.85-61.38c5.56-7.55,11.75-14.72,16.34-23.04-.17-.04-.25-.13-.38-.13-.46,0-.93,0-1.4-.08-.55-.08-.8.13-1.1.59-2.67,4.29-5.68,8.32-9.04,12.09-1.7,1.95-1.4,1.57-3.18.68-1.27-.68-2.5-1.49-3.65-2.46,2.38-3.65,5.05-7.09,7.38-10.82-1.83.13-3.48.38-5.18.76-.3.08-.38.25-.46.46-.72,1.53-1.44,3.05-2.38,4.46-.21.34-.38.68-.97.97.97-2,2.04-3.69,2.84-5.6-.46-.04-.72.13-.89.46s-.34.68-.51.97c-2.55,4.08-5.22,8.1-8.23,11.84-.3.34-.46.85-.97.97,1.4-2.42,3.22-4.54,4.79-6.83,1.57-2.29,3.05-4.63,4.41-7.04-5.94,1.7-10.99,4.75-14.6,9.8-3.22,4.46-4.63,9.55-5.05,15.06,3.56-2.93,6.2-6.58,9.51-9.63-.17.38-.38.68-.63.97-1.02,1.15-2,2.33-3.05,3.48-1.78,1.91-3.48,3.91-5.51,5.56-.38.34-.38.68-.21,1.19,6.49-6.28,12.3-13.07,17.52-20.36,0,.25-.13.42-.25.59-2.63,4.03-5.6,7.8-8.78,11.46-2.67,3.09-5.39,6.2-8.53,8.87-.17.13-.25.3-.25.51.04,1.57.13,3.18.17,4.75,0,.13.08.25.21.63.13-.25.17-.38.25-.46,1.06-1.15,2.12-2.29,3.22-3.44.17-.17.38-.42.68-.25.76.46,1.57.93,2.16,1.61-1.57,2.55-3.56,4.63-5.43,6.88-.13.17-.38.25-.34.55.17.76.3,1.53.51,2.5,1.74-2.33,3.78-4.16,5.39-6.37,0,.38-.17.63-.38.85-1.49,1.83-2.93,3.61-4.41,5.43-.25.34-.72.68-.21,1.23,2.29-2.84,4.67-5.51,6.62-8.57-.13-.13-.21-.38-.46-.38-.42.3-.51.93-1.1,1.1.46-.59.55-1.49,1.4-1.66.72.55.68,1.1.21,1.83-1.87,2.8-4.16,5.26-6.2,7.89-.17.21-.46.38-.42.68.17.76.34,1.49.55,2.29,6.79-6.28,11.88-13.83,17.78-20.71-.21.42-.46.8-.76,1.19-2.25,2.84-4.58,5.6-6.79,8.49-3.18,4.16-6.49,8.19-10.27,11.75-.63.59-.8,1.61-.42,2.5.17,0,.25-.13.34-.25,1.91-2.16,3.82-4.29,5.73-6.49,4.92-5.68,9.8-11.42,14.51-17.31,3.52-4.41,7.04-8.74,10.43-13.24,2.5-3.31,5.01-6.62,7.09-10.22.34-.55.68-1.15.8-1.78-.85-.34-1.32-.21-1.66.34-1.57,2.63-3.26,5.18-4.96,7.68-3.01,4.41-6.37,8.57-9.72,12.68-.72.89-1.36,1.83-2.29,2.5h.21v-.02ZM107.03-1.55c.21-.25.46-.51.68-.8,5.85-7.21,11.16-14.85,15.87-22.87,5.77-9.84,10.56-20.15,13.41-31.27.76-3.01,1.27-6.02,1.7-9.12.13-.76-.21-1.19-.85-1.53-1.83-.97-3.65-2-5.51-2.97-.76-.42-1.57-.76-2.42-1.15-2.88,11.97-6.75,23.55-10.52,35.13-3.82,11.63-7.97,23.08-12.39,34.54l.04.04h0ZM115.35-78.05c-11.12,23.12-22.19,46.16-33.27,69.16.08.04.17.08.21.13,16.72-20.58,30.93-42.73,42.26-66.78l-.34-.17c-2.97-.8-5.94-1.61-8.87-2.38v.04h0ZM37.27-66.38c-.21.08-.3.25-.42.42-1.74,2.21-3.48,4.41-5.26,6.58-.42.51-.46.85-.13,1.49,9.08,16.17,19.22,31.57,30.81,46.04.85,1.06,1.74,2.08,2.59,3.14.04,0,.08-.08.17-.08-9.21-19.18-18.37-38.4-27.71-57.54l-.04-.04h0ZM40.03-1.55c-6.02-15.78-11.59-31.69-16.63-47.82-.13.04-.21.04-.21.08-2.38,2.76-4.75,5.47-7.13,8.23-.3.34-.34.63-.17,1.06.76,1.57,1.44,3.22,2.25,4.79,5.18,10.39,11.37,20.15,18.46,29.32,1.15,1.49,2.29,2.88,3.44,4.37v-.04ZM114.71-78.18c-4.25-1.06-8.4-2.21-12.64-3.05-1.44,12.77-2.93,25.5-4.37,38.19,5.73-11.67,11.2-23.47,17.01-35.17v.04ZM51.7-158.71c1.66.68,2.93,1.7,3.99,3.01.3.38.63.68,1.02.97,1.02.76,2.04,1.49,3.39,1.49,1.06,0,1.53-.89,2.21-1.49,2.76-2.38,6.02-2.5,8.96-.17,2.55,2,5.22,3.56,8.53,3.78,1.66.08,3.35.38,4.88-.63.55-.38,1.19-.59,1.83-.8,2.76-1.06,5.51-2.12,8.53-1.91.89.08,1.78.25,2.67.42-.21-.46-.51-.76-.89-.97-2.71-1.87-5.73-2.59-8.96-2.67-2.25-.04-4.5.42-6.66.97-1.78.46-3.61.68-5.47.46-1.95-.21-3.48-1.4-5.01-2.5-1.44-1.06-2.76-2.29-4.5-2.84-3.35-1.06-6.62-.59-9.84.51-1.66.59-3.09,1.66-4.79,2.42l.13-.04h0ZM59.98-147.97c.13.42.42.68.63.97,1.57,1.95,4.54,3.52,7.55,2.12,1.83-.85,3.69-.51,5.43.42.55.3,1.1.68,1.61,1.06,1.87,1.36,3.95,1.49,6.15,1.06,2.88-.55,4.88-2.29,6.75-4.41,2.5-2.88,5.64-4.67,9.59-4.63,1.36,0,2.67.08,4.08.3-.17-.17-.3-.34-.42-.46-.08-.08-.21-.21-.34-.3-2.8-1.91-5.85-2.5-9.12-1.87-2.29.42-4.46,1.27-6.54,2.38-2.42,1.27-4.75,2.63-7.38,3.44-2,.63-4.03.93-6.07.51-1.44-.3-2.8-.8-4.16-1.4-2.76-1.19-5.34-.93-7.8.76l.04.04h-.01ZM87.05-105.08c.13-.21.17-.38.25-.51.89-1.57,1.87-3.05,3.99-3.14,1.23-.04,2.21-.68,2.63-1.95.21-.68.38-1.32.46-2.04.21-2.12.76-2.8,2.8-3.44.72-.21,1.49-.42,2.08-.89,2.16-1.61,3.26-3.86,3.78-6.45.46-2.25-.51-4.29-.68-6.54-1.02,1.32-2.42,1.74-3.91,1.95-.63.08-1.15.46-1.44,1.06-.55,1.02-.8,2.12-.97,3.22-.21,1.57-.55,3.05-1.7,4.25-1.32,1.32-2.93,2.16-4.63,2.71-1.74.55-2.71,1.74-3.35,3.35-.38.97-.72,1.95-1.02,2.93-.42,1.61-.46,4.08,1.74,5.43l-.04.04h.01ZM53.74-152.55c-.97-1.7-1.83-2.42-3.61-2.88-.63-.17-1.36-.25-1.87.25-.46.46-.42,1.4,0,2.16.21.38.51.72.85,1.06-.21.17-.38.13-.55,0-.68-.42-1.49-1.87-1.1-2.88.25-.63.59-1.1,1.32-1.23,1.87-.3,3.35.42,4.58,1.74.93,1.02,1.61,2.21,2.04,3.52.51,1.49,1.1,2.97,1.78,4.37,1.19,2.46,3.09,4.2,5.64,5.26,1.23.51,2.5.89,3.82.46.76-.21,1.44-.63,2.21-.89,1.78-.63,3.44-.59,4.84.89.34.38.8.68,1.23.93,4.5,2.8,8.23,1.1,10.22-3.35-.76.42-1.53.76-2.38.97-2.04.55-4.03,1.02-6.11.17-1.1-.46-2.04-1.15-3.01-1.74-1.7-.97-3.48-1.4-5.39-.55-2.33,1.06-4.5.51-6.49-.89-1.49-1.02-2.5-2.46-3.22-4.12-.63-1.36-1.23-2.76-1.95-4.08-1.02-1.87-2.29-3.44-4.16-4.46-1.74-.93-3.56-1.23-5.39-.38-1.02.46-1.61,1.32-1.49,2.5.08,1.36.55,2.55,1.57,3.44.68.59.68,1.19.42,1.95-.55,1.66-1.02,3.35-1.57,5.01,2.33-2.29,4.46-4.75,6.92-6.92-1.02-.46-1.83.25-2.71.3.42-1.02,1.44-1.23,3.56-.8v.17h0ZM45.42-77.37c-.25.3-.38.46-.51.63-2.21,3.14-4.54,6.24-6.92,9.25-.3.34-.17.59,0,.93,3.56,7.47,7.13,14.98,10.73,22.44.17.38.42.76.68,1.32-1.32-11.63-2.63-23.04-3.99-34.58h0ZM104.27-140.93c-.72,1.61-1.83,2.84-3.18,3.82-1.06.76-2.29,1.27-3.48,1.83-1.87.89-3.22,2.25-3.95,4.25-.25.68-.42,1.36-.63,2.04-.42,1.57-1.1,3.01-2.25,4.2-1.4,1.44-2.93,2.71-5.05,2.88-.42,0-.68.25-.89.63-.38.68-.8,1.32-1.36,1.87-.59.59-.63,1.27-.55,2.04.25,1.78,1.7,2.76,2.71,4.12.63-2.16,1.91-3.56,4.03-4.25,1.23-.38,2.38-.97,3.39-1.78,1.7-1.36,2.16-3.26,2.5-5.3.3-1.7.76-3.44,1.95-4.79.85-.93,1.78-1.83,2.71-2.67,2.59-2.38,4.75-4.92,3.99-8.91l.04.04h.01ZM56.37-161.84c1.7-.68,3.31-1.02,4.92-1.19,1.87-.17,3.73,0,5.47.59,1.66.59,3.01,1.66,4.29,2.8,2.76,2.46,5.85,3.26,9.51,2.38,3.01-.72,6.07-1.36,9.25-.97,2.76.34,5.26,1.15,7.51,2.76.51.38.72.97,1.36,1.53-.21-.38-.3-.59-.38-.8-1.74-3.26-4.63-5.09-7.97-6.32-2.08-.76-4.29-.85-6.45-1.36-1.06-.25-2.25-.42-3.05-1.23-.42-.42-.76-.46-1.32-.3-3.35.97-6.75.97-10.1,0-2.63-.76-5.26-1.1-7.97-.42-1.78.46-3.52.93-5.05,2.46v.08h0ZM103.17-146.83c-.85,2.33-2.16,4.29-3.52,6.2-1.66,2.38-3.86,4.08-6.66,4.84-2.38.63-4.75.34-7.13-.25-.85-.21-1.66-.42-2.59,0,.89.3,1.57.8,2.16,1.36,1.7,1.57,1.87,3.69,1.87,5.77s-.46,4.08-1.44,5.94c-.04.13-.21.21,0,.42.8-.04,1.57-.34,2.25-.8,2.42-1.57,3.86-3.78,4.5-6.58.68-2.88,2.38-4.96,5.05-6.24,1.23-.55,2.42-1.19,3.44-2.08,3.05-2.67,3.61-5.01,2.08-8.66v.08h0ZM82.13-150.35c-.63-.17-1.19-.17-1.74-.25-1.4-.13-2.8-.21-4.16-.68-1.91-.68-3.52-1.78-5.09-2.97-1.7-1.27-3.52-1.87-5.64-1.27-1.44.38-2.5,1.27-3.56,2.25-.72.68-1.53.89-2.55.68-.72-.17-1.32-.55-2.12-.8.85,1.78,1.61,3.44,2.38,5.13.25-.17.42-.25.59-.34.17-.08.34-.21.51-.34,2-1.15,4.12-1.36,6.28-.63,1.06.38,2.08.8,3.09,1.19,1.32.46,2.71.89,4.12.76,2.8-.25,5.26-1.36,7.85-2.71h.04ZM76.82-130.07c.51-1.44,1.32-2.59,2-3.82.51-.85,1.23-1.49,2.16-1.87.21-.08.42-.13.55-.34.42-.85,1.06-1.57,1.61-2.29,1.15-1.49,2.59-2.5,4.58-2.46,1.53,0,2.97.42,4.41.8,2.25.55,4.41.3,6.28-1.06,2.38-1.7,3.86-4.08,4.46-6.96.21-1.06-.34-1.95-1.4-2.21-.42-.13-.8-.17-1.23-.3s-.63,0-.8.38c-.85,2.04-2.33,3.61-3.95,5.05-.93.85-2,1.53-3.26,1.87-1.87.51-3.73.38-5.56-.08-.3-.08-.59-.21-.8.21-.3.63-.63,1.27-1.02,1.87-1.32,2-2.97,3.44-5.51,3.56-.38,0-.76-.17-1.19,0,.63,1.36.55,2.67-.08,4.03-.34.72-.68,1.49-.97,2.25-.17.38-.38.8-.25,1.36h-.01ZM105.71-149.58c1.83.21,2.93.59,4.16,1.53.59.42,1.02.93,1.1,1.7.13,1.23-.13,2.46-.25,3.69-.17,1.49-.13,2.97.76,4.2,2.16,3.05,5.26,4.29,8.87,4.2,1.49,0,2.93-.63,4.33-1.23,2.25-.97,3.14-2.8,3.44-5.18-.8.46-1.49.97-2.29,1.19-.51.17-.68.38-.68.93,0,1.7-1.02,2.59-2.67,2.42-.51-.04-.93-.25-1.4-.46-.51-.21-1.02-.34-1.57-.17-1.7.46-3.18.13-4.29-1.36-.8-1.06-1.15-2.29-1.23-3.61-.13-1.4.34-2.67.8-3.99.59-1.7.13-3.05-1.15-4.2-.93-.85-2.08-1.36-3.31-1.57-1.7-.3-3.73.55-4.54,1.87l-.08.04h0ZM127.91-150.9c-.21.17-.34.34-.46.46-.97.85-2.04,1.53-3.39,1.49-1.87,0-3.31-.97-4.5-2.29-1.4-1.57-2.33-3.48-4.03-4.88-3.52-2.93-7.64-1.57-10.01,1.74,1.02-.59,2-.93,3.01-1.23,2.38-.68,4.29,0,5.77,1.91.85,1.06,1.49,2.29,2.16,3.48,1.27,2.21,2.8,4.2,5.13,5.43,2.08,1.1,4.54.76,6.07-1.02.38-.42.72-.93.68-1.53,0-1.19-.21-2.33-.51-3.56h.08ZM72.71-140.63c.17.25.34.46.46.72.72,1.15,1.19,2.38,1.02,3.78-.25,1.7-.93,3.22-1.95,4.58-.8,1.1-.72,2.25.21,3.26.51.55,1.06,1.06,1.53,1.66,1.44,1.78,1.23,4.37-.42,5.9-.55.51-1.19.97-1.7,1.53-1.1,1.15-1.06,2.67.08,3.69,1.78,1.66,1.7,3.91-.25,5.05v.13c1.23.17,1.91-.68,2.55-1.44,1.1-1.36,1.02-2.8-.25-3.99-1.02-.97-1.1-1.91-.3-3.09.55-.85,1.4-1.32,2.16-1.91,1.4-1.15,2.16-3.01.89-4.79-.25-.34-.51-.68-.76-1.02-1.32-1.74-1.4-3.39-.25-5.22.34-.55.76-1.02,1.15-1.57.93-1.36,1.36-2.76.55-4.33-.08-.17-.13-.38-.38-.42-1.7-.46-2.97-1.57-4.33-2.59v.08h0ZM61.12-164.99c.17,0,.21.04.3.04h.3c2.5-.59,4.96-.34,7.42.3,3.26.85,6.49,1.15,9.8.17,2.59-.72,5.22-1.23,7.89-1.1.04,0,.17.04.13-.13-2.29-.59-4.63-1.19-6.92-1.83-1.1-.3-2.21-.63-3.31-.72-3.95-.21-7.8.21-11.59,1.53-1.36.46-2.71.89-3.99,1.7l-.04.04h0ZM123.28-143.69c-.25-.04-.42-.08-.63-.13-2.33-.76-4.12-2.21-5.47-4.29-1.06-1.66-2.04-3.39-3.14-5.05-.8-1.23-1.91-2.33-3.48-2.21-2.21.13-4.29.8-5.73,2.67-.93,1.23-1.53,2.88-1.23,3.99.38-.3.76-.55,1.23-.68.55-.17.59-.76.97-1.06.72-.63,1.4-1.27,2.38-1.49,2.16-.46,4.03.21,5.64,1.57,1.95,1.66,2.84,3.99,3.73,6.32.17.51.38.97.76,1.32,1.36,1.27,4.03.76,5.05-1.02l-.08.04h-.01ZM32.65-72.06c3.18-4.16,6.54-8.14,9.42-12.64-1.06-.25-1.57,0-2.08.85-1.66,2.8-3.78,5.34-5.6,8.06-.08.13-.21.34-.38.34-.55-.08-.93-.42-1.23-.89s.21-.63.38-.93c.21-.42.55-.42.85-.21,1.7-2.12,3.26-4.29,4.75-6.58.25.34.13.46.04.59-1.4,2.12-2.93,4.16-4.5,6.2-.08.13-.21.3-.34.21-.63-.34-.63.25-.89.59.38.17.59.97,1.15.21,1.1-1.66,2.38-3.18,3.52-4.79.8-1.15,1.7-2.29,2.33-3.69h-2.76c-.34,0-.55.21-.72.46-2.46,3.44-4.96,6.83-7.51,10.31,1.19.63,2.38,1.27,3.56,1.91h.01ZM109.87-158.03c.46-.08.85-.17,1.19-.17,2.08,0,3.73.85,5.26,2.16,1.32,1.19,2.16,2.71,3.22,4.08.85,1.06,1.61,1.32,2.93.97,1.15-.3,2-1.02,2.71-1.87,2.04-2.38,2-1.61.3-4.2,0-.04-.08-.08-.17-.17-.13.13-.21.25-.34.42-1.15,1.49-2.88,1.83-4.5.93-.63-.38-1.23-.76-1.78-1.23-1.27-1.06-2.76-1.83-4.33-2.33-1.74-.55-3.22-.13-4.5,1.4h0ZM110.17-140.16c-.55.89-1.15,1.53-1.7,2.25-.38.46-.68.97-.85,1.53-.38,1.19-.17,1.87.85,2.5.46.3.72.68.68,1.23v.97c0,1.19.85,2.12,2,2.42,1.57.42,3.14.3,4.75.25.93,0,1.87-.25,2.88-.85h-.89c-1.19,0-1.44-.17-1.91-1.36-.25-.68-.72-1.1-1.44-1.23-1.87-.38-2.46-1.91-2.16-3.52.04-.25,0-.42-.17-.59-1.06-.93-1.74-2.08-2.04-3.61h0ZM82.47-136.48c1.57-.68,3.05-.3,4.58.08,1.74.46,3.48.51,5.22.34,2.25-.25,3.86-1.61,5.47-3.05.51-.46.93-.97,1.27-1.61-.08,0-.13-.04-.13,0-.08,0-.13.04-.21.08-1.83,1.23-3.91,1.49-6.02,1.23-1.06-.13-2.04-.55-3.05-.8-1.87-.42-3.65-.34-5.18,1.02-.85.76-1.36,1.74-1.95,2.76v-.04h0ZM86.62-143.94c1.91.63,3.78.76,5.64.08,3.35-1.23,5.3-3.95,7.09-6.83-2.67-.25-5.05.34-7.3,1.7-2.16,1.32-3.65,3.22-5.43,5.05ZM102.41-151.32c-.08-.25-.17-.51-.3-.72-2.16-3.73-4.58-7.26-8.1-9.89-1.53-1.1-3.01-2.38-4.84-2.8-1.91-.46-3.91-.25-5.85,0-.85.08-1.7.21-2.5.51.21.34.51.51.8.63,1.53.63,3.09.97,4.71,1.15,2.71.3,5.26.97,7.55,2.42,2.46,1.57,4.58,3.39,5.47,6.32.08.25.3.3.51.38.97.51,1.83,1.19,2.63,1.95l-.08.04h0ZM107.24-137.49h.21c.42-.68.97-1.23,1.49-1.87.46-.51,1.06-1.02,1.06-1.78,0-1.23.3-2.46.38-3.69.08-.85.3-1.83-.46-2.46-1.32-1.1-2.8-1.83-4.54-1.44-1.74.34-1.83.59-1.36,2.29.17.63.42,1.1.97,1.57,1.36,1.1,2.21,2.59,2.25,4.41v2.97h0ZM67.49-140.16c1.02.46,1.7,1.19,2.42,1.91,1.23,1.23,1.44,3.14.46,4.58-.38.59-.89,1.15-1.36,1.66-1.44,1.66-1.1,4.29.76,5.43-.08-1.95.68-3.52,1.78-5.01.38-.51.76-1.06,1.1-1.61,1.32-2.29,1.7-4.63-.08-6.83-.82-1.02-1.83-1.37-3.01-1.06-.72.17-1.36.51-2.08.93h0ZM124.59-139.06c-.25-.04-.46,0-.68.04-2.67.25-5.13-.42-6.37-3.26-.34-.85-.63-1.7-.93-2.55-.3-.8-.63-1.61-1.19-2.46.04,1.27-.42,2.25-.68,3.26-.51,2.21-.42,4.33,1.32,6.11.59.63,1.36,1.1,2.25.89,1.23-.25,2.42-.25,3.61.21,1.74.63,2.97-.46,2.71-2.21l-.04-.04h0ZM122.05-155.78c.93,0,1.66-.3,2.29-.93.8-.8.85-.97,0-1.78-1.49-1.44-3.26-2.46-5.22-3.18-.59-.21-1.15-.42-1.78-.25-.93.21-1.83.55-2.42,1.36-.34.42-.42.76.25.97.72.21,1.44.55,2.08.97,1.06.72,2.08,1.49,3.18,2.21.51.34,1.02.68,1.61.63h0ZM117.13-162.44c-1.61-.55-3.09-.8-4.67-.72-2.21.17-3.91,1.19-5.13,2.97-.25.34-.38.72-.42,1.19,0,.8-.3,1.44-.97,1.95-.93.68-1.27,1.78-.93,2.8.46-.85.97-1.57,1.7-2.12.72-.55,1.57-.93,2.38-1.32.13-.08.21-.17.3-.3.97-1.4,2.25-2.38,4.03-2.12.76.13,1.02-.13,1.32-.72.46-.93,1.4-1.23,2.46-1.61h-.05ZM126.08-135.71c-4.54,2.97-8.87,2.63-13.15-.08-.13,1.61.38,2.5,1.87,3.01.72.25,1.23.72,1.57,1.4.63,1.32,2.25,1.78,3.56,1.1,2.42-1.23,4.41-3.01,6.15-5.39v-.04h0ZM118.4-142.07c.51,1.1,1.4,1.91,2.46,2.21,2.63.8,5.01.25,7.17-1.4.13-.08.21-.17.25-.34.25-1.44.38-2.93.25-4.46-1.27,1.49-2.21,2.04-4.03,2.38-.51.08-.8.25-1.1.68-.46.63-1.1,1.06-1.87,1.23-1.06.25-2.08.25-3.09-.3h-.04ZM104.61-133.46c-.42.8-.76,1.61-1.27,2.38-.21.34-.38.72-.3,1.15.17,1.02.34,2.04.51,3.05.68,3.56-.34,6.62-2.67,9.25-.89,1.02-2.08,1.66-3.48,2.04.34.17.55,0,.76-.04,3.61-.93,6.15-3.05,7.3-6.71.17-.51.34-1.06.25-1.61-.21-1.27-.42-2.5-.93-3.73-.51-1.19-.63-2.42-.42-3.69.08-.72.3-1.4.3-2.08h-.05ZM70.67-116.45c-.34-1.87.51-3.05,1.83-4.03.25-.17.51-.42.72-.63.63-.55.97-1.23,1.1-2.04.25-1.44-.17-2.67-1.32-3.65-.93-.85-1.91-1.66-1.87-3.18-.38.34-.51.72-.63,1.1-.42,1.27-.63,2.42.51,3.65,1.27,1.36,1.44,2.84.13,4.29-.59.63-1.1,1.36-1.36,2.21-.25.93-.08,1.49.85,2.25l.04.04h-.01ZM36.3-84.54c-.72-.21-1.1.08-1.44.59-.68,1.06-1.4,2.12-2.12,3.14-1.57,2.33-3.18,4.71-4.75,7.04,1.4.97,2.67,2.08,4.29,2.67.38.13.59.04.85-.17,1.02-1.02,1.91-2.12,2.84-3.26,1.95-2.33,3.78-4.79,5.51-7.26.63-.89,1.23-1.83,1.7-2.88-.38,0-.63-.17-.89.21-1.74,2.76-3.91,5.26-5.77,7.89-1.1,1.57-2.25,3.05-3.48,4.54-.21.3-.42.42-.8.25-1.19-.68-2.38-1.36-3.69-2.08,2.59-3.56,5.13-7.09,7.72-10.65l.04-.04h0ZM45.25-141.14c.17-.17.21-.21.3-.25,2.67-3.31,5.68-6.24,8.91-8.91.13-.08.34-.17.3-.38-.13-.51-.42-.89-.89-1.15-.42-.25-.63.08-.89.3-2.21,2-4.16,4.25-6.2,6.45-1.06,1.15-1.49,2.38-1.53,3.99v-.04h0ZM105.63-132.99c0-.63.17-1.19.46-1.7.51-.97.89-1.91.8-3.05-.08-1.19.13-2.42-.17-3.61-.34-1.32-.97-2.5-2.25-3.44.08.68.17,1.19.21,1.74.34,2.25.38,4.5.17,6.75-.13,1.27.21,2.29.72,3.35l.04-.04h0ZM8.21-46.95c1.15-1.32,2.25-2.55,3.35-3.82.13.21,0,.34-.08.42-.97,1.19-1.91,2.33-2.88,3.52-.17.25-.59.46-.17.93,1.66-2.29,3.65-4.29,5.22-6.58-.21-.38-.59-.55-.89-.8-.3-.25-.63-.46-.93-.68-1.53,1.19-4.03,4.25-3.95,4.84,1.19-1.49,2.46-2.8,3.73-4.16.46.34.89.59.89,1.19-.51-.04-.59-.63-1.1-.72-.76,1.1-1.78,2.08-2.71,3.09-.8.85-.89,1.66-.51,2.76h.04,0ZM97.23-128.2c3.56-.8,3.73-.85,5.13-2.55,1.27-1.61,2.21-3.31,1.74-5.39-.55,1.1-1.19,2.12-2,3.05s-1.78,1.74-2.71,2.5c-.76.63-1.49,1.4-2.16,2.33v.04h0ZM56.88-145.55c-.3-.68-.55-1.19-.76-1.7-.13-.38-.34-.46-.72-.46-1.06.04-2.12.08-3.18.08-.21,0-.38.04-.51.21-.89.93-1.78,1.87-2.8,2.97,2.67-.8,5.26-1.06,7.97-1.1h0ZM103.08-150.73c.21-.51.34-1.06.63-1.49.72-.89.8-1.87.8-2.97,0-.97.38-1.83,1.19-2.33.46-.3.68-.68.68-1.15-.04-.89.13-1.7.76-2.55-3.39,2.38-5.34,6.75-4.08,10.48h0ZM127.06-154.12c-1.66,1.7-3.05,3.56-5.6,3.69,2.29,1.7,4.71.68,6.11-.85.17-.17.21-.3.17-.51-.21-.72-.38-1.49-.63-2.33h-.04ZM106.9-134.9c-1.57,2.59-.3,4.25,2.12,4.84-.46-.8-.38-1.66-.3-2.46.04-.46,0-.85-.42-.97-.63-.25-1.06-.68-1.4-1.36v-.04h0ZM55.74-148.1c-.3-.76-.55-1.4-.8-2.08-.89.63-1.66,1.27-2.38,2.08h3.18ZM76.35-131.34c-1.44,2.04-.8,3.61.97,5.64.13-.68-.13-1.27-.42-1.78-.72-1.19-1.02-2.38-.55-3.86Z"/>
    <path class="cls-5" d="M139.45-66.51c0-.38-.08-.68-.46-.85-3.61-1.78-7-3.99-10.86-5.34-1.15-.38-2.21-.89-3.35-1.36.13-.34.21-.55.34-.8.34-.8.3-.93-.51-1.19-.38-.13-.76-.25-1.15-.34-4.67-1.32-9.34-2.55-14.05-3.61-2.59-.59-5.18-1.27-7.85-1.74-.08.72-.51.85-1.1.63-.13-.04-.3-.04-.42-.04-3.14-.13-6.07-.89-8.96-2.16-3.05-1.32-4.63-3.56-4.63-6.88,0-3.95,0-7.89.55-11.84.25-1.74.68-3.39,1.91-4.71.55-.63,1.19-1.06,2.08-1.19,2.29-.38,3.31-1.4,3.78-3.69.08-.42.17-.89.25-1.32.25-1.23.89-1.87,2.12-1.95,2-.13,3.73-.93,5.3-2.16,2.25-1.78,3.56-4.12,3.52-7.04,0-1.36-.34-2.67-.76-3.99-.46-1.36-.21-2.76-.17-4.16.21.21.34.51.51.72.17.25.34.51.59.68,3.18,2.33,6.71,3.05,10.56,2.42,2.08-.38,3.91-1.4,5.6-2.67,2.42-1.83,4.5-3.99,5.64-6.88.89-2.21,1.19-4.54,1.32-6.92.13-3.39-.55-6.71-1.7-9.89-.68-1.83-1.87-3.39-3.39-4.63-2.12-1.74-4.58-2.71-7.13-3.56-1.78-.59-3.61-.93-5.56-.59-3.22.51-5.77,2.04-7.68,4.67-1.19,1.61-1.74,3.48-1.74,5.51-.08,0-.13-.04-.17-.08-.17-.21-.3-.46-.46-.68-1.78-2.71-3.61-5.39-6.15-7.42-2.67-2.12-5.47-3.91-8.83-4.79-2.04-.55-4.16-.93-6.15-1.66-1.27-.42-2.55-.8-3.91-.85-3.61-.21-7.17.17-10.65,1.23-4.12,1.27-7.89,3.18-11.08,6.15-1.02.97-2.16,1.83-3.52,2.33-.21.08-.46.21-.72.17-.68-.17-1.4-.08-2.08-.08-2.59.04-4.08,2-3.52,4.5.3,1.4,1.02,2.5,2.12,3.35-.38,1.06-.72,2.08-1.1,3.14-.8,2.21-1.23,4.54-1.53,6.88-.25,1.87.25,3.65.97,5.34.89,2.12.85,4.16-.3,6.2-1.74,3.18-3.39,6.37-5.13,9.59-.38.72-.46,1.36.08,2,1.15,1.23,2.38,2.29,4.12,2.46,1.02.08,1.27.42,1.27,1.57,0,.51-.34.8-.63,1.1-.72.72-.8,1.27-.25,2.12.34.55.72,1.06,1.06,1.61.42.68.85,1.32.59,2.21-.21.76.08,1.49.55,2.16.51.76.93,1.53,1.27,2.42.46,1.36.63,2.76.76,4.16.21,1.78,1.02,2.12,2.46,2.21,2.08.17,4.16-.13,6.2-.55,1.32-.3,2.59-.59,3.95-1.02v1.1c-.04,3.14.04,6.32-.13,9.46-.17,2.59-.85,3.52-3.22,4.54-3.31,1.44-6.88,1.49-10.43,1.95.51-.89.97-1.7,1.4-2.5.21-.42.42-.85.46-1.32,0-.51-.17-.68-.72-.76-.89-.17-1.7.25-2.55.17-1.15-.08-2.33-.25-3.48-.3-2.8-.04-5.56-.08-8.32.25-2.97.34-5.85.89-8.66,1.83-5.18,1.7-9.59,4.54-12.94,8.87-3.99,5.13-5.56,11.16-5.9,17.52-.13,2.29,0,4.58.25,6.83.42,3.95,1.02,7.85,2.25,11.63.04.17.21.3,0,.55-.68.85-.59,1.83-.34,2.84.08.3,0,.72.38.8.42.13.59-.3.8-.55,1.53-1.66,3.01-3.26,4.58-4.96.17.3.25.55.38.76,4.37,9.51,9.67,18.46,15.66,27.03,4.41,6.28,9.25,12.26,14.43,17.95,4.5,4.92,9.29,9.55,14.51,13.71,3.99,3.14,8.19,5.98,12.81,8.1.59.25,1.1.25,1.7,0,3.95-1.83,7.59-4.2,11.12-6.79,8.02-5.98,14.89-13.19,21.3-20.79,8.61-10.22,16.04-21.3,22.1-33.27,4.41-8.7,8.32-17.56,9.97-27.24.34-2.04.59-4.12.51-6.24l.21-.08.04-.02Z"/>
  </g>
</svg>