<?xml version="1.0" encoding="UTF-8"?>
<svg id="OBJECTS" xmlns="http://www.w3.org/2000/svg" xmlns:xlink="http://www.w3.org/1999/xlink" viewBox="0 0 400 150">
  <defs>
    <style>
      .cls-1 {
        fill: #8e7a64;
      }

      .cls-2 {
        fill: none;
      }

      .cls-3, .cls-4 {
        isolation: isolate;
      }

      .cls-4 {
        opacity: .2;
        stroke: #000;
        stroke-miterlimit: 10;
        stroke-width: .75px;
      }

      .cls-4, .cls-5 {
        fill: #0097b2;
      }

      .cls-6 {
        clip-path: url(#clippath);
      }
    </style>
    <clipPath id="clippath">
      <rect class="cls-2" x="3.17" y="4.38" width="140.46" height="141.24"/>
    </clipPath>
  </defs>
  <g class="cls-3">
    <path class="cls-5" d="M151.15,25.2l14.4,34.56h.24l13.98-34.56h3.12l-17.04,42h-3.6l-17.58-42h6.48Z"/>
    <path class="cls-5" d="M193.39,53.52c0,2.44.36,4.44,1.08,6,.72,1.56,1.62,2.78,2.69,3.66s2.24,1.49,3.5,1.83c1.26.34,2.44.51,3.56.51,1,0,1.9-.11,2.72-.33.82-.22,1.61-.53,2.36-.93.76-.4,1.5-.9,2.24-1.5.74-.6,1.53-1.26,2.36-1.98l1.92,1.92c-1.6,1.68-3.48,2.97-5.64,3.87-2.16.9-4.52,1.35-7.08,1.35s-4.93-.45-6.87-1.35c-1.94-.9-3.54-2.1-4.8-3.6s-2.2-3.2-2.82-5.1c-.62-1.9-.93-3.85-.93-5.85,0-2.4.36-4.55,1.08-6.45.72-1.9,1.72-3.52,3-4.86,1.28-1.34,2.78-2.36,4.5-3.06,1.72-.7,3.6-1.05,5.64-1.05,1.92,0,3.74.32,5.46.96s3.23,1.6,4.53,2.88,2.33,2.9,3.09,4.86c.76,1.96,1.14,4.28,1.14,6.96v1.26h-22.74ZM210.85,51.12c0-3.88-.79-6.93-2.35-9.15-1.57-2.22-3.76-3.33-6.58-3.33-1.47,0-2.74.35-3.81,1.05-1.07.7-1.96,1.63-2.65,2.79-.7,1.16-1.21,2.49-1.55,3.99-.34,1.5-.51,3.05-.51,4.65h17.46Z"/>
    <path class="cls-5" d="M239.66,44.04c0-.52-.14-1.08-.42-1.68-.28-.6-.72-1.15-1.32-1.65-.6-.5-1.33-.92-2.21-1.26s-1.91-.51-3.11-.51-2.19.17-2.99.51-1.43.76-1.91,1.26c-.48.5-.82,1.04-1.02,1.62-.2.58-.3,1.13-.3,1.65,0,1.24.45,2.2,1.35,2.88.9.68,2.02,1.26,3.38,1.74,1.36.48,2.82.94,4.4,1.38s3.04,1.01,4.4,1.71c1.36.7,2.48,1.63,3.38,2.79.9,1.16,1.35,2.7,1.35,4.62,0,2.64-.93,4.77-2.79,6.39s-4.63,2.43-8.31,2.43c-2.04,0-3.83-.25-5.37-.75-1.54-.5-2.84-1.17-3.9-2.01-1.06-.84-1.85-1.79-2.37-2.85-.52-1.06-.78-2.15-.78-3.27h3.9c0,.48.15,1.08.45,1.8.3.72.8,1.43,1.5,2.13.7.7,1.6,1.3,2.7,1.8,1.1.5,2.45.75,4.05.75,1.28,0,2.34-.17,3.18-.51.84-.34,1.5-.76,1.98-1.26.48-.5.81-1.05.99-1.65.18-.6.27-1.18.27-1.74,0-1.32-.44-2.36-1.32-3.12-.88-.76-1.97-1.39-3.29-1.89-1.31-.5-2.74-.96-4.27-1.38-1.54-.42-2.96-.97-4.28-1.65-1.32-.68-2.41-1.58-3.29-2.7-.88-1.12-1.32-2.64-1.32-4.56,0-1.4.26-2.63.78-3.69.52-1.06,1.23-1.95,2.12-2.67.9-.72,1.95-1.26,3.17-1.62s2.52-.54,3.92-.54c1.48,0,2.86.19,4.16.57,1.3.38,2.43.9,3.41,1.56.98.66,1.74,1.45,2.3,2.37.56.92.84,1.92.84,3h-3.41Z"/>
    <path class="cls-5" d="M249.73,39.6v-2.4h5.22v-9.24h5.1v9.24h7.26v2.4h-7.26v19.92c0,.48.02,1.03.06,1.65.04.62.16,1.2.36,1.74.2.54.51.99.93,1.35.42.36,1.01.54,1.77.54.96,0,1.76-.36,2.4-1.08.64-.72,1.16-1.5,1.56-2.34l2.82,2.88c-1.96,1.96-4.18,2.94-6.66,2.94-1.04,0-2.06-.18-3.06-.54s-1.89-.91-2.67-1.65c-.78-.74-1.41-1.69-1.89-2.85-.48-1.16-.72-2.52-.72-4.08v-18.48h-5.22Z"/>
    <path class="cls-5" d="M286.26,36.54c2.92,0,5.18.41,6.78,1.23,1.6.82,2.77,1.89,3.51,3.21.74,1.32,1.17,2.84,1.29,4.56.12,1.72.18,3.48.18,5.28v16.38h-4.86v-2.94c-1.16,1.12-2.64,2.01-4.44,2.67-1.8.66-3.6.99-5.4.99s-3.24-.3-4.56-.9c-1.32-.6-2.42-1.38-3.3-2.34-.88-.96-1.54-2.04-1.98-3.24s-.66-2.42-.66-3.66.24-2.56.72-3.84c.48-1.28,1.2-2.43,2.16-3.45.96-1.02,2.14-1.85,3.54-2.49,1.4-.64,3-.96,4.8-.96s3.51.35,5.13,1.05c1.62.7,2.95,1.69,3.99,2.97v-2.58c0-3.28-.49-5.72-1.48-7.32-.98-1.6-2.78-2.4-5.39-2.4-1.12,0-2.11.14-2.95.42-.84.28-1.6.67-2.26,1.17s-1.28,1.12-1.84,1.86c-.56.74-1.12,1.57-1.69,2.49l-3.08-3.12c.56-.6,1.15-1.2,1.77-1.8.62-.6,1.38-1.14,2.28-1.62.9-.48,1.97-.87,3.21-1.17s2.74-.45,4.5-.45ZM293.17,55.32c-.2-.48-.49-1.04-.87-1.68s-.87-1.26-1.48-1.86c-.6-.6-1.33-1.11-2.17-1.53-.84-.42-1.85-.63-3.01-.63s-2.23.23-3.19.69-1.78,1.06-2.44,1.8-1.17,1.61-1.54,2.61c-.36,1-.54,2.04-.54,3.12,0,1.28.23,2.39.69,3.33.46.94,1.05,1.74,1.78,2.4.72.66,1.53,1.15,2.41,1.47.88.32,1.73.48,2.53.48s1.54-.14,2.32-.42c.78-.28,1.53-.67,2.23-1.17s1.33-1.09,1.9-1.77c.56-.68,1.02-1.42,1.39-2.22v-4.62Z"/>
    <path class="cls-5" d="M187.21,112.68c-.52.6-1.28,1.3-2.28,2.1s-2.25,1.55-3.75,2.25-3.26,1.29-5.28,1.77c-2.02.48-4.31.72-6.87.72-4.04,0-7.52-.63-10.44-1.89s-5.32-2.92-7.2-4.98c-1.88-2.06-3.27-4.42-4.17-7.08-.9-2.66-1.35-5.39-1.35-8.19,0-3.24.56-6.17,1.68-8.79,1.12-2.62,2.7-4.86,4.74-6.72,2.04-1.86,4.49-3.29,7.35-4.29s6.03-1.5,9.51-1.5c2.4,0,4.54.24,6.42.72,1.88.48,3.52,1.14,4.92,1.98,1.4.84,2.57,1.84,3.51,3,.94,1.16,1.71,2.42,2.31,3.78h-4.44c-.28-.84-.77-1.67-1.47-2.49-.7-.82-1.6-1.55-2.7-2.19-1.1-.64-2.36-1.16-3.78-1.56-1.42-.4-2.99-.6-4.71-.6-2.52,0-4.85.46-6.99,1.38-2.14.92-3.99,2.2-5.55,3.84-1.56,1.64-2.77,3.59-3.63,5.85-.86,2.26-1.29,4.75-1.29,7.47,0,2.56.41,5.02,1.23,7.38.82,2.36,2.03,4.44,3.63,6.24,1.6,1.8,3.6,3.24,6,4.32,2.4,1.08,5.16,1.62,8.28,1.62,5.6,0,10.44-1.92,14.52-5.76l1.8,1.62Z"/>
    <path class="cls-5" d="M199.51,118.8h-5.1v-42h5.1v42Z"/>
    <path class="cls-5" d="M214.21,105.12c0,2.44.36,4.44,1.08,6,.72,1.56,1.62,2.78,2.69,3.66s2.24,1.49,3.5,1.83c1.26.34,2.44.51,3.56.51,1,0,1.9-.11,2.72-.33.82-.22,1.61-.53,2.36-.93.76-.4,1.5-.9,2.24-1.5.74-.6,1.53-1.26,2.36-1.98l1.92,1.92c-1.6,1.68-3.48,2.97-5.64,3.87-2.16.9-4.52,1.35-7.08,1.35s-4.93-.45-6.87-1.35c-1.94-.9-3.54-2.1-4.8-3.6s-2.2-3.2-2.82-5.1c-.62-1.9-.93-3.85-.93-5.85,0-2.4.36-4.55,1.08-6.45.72-1.9,1.72-3.52,3-4.86,1.28-1.34,2.78-2.36,4.5-3.06,1.72-.7,3.6-1.05,5.64-1.05,1.92,0,3.74.32,5.46.96s3.23,1.6,4.53,2.88,2.33,2.9,3.09,4.86c.76,1.96,1.14,4.28,1.14,6.96v1.26h-22.74ZM231.67,102.72c0-3.88-.79-6.93-2.35-9.15-1.57-2.22-3.76-3.33-6.58-3.33-1.47,0-2.74.35-3.81,1.05-1.07.7-1.96,1.63-2.65,2.79-.7,1.16-1.21,2.49-1.55,3.99-.34,1.5-.51,3.05-.51,4.65h17.46Z"/>
    <path class="cls-5" d="M255.78,88.14c2.92,0,5.18.41,6.78,1.23,1.6.82,2.77,1.89,3.51,3.21.74,1.32,1.17,2.84,1.29,4.56.12,1.72.18,3.48.18,5.28v16.38h-4.86v-2.94c-1.16,1.12-2.64,2.01-4.44,2.67-1.8.66-3.6.99-5.4.99s-3.24-.3-4.56-.9c-1.32-.6-2.42-1.38-3.3-2.34-.88-.96-1.54-2.04-1.98-3.24s-.66-2.42-.66-3.66.24-2.56.72-3.84c.48-1.28,1.2-2.43,2.16-3.45.96-1.02,2.14-1.85,3.54-2.49,1.4-.64,3-.96,4.8-.96s3.51.35,5.13,1.05c1.62.7,2.95,1.69,3.99,2.97v-2.58c0-3.28-.49-5.72-1.48-7.32-.98-1.6-2.78-2.4-5.39-2.4-1.12,0-2.11.14-2.95.42-.84.28-1.6.67-2.26,1.17s-1.28,1.12-1.84,1.86c-.56.74-1.12,1.57-1.69,2.49l-3.08-3.12c.56-.6,1.15-1.2,1.77-1.8.62-.6,1.38-1.14,2.28-1.62.9-.48,1.97-.87,3.21-1.17s2.74-.45,4.5-.45ZM262.69,106.92c-.2-.48-.49-1.04-.87-1.68s-.87-1.26-1.48-1.86c-.6-.6-1.33-1.11-2.17-1.53-.84-.42-1.85-.63-3.01-.63s-2.23.23-3.19.69-1.78,1.06-2.44,1.8-1.17,1.61-1.54,2.61c-.36,1-.54,2.04-.54,3.12,0,1.28.23,2.39.69,3.33.46.94,1.05,1.74,1.78,2.4.72.66,1.53,1.15,2.41,1.47.88.32,1.73.48,2.53.48s1.54-.14,2.32-.42c.78-.28,1.53-.67,2.23-1.17s1.33-1.09,1.9-1.77c.56-.68,1.02-1.42,1.39-2.22v-4.62Z"/>
    <path class="cls-5" d="M297.12,118.8v-19.74c0-.4-.04-1.04-.12-1.92-.08-.88-.33-1.76-.75-2.64s-1.09-1.65-2.01-2.31c-.92-.66-2.22-.99-3.9-.99-1.04,0-2.05.18-3.03.54-.98.36-1.85.92-2.61,1.68-.76.76-1.36,1.7-1.8,2.82s-.66,2.46-.66,4.02v18.54h-5.1v-30h5.1v3.84h.24l.96-.96c1.4-1.4,2.82-2.35,4.26-2.85,1.44-.5,2.74-.73,3.9-.69,2.64,0,4.68.45,6.12,1.35,1.44.9,2.49,1.96,3.15,3.18.66,1.22,1.05,2.46,1.17,3.72s.18,2.25.18,2.97v19.44h-5.1Z"/>
    <path class="cls-5" d="M314.16,77.04c.64-.64,1.4-.96,2.28-.96s1.64.32,2.28.96.96,1.4.96,2.28-.32,1.64-.96,2.28c-.64.64-1.4.96-2.28.96s-1.64-.32-2.28-.96c-.64-.64-.96-1.4-.96-2.28s.32-1.64.96-2.28ZM319.08,88.8v30h-5.1v-30h5.1Z"/>
    <path class="cls-5" d="M350.46,118.8v-19.74c0-.4-.04-1.04-.12-1.92-.08-.88-.33-1.76-.75-2.64s-1.09-1.65-2.01-2.31c-.92-.66-2.22-.99-3.9-.99-1.04,0-2.05.18-3.03.54-.98.36-1.85.92-2.61,1.68-.76.76-1.36,1.7-1.8,2.82s-.66,2.46-.66,4.02v18.54h-5.1v-30h5.1v3.84h.24l.96-.96c1.4-1.4,2.82-2.35,4.26-2.85,1.44-.5,2.74-.73,3.9-.69,2.64,0,4.68.45,6.12,1.35,1.44.9,2.49,1.96,3.15,3.18.66,1.22,1.05,2.46,1.17,3.72s.18,2.25.18,2.97v19.44h-5.1Z"/>
    <path class="cls-5" d="M386.76,114h-.24c-.68,1.92-1.85,3.32-3.51,4.2-1.66.88-3.61,1.32-5.85,1.32-2.04,0-3.89-.37-5.55-1.11-1.66-.74-3.09-1.8-4.29-3.18s-2.13-3.04-2.79-4.98c-.66-1.94-.99-4.11-.99-6.51s.33-4.5.99-6.42c.66-1.92,1.59-3.56,2.79-4.92,1.2-1.36,2.64-2.41,4.32-3.15,1.68-.74,3.54-1.11,5.58-1.11,2.56,0,4.63.47,6.21,1.41,1.58.94,2.61,2.25,3.09,3.93h.24v-4.68h5.1v29.46c0,2-.19,3.93-.57,5.79s-1.09,3.51-2.13,4.95c-1.04,1.44-2.5,2.59-4.39,3.45-1.88.86-4.34,1.29-7.39,1.29-1.64,0-3.1-.21-4.38-.63-1.28-.42-2.38-.92-3.3-1.5-.92-.58-1.68-1.16-2.28-1.74-.6-.58-1.04-1.05-1.32-1.41l3.27-3c1.08,1.8,2.28,3.24,3.58,4.32,1.3,1.08,3.02,1.62,5.15,1.62,1.2,0,2.34-.18,3.4-.54,1.06-.36,1.99-.94,2.77-1.74.78-.8,1.39-1.84,1.84-3.12.44-1.28.66-2.84.66-4.68v-7.32ZM386.76,101.58c0-1.36-.18-2.68-.54-3.96s-.89-2.41-1.6-3.39c-.7-.98-1.57-1.76-2.62-2.34-1.04-.58-2.23-.87-3.55-.87-.6,0-1.44.13-2.5.39-1.06.26-2.11.83-3.13,1.71s-1.92,2.15-2.68,3.81c-.76,1.66-1.14,3.89-1.14,6.69,0,2.64.31,4.8.93,6.48.62,1.68,1.41,2.98,2.35,3.9.94.92,1.97,1.55,3.07,1.89,1.1.34,2.14.51,3.1.51,1.08,0,2.13-.23,3.13-.69s1.89-1.13,2.65-2.01,1.38-1.96,1.84-3.24.69-2.76.69-4.44v-4.44Z"/>
  </g>
  <g class="cls-6">
    <path class="cls-5" d="M47.63,98.93c3.56-.46,7.09-.51,10.43-1.95,2.38-1.02,3.05-1.95,3.22-4.54.21-3.14.08-6.32.13-9.46v-1.1c-1.36.42-2.67.72-3.95,1.02-2.04.42-4.12.72-6.2.55-1.44-.13-2.25-.46-2.46-2.21-.17-1.4-.3-2.8-.76-4.16-.3-.89-.76-1.7-1.27-2.42-.46-.68-.76-1.4-.55-2.16.25-.89-.17-1.53-.59-2.21-.34-.55-.72-1.06-1.06-1.61-.55-.85-.46-1.4.25-2.12.3-.3.63-.59.63-1.1,0-1.15-.25-1.49-1.27-1.57-1.74-.17-3.01-1.23-4.12-2.46-.55-.63-.46-1.27-.08-2,1.7-3.18,3.35-6.41,5.13-9.59,1.15-2.04,1.23-4.08.3-6.2-.72-1.7-1.23-3.48-.97-5.34.3-2.33.72-4.67,1.53-6.88.38-1.02.72-2.04,1.1-3.14-1.1-.85-1.83-1.95-2.12-3.35-.55-2.5.93-4.46,3.52-4.5.68,0,1.4-.08,2.08.08.25.04.46-.08.72-.17,1.36-.51,2.46-1.36,3.52-2.33,3.18-2.97,6.96-4.92,11.08-6.15,3.48-1.06,7.04-1.4,10.65-1.23,1.32.08,2.63.42,3.91.85,2,.68,4.12,1.1,6.15,1.66,3.35.89,6.15,2.67,8.83,4.79,2.59,2.04,4.37,4.71,6.15,7.42.13.21.3.46.46.68,0,0,.08,0,.17.08,0-2.04.55-3.86,1.74-5.51,1.91-2.59,4.46-4.12,7.68-4.67,1.91-.3,3.73,0,5.56.59,2.55.85,5.01,1.83,7.13,3.56,1.53,1.27,2.71,2.8,3.39,4.63,1.19,3.18,1.87,6.49,1.7,9.89-.08,2.33-.42,4.71-1.32,6.92-1.15,2.88-3.22,5.05-5.64,6.88-1.7,1.23-3.48,2.29-5.6,2.67-3.82.68-7.38-.04-10.56-2.42-.25-.17-.42-.42-.59-.68-.17-.21-.3-.46-.51-.72-.08,1.4-.3,2.76.17,4.16.42,1.27.76,2.63.76,3.99,0,2.93-1.27,5.26-3.52,7.04-1.53,1.23-3.26,2-5.3,2.16-1.23.08-1.87.72-2.12,1.95-.08.42-.17.89-.25,1.32-.46,2.29-1.49,3.31-3.78,3.69-.89.13-1.49.59-2.08,1.19-1.23,1.36-1.66,2.97-1.91,4.71-.59,3.91-.59,7.85-.55,11.84,0,3.26,1.57,5.51,4.63,6.88,2.88,1.23,5.85,2.04,8.96,2.16.13,0,.3,0,.42.04.59.21,1.02.08,1.1-.63,2.67.42,5.26,1.15,7.85,1.74,4.71,1.06,9.38,2.29,14.05,3.61.38.13.76.21,1.15.34.8.25.85.38.51,1.19-.08.25-.21.51-.34.8,1.1.46,2.21.97,3.35,1.36,3.82,1.36,7.21,3.56,10.86,5.34.38.17.42.46.46.85.04,2.08-.17,4.16-.51,6.24-1.66,9.67-5.56,18.59-9.97,27.24-6.07,11.92-13.49,23-22.1,33.27-6.41,7.64-13.28,14.81-21.3,20.79-3.48,2.59-7.13,4.96-11.12,6.79-.59.25-1.1.3-1.7,0-4.63-2.12-8.83-4.96-12.81-8.1-5.26-4.16-10.01-8.78-14.51-13.71-5.18-5.68-10.01-11.63-14.43-17.95-5.98-8.57-11.29-17.52-15.66-27.03-.13-.25-.25-.46-.38-.76-1.57,1.7-3.05,3.35-4.58,4.96-.21.25-.38.63-.8.55-.38-.08-.34-.51-.38-.8-.25-.97-.34-1.95.34-2.84.17-.21,0-.38,0-.55-1.23-3.78-1.83-7.68-2.25-11.63-.25-2.29-.38-4.58-.25-6.83.34-6.37,1.91-12.35,5.9-17.52,3.35-4.33,7.76-7.17,12.94-8.87,2.8-.93,5.73-1.49,8.66-1.83,2.76-.34,5.56-.3,8.32-.25,1.15,0,2.33.17,3.48.3.85.08,1.66-.34,2.55-.17.55.08.72.3.72.76s-.21.93-.46,1.32c-.46.8-.93,1.66-1.4,2.5l-.21.08-.04.02ZM67.87,66.93c.38.25.51.59.68.89.97,1.32,2.71,1.36,3.78.13.3-.34.42-.72.34-1.23-.21-1.27-.89-2.16-2-2.8-1.61-.93-1.95-2.16-1.15-3.86.38-.8.97-1.44,1.49-2.12.51-.68.55-1.36.21-2.16-.38-.93-1.15-1.53-1.91-2.12-2.12-1.57-2.46-4.2-.85-6.28.46-.59.93-1.15,1.32-1.78.34-.51.51-1.1.42-1.74-.21-1.91-1.61-2.93-2.97-3.99-.3-.21-.68-.25-1.06-.21-.51,0-1.06.04-1.57-.04-3.09-.59-5.47-2.21-7.21-4.79-.21-.3-.38-.38-.72-.38-.8,0-1.66.08-2.46.17-1.83.25-3.65.42-5.39,1.02-.34.13-.68.25-.93.55-.76.93-1.49,1.91-2.29,2.84-.42.46-.46.93-.34,1.53.3,1.23.59,2.46.89,3.69.55,2.08.46,4.08-.55,6.07-1.57,3.09-3.39,6.07-5.01,9.12-.55,1.1-.51,1.4.46,2.21,1.02.85,2.21,1.27,3.48,1.53.68.13,1.1.59,1.27,1.27.25,1.06-.13,1.87-.8,2.63-.46.51-.25,1.1.38,1.27.38.08.8.13,1.15-.13.85-.55,1.61-.38,2.38.21.42.3.89.55,1.32.85.93.72,1.95,1.23,3.26.97-1.32,2.29-2.42,4.75-5.6,5.05.89,1.74,1.32,3.56,1.53,5.43.17,1.44.59,1.91,2.04,1.95,1.15,0,2.29-.13,3.39-.3,2.08-.34,4.16-.63,6.15-1.32,2.16-.76,4.29-1.57,6.32-2.55,2.67-1.32,5.64-2.33,7.3-5.22,0,.51-.25.8-.46,1.15-.68,1.1-1.87,1.66-2.76,2.59-.93.97-2.04,1.74-2.97,2.71-1.95,2.08-3.86,4.25-5.77,6.37-.21.25-.46.51-.46.89,0,1.83-.13,3.61-.25,5.43-.17,2.5-1.32,4.25-3.69,5.26-3.35,1.4-6.92,1.53-10.48,1.87-.97.08-2.04,1.32-1.91,2.33.25,1.91.46,3.78.68,5.68.21,2,.42,3.99.63,5.98.25,2.46.59,4.92.85,7.38.25,2.5.51,5.01.76,7.55.3,2.55.55,5.13.89,7.68.13.97.13,2,.59,2.97,4.75,9.8,9.46,19.6,14.17,29.36,1.19,2.42,2.12,4.96,4.12,6.92,1.66,1.61,3.18,3.44,4.79,5.22,1.7-1.87,3.35-3.65,4.96-5.47.59-.68,1.32-1.32,1.74-2.12.72-1.23,1.23-2.59,1.87-3.86,4.16-8.61,8.27-17.23,12.43-25.84.72-1.49,1.53-2.93,2.12-4.5.68-1.74.51-3.61.76-5.43.3-2,.42-4.03.63-6.07s.46-4.08.68-6.11c.21-2,.42-3.99.63-5.98.21-2.08.46-4.12.72-6.2.21-2.04.46-4.03.72-6.07.13-1.19.25-2.42.38-3.65-1.4,0-2.67-.17-3.99-.3-2.84-.3-5.47-1.23-7.89-2.67-2.16-1.32-3.31-3.26-3.56-5.77-.25-2.33-.17-4.67-.08-7,.08-2.67.17-5.39.93-8.02.08-.34,0-.51-.25-.76-.76-.63-1.36-1.4-1.66-2.42-.38-1.4-.34-2.8.17-4.16.34-.89.13-1.61-.51-2.25-1.4-1.27-2.38-2.67-2.04-4.79-.89.68-1.78,1.15-2.67,1.57-.46.25-.72.59-.72,1.1-.04.89-.25,1.7-.46,2.55-.34,1.36-.76,2.67-1.27,3.95-.08.21-.17.46-.46.34-.21-.08-.13-.25-.08-.42.8-2.21,1.19-4.54,1.66-6.83.08-.42.3-.68.68-.89.76-.42,1.53-.8,2.25-1.32,2.67-1.91,4.03-4.71,4.84-7.8.59-2.21.72-4.46-.25-6.54-1.23-2.63-4.25-4.03-6.58-.89-1.02,1.4-1.7,3.01-2.38,4.58-.08.17-.08.3,0,.42.59,1.1.97,2.25.63,3.56,0,.08.08.21.08.34.46,1.74-.08,3.31-1.53,4.37-.63.46-1.32.85-1.78,1.44-.93,1.23-.93,2,.08,2.84,1.36,1.1,1.27,2.8.46,4.03-.8,1.23-1.78,2.38-3.52,2.12-.59-.08-1.19-.25-1.78-.46-.89-.3-1.7-1.36-1.7-2.29l.25-.04v-.02ZM57.09,195.67c4.92,4.2,9.97,8.02,15.7,10.86.55.25.97.25,1.49,0,6.2-3.09,11.67-7.3,16.85-11.84,4.54-4.03,8.78-8.4,12.77-12.94.72-.8,1.53-1.57,1.95-2.59,1.66-3.99,3.18-8.06,4.67-12.13,3.91-10.78,7.59-21.64,11.12-32.54,2.67-8.27,5.34-16.59,7.3-25.07.3-1.36.34-1.36-.97-1.87-1.15-.42-2.25-.97-3.48-1.27-.42.89-.85,1.74-1.27,2.59-6.66,13.28-14.05,26.14-22.36,38.44-8.4,12.43-17.52,24.31-27.92,35.13-2.59,2.71-5.34,5.3-8.19,7.72-2.38,2.04-4.88,3.91-7.59,5.64l-.04-.13h0ZM30.57,121.5c-.08.08-.13.08-.17.13-2.08,2.5-4.2,5.01-6.28,7.47-.25.3-.17.51-.04.8.68,2.12,1.36,4.29,2.04,6.41,4.58,13.83,9.12,27.66,14.51,41.2.34.85.59,1.78,1.23,2.55.93,1.1,1.87,2.21,2.84,3.26,3.56,4.03,7.38,7.8,11.37,11.42.42.38.68.34,1.15.04,4.33-2.84,8.19-6.24,11.92-9.76,1.32-1.27,2.59-2.59,3.91-3.86-16.72-18.12-30.51-38.19-42.39-59.66h-.09ZM29.85,118.15c5.56-7.55,11.75-14.72,16.34-23.04-.17-.04-.25-.13-.38-.13-.46,0-.93,0-1.4-.08-.55-.08-.8.13-1.1.59-2.67,4.29-5.68,8.32-9.04,12.09-1.7,1.95-1.4,1.57-3.18.68-1.27-.68-2.5-1.49-3.65-2.46,2.38-3.65,5.05-7.09,7.38-10.82-1.83.13-3.48.38-5.18.76-.3.08-.38.25-.46.46-.72,1.53-1.44,3.05-2.38,4.46-.21.34-.38.68-.97.97.97-2,2.04-3.69,2.84-5.6-.46-.04-.72.13-.89.46s-.34.68-.51.97c-2.55,4.08-5.22,8.1-8.23,11.84-.3.34-.46.85-.97.97,1.4-2.42,3.22-4.54,4.79-6.83,1.57-2.29,3.05-4.63,4.41-7.04-5.94,1.7-10.99,4.75-14.6,9.8-3.22,4.46-4.63,9.55-5.05,15.06,3.56-2.93,6.2-6.58,9.51-9.63-.17.38-.38.68-.63.97-1.02,1.15-2,2.33-3.05,3.48-1.78,1.91-3.48,3.91-5.51,5.56-.38.34-.38.68-.21,1.19,6.49-6.28,12.3-13.07,17.52-20.36,0,.25-.13.42-.25.59-2.63,4.03-5.6,7.8-8.78,11.46-2.67,3.09-5.39,6.2-8.53,8.87-.17.13-.25.3-.25.51.04,1.57.13,3.18.17,4.75,0,.13.08.25.21.63.13-.25.17-.38.25-.46,1.06-1.15,2.12-2.29,3.22-3.44.17-.17.38-.42.68-.25.76.46,1.57.93,2.16,1.61-1.57,2.55-3.56,4.63-5.43,6.88-.13.17-.38.25-.34.55.17.76.3,1.53.51,2.5,1.74-2.33,3.78-4.16,5.39-6.37,0,.38-.17.63-.38.85-1.49,1.83-2.93,3.61-4.41,5.43-.25.34-.72.68-.21,1.23,2.29-2.84,4.67-5.51,6.62-8.57-.13-.13-.21-.38-.46-.38-.42.3-.51.93-1.1,1.1.46-.59.55-1.49,1.4-1.66.72.55.68,1.1.21,1.83-1.87,2.8-4.16,5.26-6.2,7.89-.17.21-.46.38-.42.68.17.76.34,1.49.55,2.29,6.79-6.28,11.88-13.83,17.78-20.71-.21.42-.46.8-.76,1.19-2.25,2.84-4.58,5.6-6.79,8.49-3.18,4.16-6.49,8.19-10.27,11.75-.63.59-.8,1.61-.42,2.5.17,0,.25-.13.34-.25,1.91-2.16,3.82-4.29,5.73-6.49,4.92-5.68,9.8-11.42,14.51-17.31,3.52-4.41,7.04-8.74,10.43-13.24,2.5-3.31,5.01-6.62,7.09-10.22.34-.55.68-1.15.8-1.78-.85-.34-1.32-.21-1.66.34-1.57,2.63-3.26,5.18-4.96,7.68-3.01,4.41-6.37,8.57-9.72,12.68-.72.89-1.36,1.83-2.29,2.5h.21v-.02ZM107.03,177.97c.21-.25.46-.51.68-.8,5.85-7.21,11.16-14.85,15.87-22.87,5.77-9.84,10.56-20.15,13.41-31.27.76-3.01,1.27-6.02,1.7-9.12.13-.76-.21-1.19-.85-1.53-1.83-.97-3.65-2-5.51-2.97-.76-.42-1.57-.76-2.42-1.15-2.88,11.97-6.75,23.55-10.52,35.13-3.82,11.63-7.97,23.08-12.39,34.54l.04.04h0ZM115.35,101.47c-11.12,23.12-22.19,46.16-33.27,69.16.08.04.17.08.21.13,16.72-20.58,30.93-42.73,42.26-66.78l-.34-.17c-2.97-.8-5.94-1.61-8.87-2.38v.04h0ZM37.27,113.14c-.21.08-.3.25-.42.42-1.74,2.21-3.48,4.41-5.26,6.58-.42.51-.46.85-.13,1.49,9.08,16.17,19.22,31.57,30.81,46.04.85,1.06,1.74,2.08,2.59,3.14.04,0,.08-.08.17-.08-9.21-19.18-18.37-38.4-27.71-57.54l-.04-.04h0ZM40.03,177.97c-6.02-15.78-11.59-31.69-16.63-47.82-.13.04-.21.04-.21.08-2.38,2.76-4.75,5.47-7.13,8.23-.3.34-.34.63-.17,1.06.76,1.57,1.44,3.22,2.25,4.79,5.18,10.39,11.37,20.15,18.46,29.32,1.15,1.49,2.29,2.88,3.44,4.37v-.04ZM114.71,101.35c-4.25-1.06-8.4-2.21-12.64-3.05-1.44,12.77-2.93,25.5-4.37,38.19,5.73-11.67,11.2-23.47,17.01-35.17v.04ZM51.7,20.81c1.66.68,2.93,1.7,3.99,3.01.3.38.63.68,1.02.97,1.02.76,2.04,1.49,3.39,1.49,1.06,0,1.53-.89,2.21-1.49,2.76-2.38,6.02-2.5,8.96-.17,2.55,2,5.22,3.56,8.53,3.78,1.66.08,3.35.38,4.88-.63.55-.38,1.19-.59,1.83-.8,2.76-1.06,5.51-2.12,8.53-1.91.89.08,1.78.25,2.67.42-.21-.46-.51-.76-.89-.97-2.71-1.87-5.73-2.59-8.96-2.67-2.25-.04-4.5.42-6.66.97-1.78.46-3.61.68-5.47.46-1.95-.21-3.48-1.4-5.01-2.5-1.44-1.06-2.76-2.29-4.5-2.84-3.35-1.06-6.62-.59-9.84.51-1.66.59-3.09,1.66-4.79,2.42l.13-.04h0ZM59.98,31.55c.13.42.42.68.63.97,1.57,1.95,4.54,3.52,7.55,2.12,1.83-.85,3.69-.51,5.43.42.55.3,1.1.68,1.61,1.06,1.87,1.36,3.95,1.49,6.15,1.06,2.88-.55,4.88-2.29,6.75-4.41,2.5-2.88,5.64-4.67,9.59-4.63,1.36,0,2.67.08,4.08.3-.17-.17-.3-.34-.42-.46-.08-.08-.21-.21-.34-.3-2.8-1.91-5.85-2.5-9.12-1.87-2.29.42-4.46,1.27-6.54,2.38-2.42,1.27-4.75,2.63-7.38,3.44-2,.63-4.03.93-6.07.51-1.44-.3-2.8-.8-4.16-1.4-2.76-1.19-5.34-.93-7.8.76l.04.04h-.01ZM87.05,74.45c.13-.21.17-.38.25-.51.89-1.57,1.87-3.05,3.99-3.14,1.23-.04,2.21-.68,2.63-1.95.21-.68.38-1.32.46-2.04.21-2.12.76-2.8,2.8-3.44.72-.21,1.49-.42,2.08-.89,2.16-1.61,3.26-3.86,3.78-6.45.46-2.25-.51-4.29-.68-6.54-1.02,1.32-2.42,1.74-3.91,1.95-.63.08-1.15.46-1.44,1.06-.55,1.02-.8,2.12-.97,3.22-.21,1.57-.55,3.05-1.7,4.25-1.32,1.32-2.93,2.16-4.63,2.71-1.74.55-2.71,1.74-3.35,3.35-.38.97-.72,1.95-1.02,2.93-.42,1.61-.46,4.08,1.74,5.43l-.04.04h.01ZM53.74,26.97c-.97-1.7-1.83-2.42-3.61-2.88-.63-.17-1.36-.25-1.87.25-.46.46-.42,1.4,0,2.16.21.38.51.72.85,1.06-.21.17-.38.13-.55,0-.68-.42-1.49-1.87-1.1-2.88.25-.63.59-1.1,1.32-1.23,1.87-.3,3.35.42,4.58,1.74.93,1.02,1.61,2.21,2.04,3.52.51,1.49,1.1,2.97,1.78,4.37,1.19,2.46,3.09,4.2,5.64,5.26,1.23.51,2.5.89,3.82.46.76-.21,1.44-.63,2.21-.89,1.78-.63,3.44-.59,4.84.89.34.38.8.68,1.23.93,4.5,2.8,8.23,1.1,10.22-3.35-.76.42-1.53.76-2.38.97-2.04.55-4.03,1.02-6.11.17-1.1-.46-2.04-1.15-3.01-1.74-1.7-.97-3.48-1.4-5.39-.55-2.33,1.06-4.5.51-6.49-.89-1.49-1.02-2.5-2.46-3.22-4.12-.63-1.36-1.23-2.76-1.95-4.08-1.02-1.87-2.29-3.44-4.16-4.46-1.74-.93-3.56-1.23-5.39-.38-1.02.46-1.61,1.32-1.49,2.5.08,1.36.55,2.55,1.57,3.44.68.59.68,1.19.42,1.95-.55,1.66-1.02,3.35-1.57,5.01,2.33-2.29,4.46-4.75,6.92-6.92-1.02-.46-1.83.25-2.71.3.42-1.02,1.44-1.23,3.56-.8v.17h0ZM45.42,102.15c-.25.3-.38.46-.51.63-2.21,3.14-4.54,6.24-6.92,9.25-.3.34-.17.59,0,.93,3.56,7.47,7.13,14.98,10.73,22.44.17.38.42.76.68,1.32-1.32-11.63-2.63-23.04-3.99-34.58h0ZM104.27,38.6c-.72,1.61-1.83,2.84-3.18,3.82-1.06.76-2.29,1.27-3.48,1.83-1.87.89-3.22,2.25-3.95,4.25-.25.68-.42,1.36-.63,2.04-.42,1.57-1.1,3.01-2.25,4.2-1.4,1.44-2.93,2.71-5.05,2.88-.42,0-.68.25-.89.63-.38.68-.8,1.32-1.36,1.87-.59.59-.63,1.27-.55,2.04.25,1.78,1.7,2.76,2.71,4.12.63-2.16,1.91-3.56,4.03-4.25,1.23-.38,2.38-.97,3.39-1.78,1.7-1.36,2.16-3.26,2.5-5.3.3-1.7.76-3.44,1.95-4.79.85-.93,1.78-1.83,2.71-2.67,2.59-2.38,4.75-4.92,3.99-8.91l.04.04h.01ZM56.37,17.68c1.7-.68,3.31-1.02,4.92-1.19,1.87-.17,3.73,0,5.47.59,1.66.59,3.01,1.66,4.29,2.8,2.76,2.46,5.85,3.26,9.51,2.38,3.01-.72,6.07-1.36,9.25-.97,2.76.34,5.26,1.15,7.51,2.76.51.38.72.97,1.36,1.53-.21-.38-.3-.59-.38-.8-1.74-3.26-4.63-5.09-7.97-6.32-2.08-.76-4.29-.85-6.45-1.36-1.06-.25-2.25-.42-3.05-1.23-.42-.42-.76-.46-1.32-.3-3.35.97-6.75.97-10.1,0-2.63-.76-5.26-1.1-7.97-.42-1.78.46-3.52.93-5.05,2.46v.08h0ZM103.17,32.69c-.85,2.33-2.16,4.29-3.52,6.2-1.66,2.38-3.86,4.08-6.66,4.84-2.38.63-4.75.34-7.13-.25-.85-.21-1.66-.42-2.59,0,.89.3,1.57.8,2.16,1.36,1.7,1.57,1.87,3.69,1.87,5.77s-.46,4.08-1.44,5.94c-.04.13-.21.21,0,.42.8-.04,1.57-.34,2.25-.8,2.42-1.57,3.86-3.78,4.5-6.58.68-2.88,2.38-4.96,5.05-6.24,1.23-.55,2.42-1.19,3.44-2.08,3.05-2.67,3.61-5.01,2.08-8.66v.08h0ZM82.13,29.18c-.63-.17-1.19-.17-1.74-.25-1.4-.13-2.8-.21-4.16-.68-1.91-.68-3.52-1.78-5.09-2.97-1.7-1.27-3.52-1.87-5.64-1.27-1.44.38-2.5,1.27-3.56,2.25-.72.68-1.53.89-2.55.68-.72-.17-1.32-.55-2.12-.8.85,1.78,1.61,3.44,2.38,5.13.25-.17.42-.25.59-.34.17-.08.34-.21.51-.34,2-1.15,4.12-1.36,6.28-.63,1.06.38,2.08.8,3.09,1.19,1.32.46,2.71.89,4.12.76,2.8-.25,5.26-1.36,7.85-2.71h.04ZM76.82,49.45c.51-1.44,1.32-2.59,2-3.82.51-.85,1.23-1.49,2.16-1.87.21-.08.42-.13.55-.34.42-.85,1.06-1.57,1.61-2.29,1.15-1.49,2.59-2.5,4.58-2.46,1.53,0,2.97.42,4.41.8,2.25.55,4.41.3,6.28-1.06,2.38-1.7,3.86-4.08,4.46-6.96.21-1.06-.34-1.95-1.4-2.21-.42-.13-.8-.17-1.23-.3s-.63,0-.8.38c-.85,2.04-2.33,3.61-3.95,5.05-.93.85-2,1.53-3.26,1.87-1.87.51-3.73.38-5.56-.08-.3-.08-.59-.21-.8.21-.3.63-.63,1.27-1.02,1.87-1.32,2-2.97,3.44-5.51,3.56-.38,0-.76-.17-1.19,0,.63,1.36.55,2.67-.08,4.03-.34.72-.68,1.49-.97,2.25-.17.38-.38.8-.25,1.36h-.01ZM105.71,29.94c1.83.21,2.93.59,4.16,1.53.59.42,1.02.93,1.1,1.7.13,1.23-.13,2.46-.25,3.69-.17,1.49-.13,2.97.76,4.2,2.16,3.05,5.26,4.29,8.87,4.2,1.49,0,2.93-.63,4.33-1.23,2.25-.97,3.14-2.8,3.44-5.18-.8.46-1.49.97-2.29,1.19-.51.17-.68.38-.68.93,0,1.7-1.02,2.59-2.67,2.42-.51-.04-.93-.25-1.4-.46-.51-.21-1.02-.34-1.57-.17-1.7.46-3.18.13-4.29-1.36-.8-1.06-1.15-2.29-1.23-3.61-.13-1.4.34-2.67.8-3.99.59-1.7.13-3.05-1.15-4.2-.93-.85-2.08-1.36-3.31-1.57-1.7-.3-3.73.55-4.54,1.87l-.08.04h0ZM127.91,28.62c-.21.17-.34.34-.46.46-.97.85-2.04,1.53-3.39,1.49-1.87,0-3.31-.97-4.5-2.29-1.4-1.57-2.33-3.48-4.03-4.88-3.52-2.93-7.64-1.57-10.01,1.74,1.02-.59,2-.93,3.01-1.23,2.38-.68,4.29,0,5.77,1.91.85,1.06,1.49,2.29,2.16,3.48,1.27,2.21,2.8,4.2,5.13,5.43,2.08,1.1,4.54.76,6.07-1.02.38-.42.72-.93.68-1.53,0-1.19-.21-2.33-.51-3.56h.08ZM72.71,38.89c.17.25.34.46.46.72.72,1.15,1.19,2.38,1.02,3.78-.25,1.7-.93,3.22-1.95,4.58-.8,1.1-.72,2.25.21,3.26.51.55,1.06,1.06,1.53,1.66,1.44,1.78,1.23,4.37-.42,5.9-.55.51-1.19.97-1.7,1.53-1.1,1.15-1.06,2.67.08,3.69,1.78,1.66,1.7,3.91-.25,5.05v.13c1.23.17,1.91-.68,2.55-1.44,1.1-1.36,1.02-2.8-.25-3.99-1.02-.97-1.1-1.91-.3-3.09.55-.85,1.4-1.32,2.16-1.91,1.4-1.15,2.16-3.01.89-4.79-.25-.34-.51-.68-.76-1.02-1.32-1.74-1.4-3.39-.25-5.22.34-.55.76-1.02,1.15-1.57.93-1.36,1.36-2.76.55-4.33-.08-.17-.13-.38-.38-.42-1.7-.46-2.97-1.57-4.33-2.59v.08h0ZM61.12,14.54c.17,0,.21.04.3.04h.3c2.5-.59,4.96-.34,7.42.3,3.26.85,6.49,1.15,9.8.17,2.59-.72,5.22-1.23,7.89-1.1.04,0,.17.04.13-.13-2.29-.59-4.63-1.19-6.92-1.83-1.1-.3-2.21-.63-3.31-.72-3.95-.21-7.8.21-11.59,1.53-1.36.46-2.71.89-3.99,1.7l-.04.04h0ZM123.28,35.84c-.25-.04-.42-.08-.63-.13-2.33-.76-4.12-2.21-5.47-4.29-1.06-1.66-2.04-3.39-3.14-5.05-.8-1.23-1.91-2.33-3.48-2.21-2.21.13-4.29.8-5.73,2.67-.93,1.23-1.53,2.88-1.23,3.99.38-.3.76-.55,1.23-.68.55-.17.59-.76.97-1.06.72-.63,1.4-1.27,2.38-1.49,2.16-.46,4.03.21,5.64,1.57,1.95,1.66,2.84,3.99,3.73,6.32.17.51.38.97.76,1.32,1.36,1.27,4.03.76,5.05-1.02l-.08.04h-.01ZM32.65,107.46c3.18-4.16,6.54-8.14,9.42-12.64-1.06-.25-1.57,0-2.08.85-1.66,2.8-3.78,5.34-5.6,8.06-.08.13-.21.34-.38.34-.55-.08-.93-.42-1.23-.89s.21-.63.38-.93c.21-.42.55-.42.85-.21,1.7-2.12,3.26-4.29,4.75-6.58.25.34.13.46.04.59-1.4,2.12-2.93,4.16-4.5,6.2-.08.13-.21.3-.34.21-.63-.34-.63.25-.89.59.38.17.59.97,1.15.21,1.1-1.66,2.38-3.18,3.52-4.79.8-1.15,1.7-2.29,2.33-3.69h-2.76c-.34,0-.55.21-.72.46-2.46,3.44-4.96,6.83-7.51,10.31,1.19.63,2.38,1.27,3.56,1.91h.01ZM109.87,21.5c.46-.08.85-.17,1.19-.17,2.08,0,3.73.85,5.26,2.16,1.32,1.19,2.16,2.71,3.22,4.08.85,1.06,1.61,1.32,2.93.97,1.15-.3,2-1.02,2.71-1.87,2.04-2.38,2-1.61.3-4.2,0-.04-.08-.08-.17-.17-.13.13-.21.25-.34.42-1.15,1.49-2.88,1.83-4.5.93-.63-.38-1.23-.76-1.78-1.23-1.27-1.06-2.76-1.83-4.33-2.33-1.74-.55-3.22-.13-4.5,1.4h0ZM110.17,39.36c-.55.89-1.15,1.53-1.7,2.25-.38.46-.68.97-.85,1.53-.38,1.19-.17,1.87.85,2.5.46.3.72.68.68,1.23v.97c0,1.19.85,2.12,2,2.42,1.57.42,3.14.3,4.75.25.93,0,1.87-.25,2.88-.85h-.89c-1.19,0-1.44-.17-1.91-1.36-.25-.68-.72-1.1-1.44-1.23-1.87-.38-2.46-1.91-2.16-3.52.04-.25,0-.42-.17-.59-1.06-.93-1.74-2.08-2.04-3.61h0ZM82.47,43.05c1.57-.68,3.05-.3,4.58.08,1.74.46,3.48.51,5.22.34,2.25-.25,3.86-1.61,5.47-3.05.51-.46.93-.97,1.27-1.61-.08,0-.13-.04-.13,0-.08,0-.13.04-.21.08-1.83,1.23-3.91,1.49-6.02,1.23-1.06-.13-2.04-.55-3.05-.8-1.87-.42-3.65-.34-5.18,1.02-.85.76-1.36,1.74-1.95,2.76v-.04h0ZM86.62,35.58c1.91.63,3.78.76,5.64.08,3.35-1.23,5.3-3.95,7.09-6.83-2.67-.25-5.05.34-7.3,1.7-2.16,1.32-3.65,3.22-5.43,5.05ZM102.41,28.2c-.08-.25-.17-.51-.3-.72-2.16-3.73-4.58-7.26-8.1-9.89-1.53-1.1-3.01-2.38-4.84-2.8-1.91-.46-3.91-.25-5.85,0-.85.08-1.7.21-2.5.51.21.34.51.51.8.63,1.53.63,3.09.97,4.71,1.15,2.71.3,5.26.97,7.55,2.42,2.46,1.57,4.58,3.39,5.47,6.32.08.25.3.3.51.38.97.51,1.83,1.19,2.63,1.95l-.08.04h0ZM107.24,42.03h.21c.42-.68.97-1.23,1.49-1.87.46-.51,1.06-1.02,1.06-1.78,0-1.23.3-2.46.38-3.69.08-.85.3-1.83-.46-2.46-1.32-1.1-2.8-1.83-4.54-1.44-1.74.34-1.83.59-1.36,2.29.17.63.42,1.1.97,1.57,1.36,1.1,2.21,2.59,2.25,4.41v2.97h0ZM67.49,39.36c1.02.46,1.7,1.19,2.42,1.91,1.23,1.23,1.44,3.14.46,4.58-.38.59-.89,1.15-1.36,1.66-1.44,1.66-1.1,4.29.76,5.43-.08-1.95.68-3.52,1.78-5.01.38-.51.76-1.06,1.1-1.61,1.32-2.29,1.7-4.63-.08-6.83-.82-1.02-1.83-1.37-3.01-1.06-.72.17-1.36.51-2.08.93h0ZM124.59,40.46c-.25-.04-.46,0-.68.04-2.67.25-5.13-.42-6.37-3.26-.34-.85-.63-1.7-.93-2.55-.3-.8-.63-1.61-1.19-2.46.04,1.27-.42,2.25-.68,3.26-.51,2.21-.42,4.33,1.32,6.11.59.63,1.36,1.1,2.25.89,1.23-.25,2.42-.25,3.61.21,1.74.63,2.97-.46,2.71-2.21l-.04-.04h0ZM122.05,23.74c.93,0,1.66-.3,2.29-.93.8-.8.85-.97,0-1.78-1.49-1.44-3.26-2.46-5.22-3.18-.59-.21-1.15-.42-1.78-.25-.93.21-1.83.55-2.42,1.36-.34.42-.42.76.25.97.72.21,1.44.55,2.08.97,1.06.72,2.08,1.49,3.18,2.21.51.34,1.02.68,1.61.63h0ZM117.13,17.08c-1.61-.55-3.09-.8-4.67-.72-2.21.17-3.91,1.19-5.13,2.97-.25.34-.38.72-.42,1.19,0,.8-.3,1.44-.97,1.95-.93.68-1.27,1.78-.93,2.8.46-.85.97-1.57,1.7-2.12.72-.55,1.57-.93,2.38-1.32.13-.08.21-.17.3-.3.97-1.4,2.25-2.38,4.03-2.12.76.13,1.02-.13,1.32-.72.46-.93,1.4-1.23,2.46-1.61h-.05ZM126.08,43.81c-4.54,2.97-8.87,2.63-13.15-.08-.13,1.61.38,2.5,1.87,3.01.72.25,1.23.72,1.57,1.4.63,1.32,2.25,1.78,3.56,1.1,2.42-1.23,4.41-3.01,6.15-5.39v-.04h0ZM118.4,37.45c.51,1.1,1.4,1.91,2.46,2.21,2.63.8,5.01.25,7.17-1.4.13-.08.21-.17.25-.34.25-1.44.38-2.93.25-4.46-1.27,1.49-2.21,2.04-4.03,2.38-.51.08-.8.25-1.1.68-.46.63-1.1,1.06-1.87,1.23-1.06.25-2.08.25-3.09-.3h-.04ZM104.61,46.06c-.42.8-.76,1.61-1.27,2.38-.21.34-.38.72-.3,1.15.17,1.02.34,2.04.51,3.05.68,3.56-.34,6.62-2.67,9.25-.89,1.02-2.08,1.66-3.48,2.04.34.17.55,0,.76-.04,3.61-.93,6.15-3.05,7.3-6.71.17-.51.34-1.06.25-1.61-.21-1.27-.42-2.5-.93-3.73-.51-1.19-.63-2.42-.42-3.69.08-.72.3-1.4.3-2.08h-.05ZM70.67,63.08c-.34-1.87.51-3.05,1.83-4.03.25-.17.51-.42.72-.63.63-.55.97-1.23,1.1-2.04.25-1.44-.17-2.67-1.32-3.65-.93-.85-1.91-1.66-1.87-3.18-.38.34-.51.72-.63,1.1-.42,1.27-.63,2.42.51,3.65,1.27,1.36,1.44,2.84.13,4.29-.59.63-1.1,1.36-1.36,2.21-.25.93-.08,1.49.85,2.25l.04.04h-.01ZM36.3,94.98c-.72-.21-1.1.08-1.44.59-.68,1.06-1.4,2.12-2.12,3.14-1.57,2.33-3.18,4.71-4.75,7.04,1.4.97,2.67,2.08,4.29,2.67.38.13.59.04.85-.17,1.02-1.02,1.91-2.12,2.84-3.26,1.95-2.33,3.78-4.79,5.51-7.26.63-.89,1.23-1.83,1.7-2.88-.38,0-.63-.17-.89.21-1.74,2.76-3.91,5.26-5.77,7.89-1.1,1.57-2.25,3.05-3.48,4.54-.21.3-.42.42-.8.25-1.19-.68-2.38-1.36-3.69-2.08,2.59-3.56,5.13-7.09,7.72-10.65l.04-.04h0ZM45.25,38.38c.17-.17.21-.21.3-.25,2.67-3.31,5.68-6.24,8.91-8.91.13-.08.34-.17.3-.38-.13-.51-.42-.89-.89-1.15-.42-.25-.63.08-.89.3-2.21,2-4.16,4.25-6.2,6.45-1.06,1.15-1.49,2.38-1.53,3.99v-.04h0ZM105.63,46.53c0-.63.17-1.19.46-1.7.51-.97.89-1.91.8-3.05-.08-1.19.13-2.42-.17-3.61-.34-1.32-.97-2.5-2.25-3.44.08.68.17,1.19.21,1.74.34,2.25.38,4.5.17,6.75-.13,1.27.21,2.29.72,3.35l.04-.04h0ZM8.21,132.57c1.15-1.32,2.25-2.55,3.35-3.82.13.21,0,.34-.08.42-.97,1.19-1.91,2.33-2.88,3.52-.17.25-.59.46-.17.93,1.66-2.29,3.65-4.29,5.22-6.58-.21-.38-.59-.55-.89-.8-.3-.25-.63-.46-.93-.68-1.53,1.19-4.03,4.25-3.95,4.84,1.19-1.49,2.46-2.8,3.73-4.16.46.34.89.59.89,1.19-.51-.04-.59-.63-1.1-.72-.76,1.1-1.78,2.08-2.71,3.09-.8.85-.89,1.66-.51,2.76h.04,0ZM97.23,51.32c3.56-.8,3.73-.85,5.13-2.55,1.27-1.61,2.21-3.31,1.74-5.39-.55,1.1-1.19,2.12-2,3.05s-1.78,1.74-2.71,2.5c-.76.63-1.49,1.4-2.16,2.33v.04h0ZM56.88,33.97c-.3-.68-.55-1.19-.76-1.7-.13-.38-.34-.46-.72-.46-1.06.04-2.12.08-3.18.08-.21,0-.38.04-.51.21-.89.93-1.78,1.87-2.8,2.97,2.67-.8,5.26-1.06,7.97-1.1h0ZM103.08,28.79c.21-.51.34-1.06.63-1.49.72-.89.8-1.87.8-2.97,0-.97.38-1.83,1.19-2.33.46-.3.68-.68.68-1.15-.04-.89.13-1.7.76-2.55-3.39,2.38-5.34,6.75-4.08,10.48h0ZM127.06,25.4c-1.66,1.7-3.05,3.56-5.6,3.69,2.29,1.7,4.71.68,6.11-.85.17-.17.21-.3.17-.51-.21-.72-.38-1.49-.63-2.33h-.04ZM106.9,44.62c-1.57,2.59-.3,4.25,2.12,4.84-.46-.8-.38-1.66-.3-2.46.04-.46,0-.85-.42-.97-.63-.25-1.06-.68-1.4-1.36v-.04h0ZM55.74,31.43c-.3-.76-.55-1.4-.8-2.08-.89.63-1.66,1.27-2.38,2.08h3.18ZM76.35,48.18c-1.44,2.04-.8,3.61.97,5.64.13-.68-.13-1.27-.42-1.78-.72-1.19-1.02-2.38-.55-3.86Z"/>
    <path class="cls-4" d="M139.45,113.01c0-.38-.08-.68-.46-.85-3.61-1.78-7-3.99-10.86-5.34-1.15-.38-2.21-.89-3.35-1.36.13-.34.21-.55.34-.8.34-.8.3-.93-.51-1.19-.38-.13-.76-.25-1.15-.34-4.67-1.32-9.34-2.55-14.05-3.61-2.59-.59-5.18-1.27-7.85-1.74-.08.72-.51.85-1.1.63-.13-.04-.3-.04-.42-.04-3.14-.13-6.07-.89-8.96-2.16-3.05-1.32-4.63-3.56-4.63-6.88,0-3.95,0-7.89.55-11.84.25-1.74.68-3.39,1.91-4.71.55-.63,1.19-1.06,2.08-1.19,2.29-.38,3.31-1.4,3.78-3.69.08-.42.17-.89.25-1.32.25-1.23.89-1.87,2.12-1.95,2-.13,3.73-.93,5.3-2.16,2.25-1.78,3.56-4.12,3.52-7.04,0-1.36-.34-2.67-.76-3.99-.46-1.36-.21-2.76-.17-4.16.21.21.34.51.51.72.17.25.34.51.59.68,3.18,2.33,6.71,3.05,10.56,2.42,2.08-.38,3.91-1.4,5.6-2.67,2.42-1.83,4.5-3.99,5.64-6.88.89-2.21,1.19-4.54,1.32-6.92.13-3.39-.55-6.71-1.7-9.89-.68-1.83-1.87-3.39-3.39-4.63-2.12-1.74-4.58-2.71-7.13-3.56-1.78-.59-3.61-.93-5.56-.59-3.22.51-5.77,2.04-7.68,4.67-1.19,1.61-1.74,3.48-1.74,5.51-.08,0-.13-.04-.17-.08-.17-.21-.3-.46-.46-.68-1.78-2.71-3.61-5.39-6.15-7.42-2.67-2.12-5.47-3.91-8.83-4.79-2.04-.55-4.16-.93-6.15-1.66-1.27-.42-2.55-.8-3.91-.85-3.61-.21-7.17.17-10.65,1.23-4.12,1.27-7.89,3.18-11.08,6.15-1.02.97-2.16,1.83-3.52,2.33-.21.08-.46.21-.72.17-.68-.17-1.4-.08-2.08-.08-2.59.04-4.08,2-3.52,4.5.3,1.4,1.02,2.5,2.12,3.35-.38,1.06-.72,2.08-1.1,3.14-.8,2.21-1.23,4.54-1.53,6.88-.25,1.87.25,3.65.97,5.34.89,2.12.85,4.16-.3,6.2-1.74,3.18-3.39,6.37-5.13,9.59-.38.72-.46,1.36.08,2,1.15,1.23,2.38,2.29,4.12,2.46,1.02.08,1.27.42,1.27,1.57,0,.51-.34.8-.63,1.1-.72.72-.8,1.27-.25,2.12.34.55.72,1.06,1.06,1.61.42.68.85,1.32.59,2.21-.21.76.08,1.49.55,2.16.51.76.93,1.53,1.27,2.42.46,1.36.63,2.76.76,4.16.21,1.78,1.02,2.12,2.46,2.21,2.08.17,4.16-.13,6.2-.55,1.32-.3,2.59-.59,3.95-1.02v1.1c-.04,3.14.04,6.32-.13,9.46-.17,2.59-.85,3.52-3.22,4.54-3.31,1.44-6.88,1.49-10.43,1.95.51-.89.97-1.7,1.4-2.5.21-.42.42-.85.46-1.32,0-.51-.17-.68-.72-.76-.89-.17-1.7.25-2.55.17-1.15-.08-2.33-.25-3.48-.3-2.8-.04-5.56-.08-8.32.25-2.97.34-5.85.89-8.66,1.83-5.18,1.7-9.59,4.54-12.94,8.87-3.99,5.13-5.56,11.16-5.9,17.52-.13,2.29,0,4.58.25,6.83.42,3.95,1.02,7.85,2.25,11.63.04.17.21.3,0,.55-.68.85-.59,1.83-.34,2.84.08.3,0,.72.38.8.42.13.59-.3.8-.55,1.53-1.66,3.01-3.26,4.58-4.96.17.3.25.55.38.76,4.37,9.51,9.67,18.46,15.66,27.03,4.41,6.28,9.25,12.26,14.43,17.95,4.5,4.92,9.29,9.55,14.51,13.71,3.99,3.14,8.19,5.98,12.81,8.1.59.25,1.1.25,1.7,0,3.95-1.83,7.59-4.2,11.12-6.79,8.02-5.98,14.89-13.19,21.3-20.79,8.61-10.22,16.04-21.3,22.1-33.27,4.41-8.7,8.32-17.56,9.97-27.24.34-2.04.59-4.12.51-6.24l.21-.08.04-.02Z"/>
    <path class="cls-1" d="M77.54,60.83c0-.63.3-.85.46-1.15,1.23-1.91,2.38-3.86,2.67-6.2.17-1.4.3-2.84.68-4.25.25-.89.59-1.74,1.36-2.33.59-.51,1.15-.51,1.61,0-1.23.13-1.61,1.06-1.91,2-.55,1.57-.72,3.22-1.06,4.84-.55,2.5-1.87,4.58-3.26,6.66-.08.13-.3.21-.59.42h.04,0Z"/>
    <path class="cls-1" d="M46.19,61.5c.89,0,1.49.25,2,.76.34.34.59.3.93,0,.55-.51.85-1.1,1.02-1.78.08-.3.21-.59-.13-.8-.3-.21-.68-.17-.97.08-.21.17-.38.42-.68.38,0-.68.46-1.15,1.19-1.15.76,0,1.15.3,1.1,1.06-.08,1.15-.63,2.08-1.49,2.8-.25.21-.59.25-.8.08-.59-.42-1.23-.76-1.87-1.02-.08,0-.08-.17-.25-.38l-.04-.04h0Z"/>
    <path class="cls-1" d="M19.42,118.96c.21.13.42.21.72.34,2.33-2.71,4.67-5.39,6.96-8.23.21.46-.13.63-.3.85-2,2.42-4.03,4.79-6.02,7.17-.42.46-.8.85-1.4.3-.13.25-.38.42-.42.72,0,.04,0,.08.08.13.62.51,1.19.47,1.7-.13,2.38-2.84,4.71-5.73,7.04-8.57.21-.25.42-.51.51-.89-1.02-.63-1.87-1.57-2.88-2.12-1.74,1.78-3.22,3.73-4.79,5.56-2,2.42-3.86,4.92-5.64,7.47-.34.46,0,.63.3.8,1.32.93,2.67,1.87,4.12,2.88,3.44-4.33,7.26-8.32,10.52-12.77.08-.13-.08-.21-.25-.34-3.48,3.95-6.66,8.14-10.35,12.01-.17-.42.08-.59.25-.76,1.78-2.04,3.56-4.03,5.3-6.07,1.44-1.7,2.84-3.44,4.29-5.13.3-.38.59-.68,1.06-.17.3.34.13.55-.08.85-1.49,1.95-3.01,3.86-4.58,5.77-1.74,2.04-3.44,4.12-5.09,6.24-.8.97-1.06,1.02-2.12.34-1.23-.76-2.29-1.7-3.44-2.59-.51-.38-.63-.72-.21-1.36,2.04-2.93,4.33-5.68,6.58-8.49,1.15-1.4,2.25-2.76,3.48-4.08.63-.68.89-.72,1.66-.17.63.46,1.27.93,1.91,1.44.51.38.59.85.25,1.4-.8,1.36-1.83,2.55-2.8,3.73-1.49,1.83-3.01,3.61-4.54,5.43-.93,1.1-1.49,1.1-2.42,0-.17-.21-.17-.42,0-.63.21-.38.42-.72.76-1.02l-.13.08h-.01Z"/>
    <path class="cls-1" d="M27.18,111.02c-.68-.13-1.06-.76-1.74-.89-3.39,3.56-6.45,7.38-9.29,11.42.08.34.55.34.55.68-.34-.03-.68-.21-1.02-.55.63-1.06,1.36-2.08,2.12-3.05,1.87-2.42,3.73-4.84,5.77-7.09.38-.42.76-.85,1.19-1.23.8-.68,1.06-.68,1.87,0,.21.17.51.34.55.76v-.04h0Z"/>
    <path class="cls-5" d="M77.54,60.83c0-.63.3-.85.46-1.15,1.23-1.91,2.38-3.86,2.67-6.2.17-1.4.3-2.84.68-4.25.25-.89.59-1.74,1.36-2.33.59-.51,1.15-.51,1.61,0-1.23.13-1.61,1.06-1.91,2-.55,1.57-.72,3.22-1.06,4.84-.55,2.5-1.87,4.58-3.26,6.66-.08.13-.3.21-.59.42h.04,0Z"/>
    <path class="cls-5" d="M46.19,61.5c.89,0,1.49.25,2,.76.34.34.59.3.93,0,.55-.51.85-1.1,1.02-1.78.08-.3.21-.59-.13-.8-.3-.21-.68-.17-.97.08-.21.17-.38.42-.68.38,0-.68.46-1.15,1.19-1.15.76,0,1.15.3,1.1,1.06-.08,1.15-.63,2.08-1.49,2.8-.25.21-.59.25-.8.08-.59-.42-1.23-.76-1.87-1.02-.08,0-.08-.17-.25-.38l-.04-.04h0Z"/>
    <path class="cls-5" d="M19.42,118.96c.21.13.42.21.72.34,2.33-2.71,4.67-5.39,6.96-8.23.21.46-.13.63-.3.85-2,2.42-4.03,4.79-6.02,7.17-.42.46-.8.85-1.4.3-.13.25-.38.42-.42.72,0,.04,0,.08.08.13.62.51,1.19.47,1.7-.13,2.38-2.84,4.71-5.73,7.04-8.57.21-.25.42-.51.51-.89-1.02-.63-1.87-1.57-2.88-2.12-1.74,1.78-3.22,3.73-4.79,5.56-2,2.42-3.86,4.92-5.64,7.47-.34.46,0,.63.3.8,1.32.93,2.67,1.87,4.12,2.88,3.44-4.33,7.26-8.32,10.52-12.77.08-.13-.08-.21-.25-.34-3.48,3.95-6.66,8.14-10.35,12.01-.17-.42.08-.59.25-.76,1.78-2.04,3.56-4.03,5.3-6.07,1.44-1.7,2.84-3.44,4.29-5.13.3-.38.59-.68,1.06-.17.3.34.13.55-.08.85-1.49,1.95-3.01,3.86-4.58,5.77-1.74,2.04-3.44,4.12-5.09,6.24-.8.97-1.06,1.02-2.12.34-1.23-.76-2.29-1.7-3.44-2.59-.51-.38-.63-.72-.21-1.36,2.04-2.93,4.33-5.68,6.58-8.49,1.15-1.4,2.25-2.76,3.48-4.08.63-.68.89-.72,1.66-.17.63.46,1.27.93,1.91,1.44.51.38.59.85.25,1.4-.8,1.36-1.83,2.55-2.8,3.73-1.49,1.83-3.01,3.61-4.54,5.43-.93,1.1-1.49,1.1-2.42,0-.17-.21-.17-.42,0-.63.21-.38.42-.72.76-1.02l-.13.08h-.01Z"/>
    <path class="cls-5" d="M27.18,111.02c-.68-.13-1.06-.76-1.74-.89-3.39,3.56-6.45,7.38-9.29,11.42.08.34.55.34.55.68-.34-.03-.68-.21-1.02-.55.63-1.06,1.36-2.08,2.12-3.05,1.87-2.42,3.73-4.84,5.77-7.09.38-.42.76-.85,1.19-1.23.8-.68,1.06-.68,1.87,0,.21.17.51.34.55.76v-.04h0Z"/>
    <path class="cls-5" d="M83.86,26.2c-1.87-1.32-3.61-2.67-5.26-4.16-.34-.3-.76-.38-1.19-.34-.89.13-1.83.25-2.71.34-2.42.21-4.41-.89-6.32-2.21-.59-.42-1.23-.8-1.74-1.44,3.52-.25,6.83.13,9.93,1.87-1.23-1.49-2.42-2.88-4.33-3.65-2.04-.8-3.52-2.33-4.16-4.58-.34-1.15-.8-2.25-.72-3.56.89.46,1.7,1.02,2.42,1.66,1.91,1.78,3.82,3.56,4.33,6.32.13.63.68,1.02,1.06,1.53.42.51.89.93,1.44,1.4-1.87-2.93-.93-5.94-.38-8.96.38,0,.42.3.51.46,1.1,2.59,1.78,5.26,1.83,8.1,0,.55-.08,1.15-.21,1.7-.04.3,0,.46.17.68,1.66,1.44,3.31,2.8,5.26,3.99-2.71-3.09-2.5-6.96-3.01-10.65.38-.04.51.17.63.34,1.49,2.46,3.09,4.92,3.99,7.68.34,1.02.38,2.16.3,3.22,0,.34,0,.59.38.8,2.76,1.4,5.64,2.5,8.57,3.39.08,0,.17,0,.38-.08-3.99-1.61-6.62-4.33-7.26-8.74,1.02.42,2.04.85,2.88,1.61,1.91,1.7,3.52,3.61,4.5,6.02.17.46.46.85.72,1.27.3.46.8.34,1.23.42,1.44.25,2.88.3,4.54.21-3.01-1.87-4.5-4.5-5.01-7.89,1.02.63,1.91,1.27,2.71,2,1.1.97,2.25,1.91,2.88,3.26.55,1.15.68,2.33.3,3.61-.97,3.05-3.01,5.18-5.73,6.75-.63.38-1.32.76-2.04,1.19.59-3.73,2.04-7.34,5.85-8.4-1.27-.13-2.33.08-3.39-.21-1.53-.42-2.67.34-3.82,1.15-1.74,1.23-3.61,2.04-5.81,1.83-1.1-.08-2.16-.34-3.39-.76,2.88-1.95,5.9-2.84,9.34-3.01-1.95-.72-3.82-1.4-5.6-2.16-.3-.13-.68-.25-.93-.42-1.19-.89-2.42-.68-3.61-.17-1.36.55-2.71.97-4.25.89-2.38-.08-4.5-.93-6.58-1.95-.04,0-.08-.08-.21-.25,3.86-.97,7.64-1.06,11.46-.13l.04.04h-.01Z"/>
  </g>
</svg>