<?xml version="1.0" encoding="UTF-8"?>
<svg id="OBJECTS" xmlns="http://www.w3.org/2000/svg" xmlns:xlink="http://www.w3.org/1999/xlink" viewBox="0 0 400 150">
  <defs>
    <style>
      .cls-1 {
        fill: #8e7a64;
      }

      .cls-2 {
        fill: none;
      }

      .cls-3, .cls-4 {
        isolation: isolate;
      }

      .cls-4 {
        opacity: .2;
        stroke: #000;
        stroke-miterlimit: 10;
        stroke-width: .75px;
      }

      .cls-4, .cls-5 {
        fill: #0097b2;
      }

      .cls-6 {
        clip-path: url(#clippath);
      }
    </style>
    <clipPath id="clippath">
      <rect class="cls-2" x="10.12" y="17.73" width="113.48" height="114.11"/>
    </clipPath>
  </defs>
  <g class="cls-3">
    <path class="cls-5" d="M145.42,22.05l14.62,35.1h.24l14.2-35.1h3.17l-17.3,42.65h-3.66l-17.85-42.65h6.58Z"/>
    <path class="cls-5" d="M188.32,50.81c0,2.48.36,4.51,1.09,6.09.73,1.58,1.64,2.82,2.73,3.72,1.09.89,2.28,1.51,3.55,1.86,1.28.35,2.48.52,3.62.52,1.01,0,1.93-.11,2.76-.33.83-.22,1.63-.54,2.4-.94.77-.41,1.53-.91,2.28-1.52.75-.61,1.55-1.28,2.4-2.01l1.94,1.95c-1.63,1.71-3.53,3.02-5.73,3.93-2.19.91-4.59,1.37-7.19,1.37s-5.01-.46-6.98-1.37c-1.97-.91-3.59-2.13-4.87-3.66-1.28-1.52-2.23-3.25-2.86-5.18-.63-1.93-.94-3.91-.94-5.94,0-2.44.37-4.62,1.1-6.55.73-1.93,1.75-3.57,3.05-4.94,1.3-1.36,2.82-2.4,4.57-3.11,1.75-.71,3.66-1.07,5.73-1.07,1.95,0,3.8.33,5.54.97,1.75.65,3.28,1.63,4.6,2.92,1.32,1.3,2.37,2.95,3.14,4.94.77,1.99,1.16,4.35,1.16,7.07v1.28h-23.09ZM206.05,48.37c0-3.94-.8-7.04-2.39-9.29-1.59-2.25-3.82-3.38-6.69-3.38-1.49,0-2.78.36-3.87,1.07-1.09.71-1.99,1.66-2.69,2.83-.71,1.18-1.23,2.53-1.57,4.05-.34,1.52-.51,3.1-.51,4.72h17.73Z"/>
    <path class="cls-5" d="M235.31,41.18c0-.53-.14-1.1-.43-1.71-.28-.61-.73-1.17-1.34-1.68-.61-.51-1.36-.93-2.25-1.28-.89-.34-1.94-.52-3.16-.52s-2.23.17-3.04.52c-.81.35-1.46.77-1.94,1.28-.49.51-.83,1.06-1.03,1.65-.2.59-.3,1.15-.3,1.68,0,1.26.46,2.23,1.37,2.92.91.69,2.05,1.28,3.43,1.77,1.38.49,2.86.96,4.46,1.4,1.6.45,3.09,1.03,4.46,1.74,1.38.71,2.52,1.66,3.43,2.83.91,1.18,1.37,2.74,1.37,4.69,0,2.68-.94,4.84-2.83,6.49s-4.7,2.47-8.44,2.47c-2.07,0-3.89-.25-5.45-.76-1.56-.51-2.88-1.19-3.96-2.04-1.08-.85-1.88-1.82-2.41-2.89-.53-1.08-.79-2.18-.79-3.32h3.96c0,.49.15,1.1.46,1.83.3.73.81,1.45,1.52,2.16.71.71,1.62,1.32,2.74,1.83,1.12.51,2.49.76,4.11.76,1.3,0,2.38-.17,3.23-.52.85-.34,1.52-.77,2.01-1.28.49-.51.82-1.07,1.01-1.68.18-.61.27-1.2.27-1.77,0-1.34-.45-2.4-1.34-3.17-.89-.77-2-1.41-3.34-1.92-1.34-.51-2.78-.97-4.34-1.4-1.56-.43-3.01-.98-4.34-1.68-1.34-.69-2.45-1.6-3.34-2.74-.89-1.14-1.34-2.68-1.34-4.63,0-1.42.26-2.67.79-3.75.53-1.08,1.25-1.98,2.16-2.71.91-.73,1.98-1.28,3.22-1.65,1.24-.37,2.56-.55,3.98-.55,1.5,0,2.91.19,4.22.58,1.32.39,2.47.91,3.46,1.58s1.77,1.47,2.34,2.41c.57.94.85,1.95.85,3.05h-3.46Z"/>
    <path class="cls-5" d="M245.53,36.67v-2.44h5.3v-9.38h5.18v9.38h7.37v2.44h-7.37v20.23c0,.49.02,1.05.06,1.68.04.63.16,1.22.37,1.77.2.55.52,1.01.94,1.37s1.03.55,1.8.55c.97,0,1.79-.37,2.44-1.1.65-.73,1.18-1.52,1.58-2.38l2.86,2.92c-1.99,1.99-4.25,2.99-6.76,2.99-1.06,0-2.09-.18-3.11-.55-1.02-.37-1.92-.92-2.71-1.68-.79-.75-1.43-1.72-1.92-2.89-.49-1.18-.73-2.56-.73-4.14v-18.77h-5.3Z"/>
    <path class="cls-5" d="M282.63,33.57c2.97,0,5.26.42,6.89,1.25,1.63.83,2.82,1.92,3.57,3.26s1.19,2.88,1.31,4.63c.12,1.75.18,3.53.18,5.36v16.63h-4.94v-2.99c-1.18,1.14-2.68,2.04-4.51,2.71s-3.66,1.01-5.48,1.01-3.29-.3-4.63-.91c-1.34-.61-2.46-1.4-3.35-2.38-.89-.97-1.56-2.07-2.01-3.29-.45-1.22-.67-2.46-.67-3.72s.24-2.6.73-3.9c.49-1.3,1.22-2.47,2.19-3.5.97-1.04,2.17-1.88,3.59-2.53,1.42-.65,3.05-.97,4.87-.97s3.56.36,5.21,1.07c1.65.71,3,1.72,4.05,3.02v-2.62c0-3.33-.5-5.81-1.5-7.43-1-1.62-2.82-2.44-5.47-2.44-1.14,0-2.14.14-3,.43-.86.28-1.62.68-2.29,1.19-.67.51-1.29,1.14-1.87,1.89-.57.75-1.14,1.59-1.71,2.53l-3.13-3.17c.57-.61,1.17-1.22,1.8-1.83.63-.61,1.4-1.16,2.32-1.65.91-.49,2-.88,3.26-1.19,1.26-.3,2.78-.46,4.57-.46ZM289.65,52.64c-.2-.49-.5-1.06-.89-1.71-.39-.65-.89-1.28-1.5-1.89-.61-.61-1.35-1.13-2.2-1.55-.86-.43-1.88-.64-3.06-.64s-2.26.23-3.24.7c-.98.47-1.81,1.08-2.48,1.83-.67.75-1.19,1.64-1.56,2.65-.37,1.02-.55,2.07-.55,3.17,0,1.3.23,2.43.7,3.38.47.96,1.07,1.77,1.8,2.44s1.55,1.17,2.45,1.49c.9.33,1.75.49,2.57.49s1.56-.14,2.36-.43c.8-.28,1.55-.68,2.26-1.19.71-.51,1.36-1.11,1.93-1.8.57-.69,1.04-1.44,1.41-2.25v-4.69Z"/>
    <path class="cls-5" d="M182.04,110.88c-.53.61-1.3,1.32-2.32,2.13-1.02.81-2.28,1.57-3.81,2.28-1.52.71-3.31,1.31-5.36,1.8-2.05.49-4.38.73-6.98.73-4.1,0-7.64-.64-10.6-1.92-2.97-1.28-5.4-2.96-7.31-5.06-1.91-2.09-3.32-4.49-4.23-7.19-.91-2.7-1.37-5.47-1.37-8.32,0-3.29.57-6.27,1.71-8.93,1.14-2.66,2.74-4.94,4.81-6.82,2.07-1.89,4.56-3.34,7.46-4.36,2.9-1.01,6.12-1.52,9.66-1.52,2.44,0,4.61.24,6.52.73,1.91.49,3.57,1.16,5,2.01,1.42.85,2.61,1.87,3.56,3.05.95,1.18,1.74,2.46,2.35,3.84h-4.51c-.28-.85-.78-1.7-1.49-2.53-.71-.83-1.63-1.57-2.74-2.22-1.12-.65-2.4-1.18-3.84-1.58-1.44-.41-3.04-.61-4.78-.61-2.56,0-4.93.47-7.1,1.4-2.17.94-4.05,2.23-5.64,3.9-1.58,1.67-2.81,3.65-3.69,5.94-.87,2.3-1.31,4.82-1.31,7.59,0,2.6.42,5.1,1.25,7.49.83,2.4,2.06,4.51,3.69,6.34,1.62,1.83,3.66,3.29,6.09,4.39s5.24,1.65,8.41,1.65c5.69,0,10.6-1.95,14.75-5.85l1.83,1.65Z"/>
    <path class="cls-5" d="M194.53,117.1h-5.18v-42.65h5.18v42.65Z"/>
    <path class="cls-5" d="M209.46,103.2c0,2.48.36,4.51,1.09,6.09.73,1.58,1.64,2.82,2.73,3.72,1.09.89,2.28,1.51,3.55,1.86,1.28.35,2.48.52,3.62.52,1.01,0,1.93-.11,2.76-.33.83-.22,1.63-.54,2.4-.94.77-.41,1.53-.91,2.28-1.52.75-.61,1.55-1.28,2.4-2.01l1.94,1.95c-1.63,1.71-3.53,3.02-5.73,3.93-2.19.91-4.59,1.37-7.19,1.37s-5.01-.46-6.98-1.37c-1.97-.91-3.59-2.13-4.87-3.66-1.28-1.52-2.23-3.25-2.86-5.18-.63-1.93-.94-3.91-.94-5.94,0-2.44.37-4.62,1.1-6.55.73-1.93,1.75-3.57,3.05-4.94,1.3-1.36,2.82-2.4,4.57-3.11,1.75-.71,3.66-1.07,5.73-1.07,1.95,0,3.8.33,5.54.97,1.75.65,3.28,1.63,4.6,2.92,1.32,1.3,2.37,2.95,3.14,4.94.77,1.99,1.16,4.35,1.16,7.07v1.28h-23.09ZM227.19,100.77c0-3.94-.8-7.04-2.39-9.29-1.59-2.25-3.82-3.38-6.69-3.38-1.49,0-2.78.36-3.87,1.07-1.09.71-1.99,1.66-2.69,2.83-.71,1.18-1.23,2.53-1.57,4.05-.34,1.52-.51,3.1-.51,4.72h17.73Z"/>
    <path class="cls-5" d="M251.68,85.96c2.97,0,5.26.42,6.89,1.25,1.63.83,2.82,1.92,3.57,3.26s1.19,2.88,1.31,4.63c.12,1.75.18,3.53.18,5.36v16.63h-4.94v-2.99c-1.18,1.14-2.68,2.04-4.51,2.71s-3.66,1.01-5.48,1.01-3.29-.3-4.63-.91c-1.34-.61-2.46-1.4-3.35-2.38-.89-.97-1.56-2.07-2.01-3.29-.45-1.22-.67-2.46-.67-3.72s.24-2.6.73-3.9c.49-1.3,1.22-2.47,2.19-3.5.97-1.04,2.17-1.88,3.59-2.53,1.42-.65,3.05-.97,4.87-.97s3.56.36,5.21,1.07c1.65.71,3,1.72,4.05,3.02v-2.62c0-3.33-.5-5.81-1.5-7.43-1-1.62-2.82-2.44-5.47-2.44-1.14,0-2.14.14-3,.43-.86.28-1.62.68-2.29,1.19-.67.51-1.29,1.14-1.87,1.89-.57.75-1.14,1.59-1.71,2.53l-3.13-3.17c.57-.61,1.17-1.22,1.8-1.83.63-.61,1.4-1.16,2.32-1.65.91-.49,2-.88,3.26-1.19,1.26-.3,2.78-.46,4.57-.46ZM258.69,105.03c-.2-.49-.5-1.06-.89-1.71-.39-.65-.89-1.28-1.5-1.89-.61-.61-1.35-1.13-2.2-1.55-.86-.43-1.88-.64-3.06-.64s-2.26.23-3.24.7c-.98.47-1.81,1.08-2.48,1.83-.67.75-1.19,1.64-1.56,2.65-.37,1.02-.55,2.07-.55,3.17,0,1.3.23,2.43.7,3.38.47.96,1.07,1.77,1.8,2.44s1.55,1.17,2.45,1.49c.9.33,1.75.49,2.57.49s1.56-.14,2.36-.43c.8-.28,1.55-.68,2.26-1.19.71-.51,1.36-1.11,1.93-1.8.57-.69,1.04-1.44,1.41-2.25v-4.69Z"/>
    <path class="cls-5" d="M293.67,117.1v-20.05c0-.41-.04-1.06-.12-1.95-.08-.89-.34-1.79-.76-2.68-.43-.89-1.11-1.68-2.04-2.35-.93-.67-2.25-1.01-3.96-1.01-1.06,0-2.08.18-3.08.55-1,.37-1.88.94-2.65,1.71-.77.77-1.38,1.73-1.83,2.86-.45,1.14-.67,2.5-.67,4.08v18.83h-5.18v-30.47h5.18v3.9h.24l.97-.97c1.42-1.42,2.86-2.39,4.33-2.89,1.46-.51,2.78-.74,3.96-.7,2.68,0,4.75.46,6.22,1.37,1.46.91,2.53,1.99,3.2,3.23.67,1.24,1.07,2.5,1.19,3.78.12,1.28.18,2.28.18,3.02v19.74h-5.18Z"/>
    <path class="cls-5" d="M310.97,74.69c.65-.65,1.42-.97,2.32-.97s1.67.33,2.32.97c.65.65.97,1.42.97,2.32s-.33,1.67-.97,2.32-1.42.97-2.32.97-1.67-.32-2.32-.97c-.65-.65-.97-1.42-.97-2.32s.32-1.66.97-2.32ZM315.97,86.63v30.47h-5.18v-30.47h5.18Z"/>
    <path class="cls-5" d="M347.83,117.1v-20.05c0-.41-.04-1.06-.12-1.95-.08-.89-.34-1.79-.76-2.68-.43-.89-1.11-1.68-2.04-2.35-.93-.67-2.25-1.01-3.96-1.01-1.06,0-2.08.18-3.08.55-1,.37-1.88.94-2.65,1.71-.77.77-1.38,1.73-1.83,2.86-.45,1.14-.67,2.5-.67,4.08v18.83h-5.18v-30.47h5.18v3.9h.24l.97-.97c1.42-1.42,2.86-2.39,4.33-2.89,1.46-.51,2.78-.74,3.96-.7,2.68,0,4.75.46,6.22,1.37,1.46.91,2.53,1.99,3.2,3.23.67,1.24,1.07,2.5,1.19,3.78.12,1.28.18,2.28.18,3.02v19.74h-5.18Z"/>
    <path class="cls-5" d="M384.7,112.22h-.24c-.69,1.95-1.88,3.37-3.56,4.27-1.69.89-3.67,1.34-5.94,1.34-2.07,0-3.95-.38-5.64-1.13-1.69-.75-3.14-1.83-4.36-3.23-1.22-1.4-2.16-3.09-2.83-5.06-.67-1.97-1.01-4.17-1.01-6.61s.34-4.57,1.01-6.52c.67-1.95,1.61-3.61,2.83-5,1.22-1.38,2.68-2.45,4.39-3.2,1.71-.75,3.6-1.13,5.67-1.13,2.6,0,4.7.48,6.31,1.43,1.6.96,2.65,2.28,3.14,3.99h.24v-4.75h5.18v29.92c0,2.03-.19,3.99-.58,5.88s-1.11,3.56-2.16,5.03c-1.06,1.46-2.54,2.63-4.45,3.5-1.91.87-4.41,1.31-7.5,1.31-1.67,0-3.15-.21-4.45-.64-1.3-.43-2.42-.93-3.36-1.52-.93-.59-1.71-1.18-2.32-1.77-.61-.59-1.06-1.07-1.34-1.43l3.32-3.05c1.1,1.83,2.31,3.29,3.64,4.39,1.32,1.1,3.07,1.65,5.23,1.65,1.22,0,2.37-.18,3.45-.55,1.08-.37,2.02-.95,2.81-1.77.79-.81,1.42-1.87,1.87-3.17.45-1.3.67-2.88.67-4.75v-7.43ZM384.7,99.61c0-1.38-.18-2.72-.55-4.02-.37-1.3-.91-2.45-1.62-3.44-.71-1-1.6-1.79-2.66-2.38-1.06-.59-2.26-.88-3.61-.88-.61,0-1.46.13-2.54.4-1.08.26-2.14.84-3.18,1.74-1.04.89-1.95,2.18-2.72,3.87-.78,1.69-1.16,3.95-1.16,6.79,0,2.68.32,4.87.95,6.58.63,1.71,1.43,3.03,2.38,3.96.96.93,2,1.57,3.12,1.92,1.12.35,2.17.52,3.15.52,1.1,0,2.16-.23,3.18-.7,1.02-.47,1.92-1.15,2.69-2.04.77-.89,1.4-1.99,1.86-3.29.47-1.3.7-2.8.7-4.51v-4.51Z"/>
  </g>
  <g class="cls-6">
    <g>
      <path class="cls-5" d="M46.04,94.12c2.88-.37,5.73-.41,8.43-1.58,1.92-.82,2.47-1.58,2.6-3.67.17-2.54.07-5.11.1-7.64v-.89c-1.1.34-2.16.58-3.19.82-1.65.34-3.33.58-5.01.45-1.17-.1-1.82-.37-1.99-1.78-.14-1.13-.24-2.26-.62-3.36-.24-.72-.62-1.37-1.03-1.95-.37-.55-.62-1.13-.45-1.75.2-.72-.14-1.23-.48-1.78-.28-.45-.58-.86-.86-1.3-.45-.69-.37-1.13.2-1.71.24-.24.51-.48.51-.89,0-.93-.2-1.2-1.03-1.27-1.4-.14-2.43-1-3.33-1.99-.45-.51-.37-1.03-.07-1.61,1.37-2.57,2.71-5.18,4.15-7.75.93-1.65,1-3.29.24-5.01-.58-1.37-1-2.81-.79-4.32.24-1.88.58-3.77,1.23-5.56.31-.82.58-1.65.89-2.54-.89-.69-1.48-1.58-1.71-2.71-.45-2.02.75-3.6,2.85-3.63.55,0,1.13-.07,1.68.07.2.03.37-.07.58-.14,1.1-.41,1.99-1.1,2.85-1.88,2.57-2.4,5.62-3.98,8.95-4.97,2.81-.86,5.69-1.13,8.61-1,1.06.07,2.13.34,3.15.69,1.61.55,3.33.89,4.97,1.34,2.71.72,4.97,2.16,7.13,3.87,2.09,1.65,3.53,3.8,4.97,6,.1.17.24.37.37.55,0,0,.07,0,.14.07,0-1.65.45-3.12,1.4-4.45,1.54-2.09,3.6-3.33,6.21-3.77,1.54-.24,3.02,0,4.49.48,2.06.69,4.05,1.48,5.76,2.88,1.23,1.03,2.19,2.26,2.74,3.74.96,2.57,1.51,5.24,1.37,7.99-.07,1.88-.34,3.8-1.06,5.59-.93,2.33-2.6,4.08-4.56,5.56-1.37,1-2.81,1.85-4.53,2.16-3.08.55-5.96-.03-8.53-1.95-.2-.14-.34-.34-.48-.55-.14-.17-.24-.37-.41-.58-.07,1.13-.24,2.23.14,3.36.34,1.03.62,2.13.62,3.22,0,2.37-1.03,4.25-2.85,5.69-1.23,1-2.64,1.61-4.28,1.75-1,.07-1.51.58-1.71,1.58-.07.34-.14.72-.2,1.06-.37,1.85-1.2,2.68-3.05,2.98-.72.1-1.2.48-1.68.96-1,1.1-1.34,2.4-1.54,3.8-.48,3.15-.48,6.34-.45,9.56,0,2.64,1.27,4.45,3.74,5.56,2.33,1,4.73,1.65,7.24,1.75.1,0,.24,0,.34.03.48.17.82.07.89-.51,2.16.34,4.25.93,6.34,1.4,3.8.86,7.58,1.85,11.35,2.91.31.1.62.17.93.28.65.2.69.31.41.96-.07.2-.17.41-.28.65.89.37,1.78.79,2.71,1.1,3.08,1.1,5.83,2.88,8.78,4.32.31.14.34.37.37.69.03,1.68-.14,3.36-.41,5.04-1.34,7.81-4.49,15.02-8.06,22.01-4.9,9.63-10.9,18.58-17.86,26.88-5.18,6.17-10.73,11.97-17.21,16.79-2.81,2.09-5.76,4.01-8.98,5.48-.48.2-.89.24-1.37,0-3.74-1.71-7.13-4.01-10.35-6.55-4.25-3.36-8.09-7.1-11.72-11.07-4.18-4.59-8.09-9.39-11.66-14.5-4.83-6.93-9.12-14.16-12.65-21.84-.1-.2-.2-.37-.31-.62-1.27,1.37-2.47,2.71-3.7,4.01-.17.2-.31.51-.65.45-.31-.07-.28-.41-.31-.65-.2-.79-.28-1.58.28-2.3.14-.17,0-.31,0-.45-1-3.05-1.48-6.21-1.82-9.39-.2-1.85-.31-3.7-.2-5.52.28-5.14,1.54-9.98,4.76-14.16,2.71-3.5,6.27-5.79,10.46-7.16,2.26-.75,4.63-1.2,6.99-1.48,2.23-.28,4.49-.24,6.72-.2.93,0,1.88.14,2.81.24.69.07,1.34-.28,2.06-.14.45.07.58.24.58.62s-.17.75-.37,1.06c-.37.65-.75,1.34-1.13,2.02l-.17.07-.03.02ZM62.4,68.27c.31.2.41.48.55.72.79,1.06,2.19,1.1,3.05.1.24-.28.34-.58.28-1-.17-1.03-.72-1.75-1.61-2.26-1.3-.75-1.58-1.75-.93-3.12.31-.65.79-1.17,1.2-1.71.41-.55.45-1.1.17-1.75-.31-.75-.93-1.23-1.54-1.71-1.71-1.27-1.99-3.39-.69-5.07.37-.48.75-.93,1.06-1.44.28-.41.41-.89.34-1.4-.17-1.54-1.3-2.37-2.4-3.22-.24-.17-.55-.2-.86-.17-.41,0-.86.03-1.27-.03-2.5-.48-4.42-1.78-5.83-3.87-.17-.24-.31-.31-.58-.31-.65,0-1.34.07-1.99.14-1.48.2-2.95.34-4.36.82-.28.1-.55.2-.75.45-.62.75-1.2,1.54-1.85,2.3-.34.37-.37.75-.28,1.23.24,1,.48,1.99.72,2.98.45,1.68.37,3.29-.45,4.9-1.27,2.5-2.74,4.9-4.05,7.37-.45.89-.41,1.13.37,1.78.82.69,1.78,1.03,2.81,1.23.55.1.89.48,1.03,1.03.2.86-.1,1.51-.65,2.13-.37.41-.2.89.31,1.03.31.07.65.1.93-.1.69-.45,1.3-.31,1.92.17.34.24.72.45,1.06.69.75.58,1.58,1,2.64.79-1.06,1.85-1.95,3.84-4.53,4.08.72,1.4,1.06,2.88,1.23,4.39.14,1.17.48,1.54,1.65,1.58.93,0,1.85-.1,2.74-.24,1.68-.28,3.36-.51,4.97-1.06,1.75-.62,3.46-1.27,5.11-2.06,2.16-1.06,4.56-1.88,5.9-4.22,0,.41-.2.65-.37.93-.55.89-1.51,1.34-2.23,2.09-.75.79-1.65,1.4-2.4,2.19-1.58,1.68-3.12,3.43-4.66,5.14-.17.2-.37.41-.37.72,0,1.48-.1,2.91-.2,4.39-.14,2.02-1.06,3.43-2.98,4.25-2.71,1.13-5.59,1.23-8.47,1.51-.79.07-1.65,1.06-1.54,1.88.2,1.54.37,3.05.55,4.59.17,1.61.34,3.22.51,4.83.2,1.99.48,3.98.69,5.96.2,2.02.41,4.05.62,6.1.24,2.06.45,4.15.72,6.21.1.79.1,1.61.48,2.4,3.84,7.92,7.64,15.84,11.45,23.72.96,1.95,1.71,4.01,3.33,5.59,1.34,1.3,2.57,2.78,3.87,4.22,1.37-1.51,2.71-2.95,4.01-4.42.48-.55,1.06-1.06,1.4-1.71.58-1,1-2.09,1.51-3.12,3.36-6.96,6.68-13.92,10.04-20.87.58-1.2,1.23-2.37,1.71-3.63.55-1.4.41-2.91.62-4.39.24-1.61.34-3.25.51-4.9s.37-3.29.55-4.93c.17-1.61.34-3.22.51-4.83.17-1.68.37-3.33.58-5.01.17-1.65.37-3.25.58-4.9.1-.96.2-1.95.31-2.95-1.13,0-2.16-.14-3.22-.24-2.3-.24-4.42-1-6.38-2.16-1.75-1.06-2.68-2.64-2.88-4.66-.2-1.88-.14-3.77-.07-5.66.07-2.16.14-4.36.75-6.48.07-.28,0-.41-.2-.62-.62-.51-1.1-1.13-1.34-1.95-.31-1.13-.28-2.26.14-3.36.28-.72.1-1.3-.41-1.82-1.13-1.03-1.92-2.16-1.65-3.87-.72.55-1.44.93-2.16,1.27-.37.2-.58.48-.58.89-.03.72-.2,1.37-.37,2.06-.28,1.1-.62,2.16-1.03,3.19-.07.17-.14.37-.37.28-.17-.07-.1-.2-.07-.34.65-1.78.96-3.67,1.34-5.52.07-.34.24-.55.55-.72.62-.34,1.23-.65,1.82-1.06,2.16-1.54,3.25-3.8,3.91-6.31.48-1.78.58-3.6-.2-5.28-1-2.13-3.43-3.25-5.31-.72-.82,1.13-1.37,2.43-1.92,3.7-.07.14-.07.24,0,.34.48.89.79,1.82.51,2.88,0,.07.07.17.07.28.37,1.4-.07,2.68-1.23,3.53-.51.37-1.06.69-1.44,1.17-.75,1-.75,1.61.07,2.3,1.1.89,1.03,2.26.37,3.25-.65,1-1.44,1.92-2.85,1.71-.48-.07-.96-.2-1.44-.37-.72-.24-1.37-1.1-1.37-1.85l.2-.03h0ZM53.69,172.28c3.98,3.39,8.06,6.48,12.68,8.78.45.2.79.2,1.2,0,5.01-2.5,9.43-5.9,13.61-9.56,3.67-3.25,7.1-6.79,10.32-10.46.58-.65,1.23-1.27,1.58-2.09,1.34-3.22,2.57-6.51,3.77-9.8,3.15-8.71,6.13-17.48,8.98-26.29,2.16-6.68,4.32-13.4,5.9-20.26.24-1.1.28-1.1-.79-1.51-.93-.34-1.82-.79-2.81-1.03-.34.72-.69,1.4-1.03,2.09-5.38,10.73-11.35,21.12-18.07,31.06-6.79,10.04-14.16,19.64-22.55,28.39-2.09,2.19-4.32,4.28-6.62,6.24-1.92,1.65-3.94,3.15-6.13,4.56l-.03-.1h0ZM32.27,112.36c-.07.07-.1.07-.14.1-1.68,2.02-3.39,4.05-5.07,6.03-.2.24-.14.41-.03.65.55,1.71,1.1,3.46,1.65,5.18,3.7,11.17,7.37,22.35,11.72,33.29.28.69.48,1.44,1,2.06.75.89,1.51,1.78,2.3,2.64,2.88,3.25,5.96,6.31,9.18,9.22.34.31.55.28.93.03,3.5-2.3,6.62-5.04,9.63-7.89,1.06-1.03,2.09-2.09,3.15-3.12-13.51-14.64-24.65-30.85-34.24-48.2h-.07ZM31.68,109.65c4.49-6.1,9.49-11.89,13.2-18.61-.14-.03-.2-.1-.31-.1-.37,0-.75,0-1.13-.07-.45-.07-.65.1-.89.48-2.16,3.46-4.59,6.72-7.3,9.77-1.37,1.58-1.13,1.27-2.57.55-1.03-.55-2.02-1.2-2.95-1.99,1.92-2.95,4.08-5.73,5.96-8.74-1.48.1-2.81.31-4.18.62-.24.07-.31.2-.37.37-.58,1.23-1.17,2.47-1.92,3.6-.17.28-.31.55-.79.79.79-1.61,1.65-2.98,2.3-4.53-.37-.03-.58.1-.72.37s-.28.55-.41.79c-2.06,3.29-4.22,6.55-6.65,9.56-.24.28-.37.69-.79.79,1.13-1.95,2.6-3.67,3.87-5.52,1.27-1.85,2.47-3.74,3.56-5.69-4.8,1.37-8.88,3.84-11.79,7.92-2.6,3.6-3.74,7.71-4.08,12.17,2.88-2.37,5.01-5.31,7.68-7.78-.14.31-.31.55-.51.79-.82.93-1.61,1.88-2.47,2.81-1.44,1.54-2.81,3.15-4.45,4.49-.31.28-.31.55-.17.96,5.24-5.07,9.94-10.56,14.16-16.45,0,.2-.1.34-.2.48-2.13,3.25-4.53,6.31-7.1,9.26-2.16,2.5-4.36,5.01-6.89,7.16-.14.1-.2.24-.2.41.03,1.27.1,2.57.14,3.84,0,.1.07.2.17.51.1-.2.14-.31.2-.37.86-.93,1.71-1.85,2.6-2.78.14-.14.31-.34.55-.2.62.37,1.27.75,1.75,1.3-1.27,2.06-2.88,3.74-4.39,5.56-.1.14-.31.2-.28.45.14.62.24,1.23.41,2.02,1.4-1.88,3.05-3.36,4.36-5.14,0,.31-.14.51-.31.69-1.2,1.48-2.37,2.91-3.56,4.39-.2.28-.58.55-.17,1,1.85-2.3,3.77-4.45,5.35-6.93-.1-.1-.17-.31-.37-.31-.34.24-.41.75-.89.89.37-.48.45-1.2,1.13-1.34.58.45.55.89.17,1.48-1.51,2.26-3.36,4.25-5.01,6.38-.14.17-.37.31-.34.55.14.62.28,1.2.45,1.85,5.48-5.07,9.6-11.17,14.36-16.73-.17.34-.37.65-.62.96-1.82,2.3-3.7,4.53-5.48,6.86-2.57,3.36-5.24,6.62-8.3,9.49-.51.48-.65,1.3-.34,2.02.14,0,.2-.1.28-.2,1.54-1.75,3.08-3.46,4.63-5.24,3.98-4.59,7.92-9.22,11.72-13.99,2.85-3.56,5.69-7.06,8.43-10.69,2.02-2.68,4.05-5.35,5.73-8.26.28-.45.55-.93.65-1.44-.69-.28-1.06-.17-1.34.28-1.27,2.13-2.64,4.18-4.01,6.21-2.43,3.56-5.14,6.93-7.85,10.25-.58.72-1.1,1.48-1.85,2.02h.18ZM94.04,157.98c.17-.2.37-.41.55-.65,4.73-5.83,9.01-12,12.82-18.48,4.66-7.95,8.53-16.28,10.83-25.26.62-2.43,1.03-4.87,1.37-7.37.1-.62-.17-.96-.69-1.23-1.48-.79-2.95-1.61-4.45-2.4-.62-.34-1.27-.62-1.95-.93-2.33,9.67-5.45,19.02-8.5,28.39-3.08,9.39-6.44,18.65-10.01,27.91l.03.03h0ZM100.76,96.18c-8.98,18.68-17.93,37.29-26.88,55.87.07.03.14.07.17.1,13.51-16.62,24.99-34.52,34.14-53.96l-.28-.14c-2.4-.65-4.8-1.3-7.16-1.92v.03h0ZM37.68,105.61c-.17.07-.24.2-.34.34-1.4,1.78-2.81,3.56-4.25,5.31-.34.41-.37.69-.1,1.2,7.33,13.06,15.53,25.51,24.89,37.2.69.86,1.4,1.68,2.09,2.54.03,0,.07-.07.14-.07-7.44-15.49-14.84-31.02-22.38-46.48l-.03-.03h0ZM39.91,157.98c-4.87-12.75-9.36-25.61-13.44-38.63-.1.03-.17.03-.17.07-1.92,2.23-3.84,4.42-5.76,6.65-.24.28-.28.51-.14.86.62,1.27,1.17,2.6,1.82,3.87,4.18,8.4,9.18,16.28,14.91,23.69.93,1.2,1.85,2.33,2.78,3.53v-.03ZM100.24,96.08c-3.43-.86-6.79-1.78-10.21-2.47-1.17,10.32-2.37,20.6-3.53,30.85,4.63-9.43,9.05-18.96,13.74-28.42v.03ZM49.34,31.01c1.34.55,2.37,1.37,3.22,2.43.24.31.51.55.82.79.82.62,1.65,1.2,2.74,1.2.86,0,1.23-.72,1.78-1.2,2.23-1.92,4.87-2.02,7.24-.14,2.06,1.61,4.22,2.88,6.89,3.05,1.34.07,2.71.31,3.94-.51.45-.31.96-.48,1.48-.65,2.23-.86,4.45-1.71,6.89-1.54.72.07,1.44.2,2.16.34-.17-.37-.41-.62-.72-.79-2.19-1.51-4.63-2.09-7.24-2.16-1.82-.03-3.63.34-5.38.79-1.44.37-2.91.55-4.42.37-1.58-.17-2.81-1.13-4.05-2.02-1.17-.86-2.23-1.85-3.63-2.3-2.71-.86-5.35-.48-7.95.41-1.34.48-2.5,1.34-3.87,1.95l.1-.03h0ZM56.02,39.68c.1.34.34.55.51.79,1.27,1.58,3.67,2.85,6.1,1.71,1.48-.69,2.98-.41,4.39.34.45.24.89.55,1.3.86,1.51,1.1,3.19,1.2,4.97.86,2.33-.45,3.94-1.85,5.45-3.56,2.02-2.33,4.56-3.77,7.75-3.74,1.1,0,2.16.07,3.29.24-.14-.14-.24-.28-.34-.37-.07-.07-.17-.17-.28-.24-2.26-1.54-4.73-2.02-7.37-1.51-1.85.34-3.6,1.03-5.28,1.92-1.95,1.03-3.84,2.13-5.96,2.78-1.61.51-3.25.75-4.9.41-1.17-.24-2.26-.65-3.36-1.13-2.23-.96-4.32-.75-6.31.62l.03.03h0ZM77.89,74.34c.1-.17.14-.31.2-.41.72-1.27,1.51-2.47,3.22-2.54,1-.03,1.78-.55,2.13-1.58.17-.55.31-1.06.37-1.65.17-1.71.62-2.26,2.26-2.78.58-.17,1.2-.34,1.68-.72,1.75-1.3,2.64-3.12,3.05-5.21.37-1.82-.41-3.46-.55-5.28-.82,1.06-1.95,1.4-3.15,1.58-.51.07-.93.37-1.17.86-.45.82-.65,1.71-.79,2.6-.17,1.27-.45,2.47-1.37,3.43-1.06,1.06-2.37,1.75-3.74,2.19-1.4.45-2.19,1.4-2.71,2.71-.31.79-.58,1.58-.82,2.37-.34,1.3-.37,3.29,1.4,4.39l-.03.03h0ZM50.98,35.98c-.79-1.37-1.48-1.95-2.91-2.33-.51-.14-1.1-.2-1.51.2-.37.37-.34,1.13,0,1.75.17.31.41.58.69.86-.17.14-.31.1-.45,0-.55-.34-1.2-1.51-.89-2.33.2-.51.48-.89,1.06-1,1.51-.24,2.71.34,3.7,1.4.75.82,1.3,1.78,1.65,2.85.41,1.2.89,2.4,1.44,3.53.96,1.99,2.5,3.39,4.56,4.25,1,.41,2.02.72,3.08.37.62-.17,1.17-.51,1.78-.72,1.44-.51,2.78-.48,3.91.72.28.31.65.55,1,.75,3.63,2.26,6.65.89,8.26-2.71-.62.34-1.23.62-1.92.79-1.65.45-3.25.82-4.93.14-.89-.37-1.65-.93-2.43-1.4-1.37-.79-2.81-1.13-4.36-.45-1.88.86-3.63.41-5.24-.72-1.2-.82-2.02-1.99-2.6-3.33-.51-1.1-1-2.23-1.58-3.29-.82-1.51-1.85-2.78-3.36-3.6-1.4-.75-2.88-1-4.36-.31-.82.37-1.3,1.06-1.2,2.02.07,1.1.45,2.06,1.27,2.78.55.48.55.96.34,1.58-.45,1.34-.82,2.71-1.27,4.05,1.88-1.85,3.6-3.84,5.59-5.59-.82-.37-1.48.2-2.19.24.34-.82,1.17-1,2.88-.65v.14h0ZM44.26,96.73c-.2.24-.31.37-.41.51-1.78,2.54-3.67,5.04-5.59,7.47-.24.28-.14.48,0,.75,2.88,6.03,5.76,12.1,8.67,18.13.14.31.34.62.55,1.06-1.06-9.39-2.13-18.61-3.22-27.94h0ZM91.81,45.38c-.58,1.3-1.48,2.3-2.57,3.08-.86.62-1.85,1.03-2.81,1.48-1.51.72-2.6,1.82-3.19,3.43-.2.55-.34,1.1-.51,1.65-.34,1.27-.89,2.43-1.82,3.39-1.13,1.17-2.37,2.19-4.08,2.33-.34,0-.55.2-.72.51-.31.55-.65,1.06-1.1,1.51-.48.48-.51,1.03-.45,1.65.2,1.44,1.37,2.23,2.19,3.33.51-1.75,1.54-2.88,3.25-3.43,1-.31,1.92-.79,2.74-1.44,1.37-1.1,1.75-2.64,2.02-4.28.24-1.37.62-2.78,1.58-3.87.69-.75,1.44-1.48,2.19-2.16,2.09-1.92,3.84-3.98,3.22-7.2l.03.03h0ZM53.11,28.48c1.37-.55,2.68-.82,3.98-.96,1.51-.14,3.02,0,4.42.48,1.34.48,2.43,1.34,3.46,2.26,2.23,1.99,4.73,2.64,7.68,1.92,2.43-.58,4.9-1.1,7.47-.79,2.23.28,4.25.93,6.07,2.23.41.31.58.79,1.1,1.23-.17-.31-.24-.48-.31-.65-1.4-2.64-3.74-4.11-6.44-5.11-1.68-.62-3.46-.69-5.21-1.1-.86-.2-1.82-.34-2.47-1-.34-.34-.62-.37-1.06-.24-2.71.79-5.45.79-8.16,0-2.13-.62-4.25-.89-6.44-.34-1.44.37-2.85.75-4.08,1.99v.07h0ZM90.92,40.61c-.69,1.88-1.75,3.46-2.85,5.01-1.34,1.92-3.12,3.29-5.38,3.91-1.92.51-3.84.28-5.76-.2-.69-.17-1.34-.34-2.09,0,.72.24,1.27.65,1.75,1.1,1.37,1.27,1.51,2.98,1.51,4.66s-.37,3.29-1.17,4.8c-.03.1-.17.17,0,.34.65-.03,1.27-.28,1.82-.65,1.95-1.27,3.12-3.05,3.63-5.31.55-2.33,1.92-4.01,4.08-5.04,1-.45,1.95-.96,2.78-1.68,2.47-2.16,2.91-4.05,1.68-6.99v.07h0ZM73.92,37.77c-.51-.14-.96-.14-1.4-.2-1.13-.1-2.26-.17-3.36-.55-1.54-.55-2.85-1.44-4.11-2.4-1.37-1.03-2.85-1.51-4.56-1.03-1.17.31-2.02,1.03-2.88,1.82-.58.55-1.23.72-2.06.55-.58-.14-1.06-.45-1.71-.65.69,1.44,1.3,2.78,1.92,4.15.2-.14.34-.2.48-.28.14-.07.28-.17.41-.28,1.61-.93,3.33-1.1,5.07-.51.86.31,1.68.65,2.5.96,1.06.37,2.19.72,3.33.62,2.26-.2,4.25-1.1,6.34-2.19h.03ZM69.63,54.15c.41-1.17,1.06-2.09,1.61-3.08.41-.69,1-1.2,1.75-1.51.17-.07.34-.1.45-.28.34-.69.86-1.27,1.3-1.85.93-1.2,2.09-2.02,3.7-1.99,1.23,0,2.4.34,3.56.65,1.82.45,3.56.24,5.07-.86,1.92-1.37,3.12-3.29,3.6-5.62.17-.86-.28-1.58-1.13-1.78-.34-.1-.65-.14-1-.24s-.51,0-.65.31c-.69,1.65-1.88,2.91-3.19,4.08-.75.69-1.61,1.23-2.64,1.51-1.51.41-3.02.31-4.49-.07-.24-.07-.48-.17-.65.17-.24.51-.51,1.03-.82,1.51-1.06,1.61-2.4,2.78-4.45,2.88-.31,0-.62-.14-.96,0,.51,1.1.45,2.16-.07,3.25-.28.58-.55,1.2-.79,1.82-.14.31-.31.65-.2,1.1h0ZM92.97,38.38c1.48.17,2.37.48,3.36,1.23.48.34.82.75.89,1.37.1,1-.1,1.99-.2,2.98-.14,1.2-.1,2.4.62,3.39,1.75,2.47,4.25,3.46,7.16,3.39,1.2,0,2.37-.51,3.5-1,1.82-.79,2.54-2.26,2.78-4.18-.65.37-1.2.79-1.85.96-.41.14-.55.31-.55.75,0,1.37-.82,2.09-2.16,1.95-.41-.03-.75-.2-1.13-.37-.41-.17-.82-.28-1.27-.14-1.37.37-2.57.1-3.46-1.1-.65-.86-.93-1.85-1-2.91-.1-1.13.28-2.16.65-3.22.48-1.37.1-2.47-.93-3.39-.75-.69-1.68-1.1-2.68-1.27-1.37-.24-3.02.45-3.67,1.51l-.07.03h0ZM110.9,37.32c-.17.14-.28.28-.37.37-.79.69-1.65,1.23-2.74,1.2-1.51,0-2.68-.79-3.63-1.85-1.13-1.27-1.88-2.81-3.25-3.94-2.85-2.37-6.17-1.27-8.09,1.4.82-.48,1.61-.75,2.43-1,1.92-.55,3.46,0,4.66,1.54.69.86,1.2,1.85,1.75,2.81,1.03,1.78,2.26,3.39,4.15,4.39,1.68.89,3.67.62,4.9-.82.31-.34.58-.75.55-1.23,0-.96-.17-1.88-.41-2.88h.07ZM66.31,45.61c.14.2.28.37.37.58.58.93.96,1.92.82,3.05-.2,1.37-.75,2.6-1.58,3.7-.65.89-.58,1.82.17,2.64.41.45.86.86,1.23,1.34,1.17,1.44,1,3.53-.34,4.76-.45.41-.96.79-1.37,1.23-.89.93-.86,2.16.07,2.98,1.44,1.34,1.37,3.15-.2,4.08v.1c1,.14,1.54-.55,2.06-1.17.89-1.1.82-2.26-.2-3.22-.82-.79-.89-1.54-.24-2.5.45-.69,1.13-1.06,1.75-1.54,1.13-.93,1.75-2.43.72-3.87-.2-.28-.41-.55-.62-.82-1.06-1.4-1.13-2.74-.2-4.22.28-.45.62-.82.93-1.27.75-1.1,1.1-2.23.45-3.5-.07-.14-.1-.31-.31-.34-1.37-.37-2.4-1.27-3.5-2.09v.07h0ZM56.95,25.94c.14,0,.17.03.24.03h.24c2.02-.48,4.01-.28,6,.24,2.64.69,5.24.93,7.92.14,2.09-.58,4.22-1,6.38-.89.03,0,.14.03.1-.1-1.85-.48-3.74-.96-5.59-1.48-.89-.24-1.78-.51-2.68-.58-3.19-.17-6.31.17-9.36,1.23-1.1.37-2.19.72-3.22,1.37l-.03.03h0ZM107.16,43.15c-.2-.03-.34-.07-.51-.1-1.88-.62-3.33-1.78-4.42-3.46-.86-1.34-1.65-2.74-2.54-4.08-.65-1-1.54-1.88-2.81-1.78-1.78.1-3.46.65-4.63,2.16-.75,1-1.23,2.33-1,3.22.31-.24.62-.45,1-.55.45-.14.48-.62.79-.86.58-.51,1.13-1.03,1.92-1.2,1.75-.37,3.25.17,4.56,1.27,1.58,1.34,2.3,3.22,3.02,5.11.14.41.31.79.62,1.06,1.1,1.03,3.25.62,4.08-.82l-.07.03h0ZM33.95,101.01c2.57-3.36,5.28-6.58,7.61-10.21-.86-.2-1.27,0-1.68.69-1.34,2.26-3.05,4.32-4.53,6.51-.07.1-.17.28-.31.28-.45-.07-.75-.34-1-.72s.17-.51.31-.75c.17-.34.45-.34.69-.17,1.37-1.71,2.64-3.46,3.84-5.31.2.28.1.37.03.48-1.13,1.71-2.37,3.36-3.63,5.01-.07.1-.17.24-.28.17-.51-.28-.51.2-.72.48.31.14.48.79.93.17.89-1.34,1.92-2.57,2.85-3.87.65-.93,1.37-1.85,1.88-2.98h-2.23c-.28,0-.45.17-.58.37-1.99,2.78-4.01,5.52-6.07,8.33.96.51,1.92,1.03,2.88,1.54h0ZM96.33,31.56c.37-.07.69-.14.96-.14,1.68,0,3.02.69,4.25,1.75,1.06.96,1.75,2.19,2.6,3.29.69.86,1.3,1.06,2.37.79.93-.24,1.61-.82,2.19-1.51,1.65-1.92,1.61-1.3.24-3.39,0-.03-.07-.07-.14-.14-.1.1-.17.2-.28.34-.93,1.2-2.33,1.48-3.63.75-.51-.31-1-.62-1.44-1-1.03-.86-2.23-1.48-3.5-1.88-1.4-.45-2.6-.1-3.63,1.13h0ZM96.58,45.99c-.45.72-.93,1.23-1.37,1.82-.31.37-.55.79-.69,1.23-.31.96-.14,1.51.69,2.02.37.24.58.55.55,1v.79c0,.96.69,1.71,1.61,1.95,1.27.34,2.54.24,3.84.2.75,0,1.51-.2,2.33-.69h-.72c-.96,0-1.17-.14-1.54-1.1-.2-.55-.58-.89-1.17-1-1.51-.31-1.99-1.54-1.75-2.85.03-.2,0-.34-.14-.48-.86-.75-1.4-1.68-1.65-2.91h0ZM74.19,48.97c1.27-.55,2.47-.24,3.7.07,1.4.37,2.81.41,4.22.28,1.82-.2,3.12-1.3,4.42-2.47.41-.37.75-.79,1.03-1.3-.07,0-.1-.03-.1,0-.07,0-.1.03-.17.07-1.48,1-3.15,1.2-4.87,1-.86-.1-1.65-.45-2.47-.65-1.51-.34-2.95-.28-4.18.82-.69.62-1.1,1.4-1.58,2.23v-.03h0ZM77.55,42.94c1.54.51,3.05.62,4.56.07,2.71-1,4.28-3.19,5.73-5.52-2.16-.2-4.08.28-5.9,1.37-1.75,1.06-2.95,2.6-4.39,4.08ZM90.3,36.98c-.07-.2-.14-.41-.24-.58-1.75-3.02-3.7-5.86-6.55-7.99-1.23-.89-2.43-1.92-3.91-2.26-1.54-.37-3.15-.2-4.73,0-.69.07-1.37.17-2.02.41.17.28.41.41.65.51,1.23.51,2.5.79,3.8.93,2.19.24,4.25.79,6.1,1.95,1.99,1.27,3.7,2.74,4.42,5.11.07.2.24.24.41.31.79.41,1.48.96,2.13,1.58l-.07.03h0ZM94.21,48.15h.17c.34-.55.79-1,1.2-1.51.37-.41.86-.82.86-1.44,0-1,.24-1.99.31-2.98.07-.69.24-1.48-.37-1.99-1.06-.89-2.26-1.48-3.67-1.17-1.4.28-1.48.48-1.1,1.85.14.51.34.89.79,1.27,1.1.89,1.78,2.09,1.82,3.56v2.4h0ZM62.09,45.99c.82.37,1.37.96,1.95,1.54,1,1,1.17,2.54.37,3.7-.31.48-.72.93-1.1,1.34-1.17,1.34-.89,3.46.62,4.39-.07-1.58.55-2.85,1.44-4.05.31-.41.62-.86.89-1.3,1.06-1.85,1.37-3.74-.07-5.52-.66-.82-1.48-1.11-2.43-.86-.58.14-1.1.41-1.68.75h0ZM108.23,46.89c-.2-.03-.37,0-.55.03-2.16.2-4.15-.34-5.14-2.64-.28-.69-.51-1.37-.75-2.06-.24-.65-.51-1.3-.96-1.99.03,1.03-.34,1.82-.55,2.64-.41,1.78-.34,3.5,1.06,4.93.48.51,1.1.89,1.82.72,1-.2,1.95-.2,2.91.17,1.4.51,2.4-.37,2.19-1.78l-.03-.03h0ZM106.17,33.38c.75,0,1.34-.24,1.85-.75.65-.65.69-.79,0-1.44-1.2-1.17-2.64-1.99-4.22-2.57-.48-.17-.93-.34-1.44-.2-.75.17-1.48.45-1.95,1.1-.28.34-.34.62.2.79.58.17,1.17.45,1.68.79.86.58,1.68,1.2,2.57,1.78.41.28.82.55,1.3.51h0ZM102.2,27.99c-1.3-.45-2.5-.65-3.77-.58-1.78.14-3.15.96-4.15,2.4-.2.28-.31.58-.34.96,0,.65-.24,1.17-.79,1.58-.75.55-1.03,1.44-.75,2.26.37-.69.79-1.27,1.37-1.71.58-.45,1.27-.75,1.92-1.06.1-.07.17-.14.24-.24.79-1.13,1.82-1.92,3.25-1.71.62.1.82-.1,1.06-.58.37-.75,1.13-1,1.99-1.3h-.04ZM109.43,49.59c-3.67,2.4-7.16,2.13-10.63-.07-.1,1.3.31,2.02,1.51,2.43.58.2,1,.58,1.27,1.13.51,1.06,1.82,1.44,2.88.89,1.95-1,3.56-2.43,4.97-4.36v-.03h0ZM103.23,44.45c.41.89,1.13,1.54,1.99,1.78,2.13.65,4.05.2,5.79-1.13.1-.07.17-.14.2-.28.2-1.17.31-2.37.2-3.6-1.03,1.2-1.78,1.65-3.25,1.92-.41.07-.65.2-.89.55-.37.51-.89.86-1.51,1-.86.2-1.68.2-2.5-.24h-.03ZM92.08,51.41c-.34.65-.62,1.3-1.03,1.92-.17.28-.31.58-.24.93.14.82.28,1.65.41,2.47.55,2.88-.28,5.35-2.16,7.47-.72.82-1.68,1.34-2.81,1.65.28.14.45,0,.62-.03,2.91-.75,4.97-2.47,5.9-5.42.14-.41.28-.86.2-1.3-.17-1.03-.34-2.02-.75-3.02-.41-.96-.51-1.95-.34-2.98.07-.58.24-1.13.24-1.68h-.04ZM64.66,65.16c-.28-1.51.41-2.47,1.48-3.25.2-.14.41-.34.58-.51.51-.45.79-1,.89-1.65.2-1.17-.14-2.16-1.06-2.95-.75-.69-1.54-1.34-1.51-2.57-.31.28-.41.58-.51.89-.34,1.03-.51,1.95.41,2.95,1.03,1.1,1.17,2.3.1,3.46-.48.51-.89,1.1-1.1,1.78-.2.75-.07,1.2.69,1.82l.03.03h0ZM36.89,90.93c-.58-.17-.89.07-1.17.48-.55.86-1.13,1.71-1.71,2.54-1.27,1.88-2.57,3.8-3.84,5.69,1.13.79,2.16,1.68,3.46,2.16.31.1.48.03.69-.14.82-.82,1.54-1.71,2.3-2.64,1.58-1.88,3.05-3.87,4.45-5.86.51-.72,1-1.48,1.37-2.33-.31,0-.51-.14-.72.17-1.4,2.23-3.15,4.25-4.66,6.38-.89,1.27-1.82,2.47-2.81,3.67-.17.24-.34.34-.65.2-.96-.55-1.92-1.1-2.98-1.68,2.09-2.88,4.15-5.73,6.24-8.61l.03-.03h0ZM44.13,45.21c.14-.14.17-.17.24-.2,2.16-2.68,4.59-5.04,7.2-7.2.1-.07.28-.14.24-.31-.1-.41-.34-.72-.72-.93-.34-.2-.51.07-.72.24-1.78,1.61-3.36,3.43-5.01,5.21-.86.93-1.2,1.92-1.23,3.22v-.03h0ZM92.91,51.79c0-.51.14-.96.37-1.37.41-.79.72-1.54.65-2.47-.07-.96.1-1.95-.14-2.91-.28-1.06-.79-2.02-1.82-2.78.07.55.14.96.17,1.4.28,1.82.31,3.63.14,5.45-.1,1.03.17,1.85.58,2.71l.03-.03h0ZM14.2,121.31c.93-1.06,1.82-2.06,2.71-3.08.1.17,0,.28-.07.34-.79.96-1.54,1.88-2.33,2.85-.14.2-.48.37-.14.75,1.34-1.85,2.95-3.46,4.22-5.31-.17-.31-.48-.45-.72-.65-.24-.2-.51-.37-.75-.55-1.23.96-3.25,3.43-3.19,3.91.96-1.2,1.99-2.26,3.02-3.36.37.28.72.48.72.96-.41-.03-.48-.51-.89-.58-.62.89-1.44,1.68-2.19,2.5-.65.69-.72,1.34-.41,2.23h.03,0ZM86.12,55.66c2.88-.65,3.02-.69,4.15-2.06,1.03-1.3,1.78-2.68,1.4-4.36-.45.89-.96,1.71-1.61,2.47s-1.44,1.4-2.19,2.02c-.62.51-1.2,1.13-1.75,1.88v.03h0ZM53.52,41.64c-.24-.55-.45-.96-.62-1.37-.1-.31-.28-.37-.58-.37-.86.03-1.71.07-2.57.07-.17,0-.31.03-.41.17-.72.75-1.44,1.51-2.26,2.4,2.16-.65,4.25-.86,6.44-.89h0ZM90.85,37.46c.17-.41.28-.86.51-1.2.58-.72.65-1.51.65-2.4,0-.79.31-1.48.96-1.88.37-.24.55-.55.55-.93-.03-.72.1-1.37.62-2.06-2.74,1.92-4.32,5.45-3.29,8.47h0ZM110.22,34.72c-1.34,1.37-2.47,2.88-4.53,2.98,1.85,1.37,3.8.55,4.93-.69.14-.14.17-.24.14-.41-.17-.58-.31-1.2-.51-1.88h-.03ZM93.93,50.25c-1.27,2.09-.24,3.43,1.71,3.91-.37-.65-.31-1.34-.24-1.99.03-.37,0-.69-.34-.79-.51-.2-.86-.55-1.13-1.1v-.03h0ZM52.6,39.58c-.24-.62-.45-1.13-.65-1.68-.72.51-1.34,1.03-1.92,1.68h2.57ZM69.25,53.13c-1.17,1.65-.65,2.91.79,4.56.1-.55-.1-1.03-.34-1.44-.58-.96-.82-1.92-.45-3.12Z"/>
      <path class="cls-4" d="M120.23,105.5c0-.31-.07-.55-.37-.69-2.91-1.44-5.66-3.22-8.78-4.32-.93-.31-1.78-.72-2.71-1.1.1-.28.17-.45.28-.65.28-.65.24-.75-.41-.96-.31-.1-.62-.2-.93-.28-3.77-1.06-7.54-2.06-11.35-2.91-2.09-.48-4.18-1.03-6.34-1.4-.07.58-.41.69-.89.51-.1-.03-.24-.03-.34-.03-2.54-.1-4.9-.72-7.24-1.75-2.47-1.06-3.74-2.88-3.74-5.56,0-3.19,0-6.38.45-9.56.2-1.4.55-2.74,1.54-3.8.45-.51.96-.86,1.68-.96,1.85-.31,2.68-1.13,3.05-2.98.07-.34.14-.72.2-1.06.2-1,.72-1.51,1.71-1.58,1.61-.1,3.02-.75,4.28-1.75,1.82-1.44,2.88-3.33,2.85-5.69,0-1.1-.28-2.16-.62-3.22-.37-1.1-.17-2.23-.14-3.36.17.17.28.41.41.58.14.2.28.41.48.55,2.57,1.88,5.42,2.47,8.53,1.95,1.68-.31,3.15-1.13,4.53-2.16,1.95-1.48,3.63-3.22,4.56-5.56.72-1.78.96-3.67,1.06-5.59.1-2.74-.45-5.42-1.37-7.99-.55-1.48-1.51-2.74-2.74-3.74-1.71-1.4-3.7-2.19-5.76-2.88-1.44-.48-2.91-.75-4.49-.48-2.6.41-4.66,1.65-6.21,3.77-.96,1.3-1.4,2.81-1.4,4.45-.07,0-.1-.03-.14-.07-.14-.17-.24-.37-.37-.55-1.44-2.19-2.91-4.36-4.97-6-2.16-1.71-4.42-3.15-7.13-3.87-1.65-.45-3.36-.75-4.97-1.34-1.03-.34-2.06-.65-3.15-.69-2.91-.17-5.79.14-8.61,1-3.33,1.03-6.38,2.57-8.95,4.97-.82.79-1.75,1.48-2.85,1.88-.17.07-.37.17-.58.14-.55-.14-1.13-.07-1.68-.07-2.09.03-3.29,1.61-2.85,3.63.24,1.13.82,2.02,1.71,2.71-.31.86-.58,1.68-.89,2.54-.65,1.78-1,3.67-1.23,5.56-.2,1.51.2,2.95.79,4.32.72,1.71.69,3.36-.24,5.01-1.4,2.57-2.74,5.14-4.15,7.75-.31.58-.37,1.1.07,1.61.93,1,1.92,1.85,3.33,1.99.82.07,1.03.34,1.03,1.27,0,.41-.28.65-.51.89-.58.58-.65,1.03-.2,1.71.28.45.58.86.86,1.3.34.55.69,1.06.48,1.78-.17.62.07,1.2.45,1.75.41.62.75,1.23,1.03,1.95.37,1.1.51,2.23.62,3.36.17,1.44.82,1.71,1.99,1.78,1.68.14,3.36-.1,5.01-.45,1.06-.24,2.09-.48,3.19-.82v.89c-.03,2.54.03,5.11-.1,7.64-.14,2.09-.69,2.85-2.6,3.67-2.68,1.17-5.56,1.2-8.43,1.58.41-.72.79-1.37,1.13-2.02.17-.34.34-.69.37-1.06,0-.41-.14-.55-.58-.62-.72-.14-1.37.2-2.06.14-.93-.07-1.88-.2-2.81-.24-2.26-.03-4.49-.07-6.72.2-2.4.28-4.73.72-6.99,1.48-4.18,1.37-7.75,3.67-10.46,7.16-3.22,4.15-4.49,9.01-4.76,14.16-.1,1.85,0,3.7.2,5.52.34,3.19.82,6.34,1.82,9.39.03.14.17.24,0,.45-.55.69-.48,1.48-.28,2.3.07.24,0,.58.31.65.34.1.48-.24.65-.45,1.23-1.34,2.43-2.64,3.7-4.01.14.24.2.45.31.62,3.53,7.68,7.81,14.91,12.65,21.84,3.56,5.07,7.47,9.91,11.66,14.5,3.63,3.98,7.51,7.71,11.72,11.07,3.22,2.54,6.62,4.83,10.35,6.55.48.2.89.2,1.37,0,3.19-1.48,6.13-3.39,8.98-5.48,6.48-4.83,12.03-10.66,17.21-16.79,6.96-8.26,12.96-17.21,17.86-26.88,3.56-7.03,6.72-14.19,8.06-22.01.28-1.65.48-3.33.41-5.04l.17-.07.03-.02Z"/>
      <path class="cls-1" d="M70.21,63.34c0-.51.24-.69.37-.93,1-1.54,1.92-3.12,2.16-5.01.14-1.13.24-2.3.55-3.43.2-.72.48-1.4,1.1-1.88.48-.41.93-.41,1.3,0-1,.1-1.3.86-1.54,1.61-.45,1.27-.58,2.6-.86,3.91-.45,2.02-1.51,3.7-2.64,5.38-.07.1-.24.17-.48.34h.03,0Z"/>
      <path class="cls-1" d="M44.88,63.89c.72,0,1.2.2,1.61.62.28.28.48.24.75,0,.45-.41.69-.89.82-1.44.07-.24.17-.48-.1-.65-.24-.17-.55-.14-.79.07-.17.14-.31.34-.55.31,0-.55.37-.93.96-.93.62,0,.93.24.89.86-.07.93-.51,1.68-1.2,2.26-.2.17-.48.2-.65.07-.48-.34-1-.62-1.51-.82-.07,0-.07-.14-.2-.31l-.03-.03h0Z"/>
      <path class="cls-1" d="M23.25,110.3c.17.1.34.17.58.28,1.88-2.19,3.77-4.36,5.62-6.65.17.37-.1.51-.24.69-1.61,1.95-3.25,3.87-4.87,5.79-.34.37-.65.69-1.13.24-.1.2-.31.34-.34.58,0,.03,0,.07.07.1.5.41.96.38,1.37-.1,1.92-2.3,3.8-4.63,5.69-6.93.17-.2.34-.41.41-.72-.82-.51-1.51-1.27-2.33-1.71-1.4,1.44-2.6,3.02-3.87,4.49-1.61,1.95-3.12,3.98-4.56,6.03-.28.37,0,.51.24.65,1.06.75,2.16,1.51,3.33,2.33,2.78-3.5,5.86-6.72,8.5-10.32.07-.1-.07-.17-.2-.28-2.81,3.19-5.38,6.58-8.36,9.7-.14-.34.07-.48.2-.62,1.44-1.65,2.88-3.25,4.28-4.9,1.17-1.37,2.3-2.78,3.46-4.15.24-.31.48-.55.86-.14.24.28.1.45-.07.69-1.2,1.58-2.43,3.12-3.7,4.66-1.4,1.65-2.78,3.33-4.11,5.04-.65.79-.86.82-1.71.28-1-.62-1.85-1.37-2.78-2.09-.41-.31-.51-.58-.17-1.1,1.65-2.37,3.5-4.59,5.31-6.86.93-1.13,1.82-2.23,2.81-3.29.51-.55.72-.58,1.34-.14.51.37,1.03.75,1.54,1.17.41.31.48.69.2,1.13-.65,1.1-1.48,2.06-2.26,3.02-1.2,1.48-2.43,2.91-3.67,4.39-.75.89-1.2.89-1.95,0-.14-.17-.14-.34,0-.51.17-.31.34-.58.62-.82l-.1.07h0Z"/>
      <path class="cls-1" d="M29.52,103.89c-.55-.1-.86-.62-1.4-.72-2.74,2.88-5.21,5.96-7.51,9.22.07.28.45.28.45.55-.28-.02-.55-.17-.82-.45.51-.86,1.1-1.68,1.71-2.47,1.51-1.95,3.02-3.91,4.66-5.73.31-.34.62-.69.96-1,.65-.55.86-.55,1.51,0,.17.14.41.28.45.62v-.03h0Z"/>
      <path class="cls-5" d="M70.21,63.34c0-.51.24-.69.37-.93,1-1.54,1.92-3.12,2.16-5.01.14-1.13.24-2.3.55-3.43.2-.72.48-1.4,1.1-1.88.48-.41.93-.41,1.3,0-1,.1-1.3.86-1.54,1.61-.45,1.27-.58,2.6-.86,3.91-.45,2.02-1.51,3.7-2.64,5.38-.07.1-.24.17-.48.34h.03,0Z"/>
      <path class="cls-5" d="M44.88,63.89c.72,0,1.2.2,1.61.62.28.28.48.24.75,0,.45-.41.69-.89.82-1.44.07-.24.17-.48-.1-.65-.24-.17-.55-.14-.79.07-.17.14-.31.34-.55.31,0-.55.37-.93.96-.93.62,0,.93.24.89.86-.07.93-.51,1.68-1.2,2.26-.2.17-.48.2-.65.07-.48-.34-1-.62-1.51-.82-.07,0-.07-.14-.2-.31l-.03-.03h0Z"/>
      <path class="cls-5" d="M23.25,110.3c.17.1.34.17.58.28,1.88-2.19,3.77-4.36,5.62-6.65.17.37-.1.51-.24.69-1.61,1.95-3.25,3.87-4.87,5.79-.34.37-.65.69-1.13.24-.1.2-.31.34-.34.58,0,.03,0,.07.07.1.5.41.96.38,1.37-.1,1.92-2.3,3.8-4.63,5.69-6.93.17-.2.34-.41.41-.72-.82-.51-1.51-1.27-2.33-1.71-1.4,1.44-2.6,3.02-3.87,4.49-1.61,1.95-3.12,3.98-4.56,6.03-.28.37,0,.51.24.65,1.06.75,2.16,1.51,3.33,2.33,2.78-3.5,5.86-6.72,8.5-10.32.07-.1-.07-.17-.2-.28-2.81,3.19-5.38,6.58-8.36,9.7-.14-.34.07-.48.2-.62,1.44-1.65,2.88-3.25,4.28-4.9,1.17-1.37,2.3-2.78,3.46-4.15.24-.31.48-.55.86-.14.24.28.1.45-.07.69-1.2,1.58-2.43,3.12-3.7,4.66-1.4,1.65-2.78,3.33-4.11,5.04-.65.79-.86.82-1.71.28-1-.62-1.85-1.37-2.78-2.09-.41-.31-.51-.58-.17-1.1,1.65-2.37,3.5-4.59,5.31-6.86.93-1.13,1.82-2.23,2.81-3.29.51-.55.72-.58,1.34-.14.51.37,1.03.75,1.54,1.17.41.31.48.69.2,1.13-.65,1.1-1.48,2.06-2.26,3.02-1.2,1.48-2.43,2.91-3.67,4.39-.75.89-1.2.89-1.95,0-.14-.17-.14-.34,0-.51.17-.31.34-.58.62-.82l-.1.07h0Z"/>
      <path class="cls-5" d="M29.52,103.89c-.55-.1-.86-.62-1.4-.72-2.74,2.88-5.21,5.96-7.51,9.22.07.28.45.28.45.55-.28-.02-.55-.17-.82-.45.51-.86,1.1-1.68,1.71-2.47,1.51-1.95,3.02-3.91,4.66-5.73.31-.34.62-.69.96-1,.65-.55.86-.55,1.51,0,.17.14.41.28.45.62v-.03h0Z"/>
      <path class="cls-5" d="M75.32,35.37c-1.51-1.06-2.91-2.16-4.25-3.36-.28-.24-.62-.31-.96-.28-.72.1-1.48.2-2.19.28-1.95.17-3.56-.72-5.11-1.78-.48-.34-1-.65-1.4-1.17,2.85-.2,5.52.1,8.02,1.51-1-1.2-1.95-2.33-3.5-2.95-1.65-.65-2.85-1.88-3.36-3.7-.28-.93-.65-1.82-.58-2.88.72.37,1.37.82,1.95,1.34,1.54,1.44,3.08,2.88,3.5,5.11.1.51.55.82.86,1.23.34.41.72.75,1.17,1.13-1.51-2.37-.75-4.8-.31-7.24.31,0,.34.24.41.37.89,2.09,1.44,4.25,1.48,6.55,0,.45-.07.93-.17,1.37-.03.24,0,.37.14.55,1.34,1.17,2.68,2.26,4.25,3.22-2.19-2.5-2.02-5.62-2.43-8.61.31-.03.41.14.51.28,1.2,1.99,2.5,3.98,3.22,6.21.28.82.31,1.75.24,2.6,0,.28,0,.48.31.65,2.23,1.13,4.56,2.02,6.93,2.74.07,0,.14,0,.31-.07-3.22-1.3-5.35-3.5-5.86-7.06.82.34,1.65.69,2.33,1.3,1.54,1.37,2.85,2.91,3.63,4.87.14.37.37.69.58,1.03.24.37.65.28,1,.34,1.17.2,2.33.24,3.67.17-2.43-1.51-3.63-3.63-4.05-6.38.82.51,1.54,1.03,2.19,1.61.89.79,1.82,1.54,2.33,2.64.45.93.55,1.88.24,2.91-.79,2.47-2.43,4.18-4.63,5.45-.51.31-1.06.62-1.65.96.48-3.02,1.65-5.93,4.73-6.79-1.03-.1-1.88.07-2.74-.17-1.23-.34-2.16.28-3.08.93-1.4,1-2.91,1.65-4.7,1.48-.89-.07-1.75-.28-2.74-.62,2.33-1.58,4.76-2.3,7.54-2.43-1.58-.58-3.08-1.13-4.53-1.75-.24-.1-.55-.2-.75-.34-.96-.72-1.95-.55-2.91-.14-1.1.45-2.19.79-3.43.72-1.92-.07-3.63-.75-5.31-1.58-.03,0-.07-.07-.17-.2,3.12-.79,6.17-.86,9.26-.1l.03.03h0Z"/>
    </g>
  </g>
</svg>